<svg xmlns="http://www.w3.org/2000/svg" xmlns:xlink="http://www.w3.org/1999/xlink" width="100" zoomAndPan="magnify" viewBox="0 0 75 74.999997" height="100" preserveAspectRatio="xMidYMid meet" version="1.0"><defs><clipPath id="981989c0a6"><path d="M 6 3 L 63 3 L 63 71.25 L 6 71.25 Z M 6 3 " clip-rule="nonzero"/></clipPath></defs><rect x="-7.5" width="90" fill="#ffffff" y="-7.5" height="89.999996" fill-opacity="1"/><rect x="-7.5" width="90" fill="#ffffff" y="-7.5" height="89.999996" fill-opacity="1"/><rect x="-7.5" width="90" fill="#ffffff" y="-7.5" height="89.999996" fill-opacity="1"/><path fill="#ff751f" d="M 52.933594 57.4375 C 52.933594 57.167969 52.90625 56.894531 52.855469 56.628906 C 52.800781 56.363281 52.722656 56.101562 52.617188 55.851562 C 52.511719 55.597656 52.386719 55.359375 52.234375 55.132812 C 52.082031 54.90625 51.910156 54.695312 51.71875 54.503906 C 51.523438 54.3125 51.316406 54.136719 51.089844 53.988281 C 50.863281 53.835938 50.621094 53.707031 50.371094 53.601562 C 50.117188 53.5 49.859375 53.421875 49.59375 53.367188 C 49.324219 53.3125 49.054688 53.289062 48.78125 53.289062 C 48.507812 53.289062 48.238281 53.3125 47.972656 53.367188 C 47.703125 53.421875 47.445312 53.5 47.195312 53.601562 C 46.941406 53.707031 46.703125 53.835938 46.476562 53.988281 C 46.25 54.136719 46.039062 54.3125 45.847656 54.503906 C 45.652344 54.695312 45.480469 54.90625 45.332031 55.132812 C 45.179688 55.359375 45.050781 55.597656 44.945312 55.851562 C 44.84375 56.101562 44.765625 56.363281 44.710938 56.628906 C 44.65625 56.894531 44.632812 57.167969 44.632812 57.4375 C 44.632812 57.710938 44.65625 57.980469 44.710938 58.25 C 44.765625 58.515625 44.84375 58.777344 44.945312 59.027344 C 45.050781 59.277344 45.179688 59.519531 45.332031 59.746094 C 45.480469 59.972656 45.652344 60.179688 45.847656 60.375 C 46.039062 60.566406 46.25 60.738281 46.476562 60.890625 C 46.703125 61.042969 46.941406 61.167969 47.195312 61.273438 C 47.445312 61.378906 47.703125 61.457031 47.972656 61.511719 C 48.238281 61.5625 48.507812 61.589844 48.78125 61.589844 C 49.054688 61.589844 49.324219 61.5625 49.59375 61.511719 C 49.859375 61.457031 50.117188 61.378906 50.371094 61.273438 C 50.621094 61.167969 50.863281 61.042969 51.089844 60.890625 C 51.316406 60.738281 51.523438 60.566406 51.71875 60.375 C 51.910156 60.179688 52.082031 59.972656 52.234375 59.746094 C 52.386719 59.519531 52.511719 59.277344 52.617188 59.027344 C 52.722656 58.777344 52.800781 58.515625 52.855469 58.25 C 52.90625 57.980469 52.933594 57.710938 52.933594 57.4375 Z M 39.492188 43.996094 C 39.492188 43.726562 39.464844 43.457031 39.414062 43.1875 C 39.359375 42.921875 39.28125 42.660156 39.175781 42.410156 C 39.074219 42.15625 38.945312 41.917969 38.792969 41.691406 C 38.640625 41.464844 38.46875 41.253906 38.277344 41.0625 C 38.085938 40.871094 37.875 40.699219 37.648438 40.546875 C 37.421875 40.394531 37.183594 40.265625 36.929688 40.164062 C 36.679688 40.058594 36.417969 39.980469 36.152344 39.925781 C 35.882812 39.875 35.613281 39.847656 35.339844 39.847656 C 35.070312 39.847656 34.800781 39.875 34.53125 39.925781 C 34.265625 39.980469 34.003906 40.058594 33.753906 40.164062 C 33.5 40.265625 33.261719 40.394531 33.035156 40.546875 C 32.808594 40.699219 32.597656 40.871094 32.40625 41.0625 C 32.214844 41.253906 32.042969 41.464844 31.890625 41.691406 C 31.738281 41.917969 31.609375 42.15625 31.507812 42.410156 C 31.402344 42.660156 31.324219 42.921875 31.269531 43.1875 C 31.21875 43.457031 31.191406 43.726562 31.191406 43.996094 C 31.191406 44.269531 31.21875 44.539062 31.269531 44.808594 C 31.324219 45.074219 31.402344 45.335938 31.507812 45.585938 C 31.609375 45.839844 31.738281 46.078125 31.890625 46.304688 C 32.042969 46.53125 32.214844 46.742188 32.40625 46.933594 C 32.597656 47.125 32.808594 47.296875 33.035156 47.449219 C 33.261719 47.601562 33.5 47.730469 33.753906 47.832031 C 34.003906 47.9375 34.265625 48.015625 34.53125 48.070312 C 34.800781 48.121094 35.070312 48.148438 35.339844 48.148438 C 35.613281 48.148438 35.882812 48.121094 36.152344 48.070312 C 36.417969 48.015625 36.679688 47.9375 36.929688 47.832031 C 37.183594 47.730469 37.421875 47.601562 37.648438 47.449219 C 37.875 47.296875 38.085938 47.125 38.277344 46.933594 C 38.46875 46.742188 38.640625 46.53125 38.792969 46.304688 C 38.945312 46.078125 39.074219 45.839844 39.175781 45.585938 C 39.28125 45.335938 39.359375 45.074219 39.414062 44.808594 C 39.464844 44.539062 39.492188 44.269531 39.492188 43.996094 Z M 39.492188 43.996094 " fill-opacity="1" fill-rule="nonzero"/><g clip-path="url(#981989c0a6)"><path fill="#000000" d="M 5.960938 19.117188 L 8.515625 19.117188 C 8.550781 19.390625 8.632812 19.621094 8.601562 19.839844 C 8.265625 22.234375 9.726562 23.484375 11.558594 24.476562 C 13.984375 25.789062 16.640625 26.378906 19.34375 26.648438 C 23.585938 27.070312 27.800781 26.832031 31.808594 25.253906 C 33.152344 24.726562 34.382812 23.863281 35.574219 23.023438 C 36.371094 22.460938 36.664062 21.542969 36.628906 20.53125 C 36.589844 19.46875 36.617188 18.40625 36.617188 17.242188 C 36.339844 17.320312 36.167969 17.328125 36.042969 17.410156 C 33.132812 19.289062 29.886719 20.160156 26.488281 20.519531 C 21.566406 21.035156 16.703125 20.785156 12.0625 18.894531 C 10.714844 18.347656 9.394531 17.597656 8.261719 16.695312 C 5.140625 14.203125 5.109375 10.644531 8.101562 7.996094 C 10.355469 6.003906 13.121094 5.0625 15.996094 4.484375 C 21.304688 3.414062 26.585938 3.5625 31.785156 5.175781 C 33.878906 5.828125 35.835938 6.765625 37.433594 8.324219 C 38.554688 9.421875 39.257812 10.722656 39.261719 12.328125 C 39.265625 17.320312 39.261719 22.3125 39.257812 27.308594 C 39.257812 27.503906 39.21875 27.699219 39.1875 27.972656 L 36.703125 27.972656 L 36.542969 26.105469 C 27.242188 30.746094 18.019531 30.722656 8.765625 26.1875 C 7.734375 29.148438 8.628906 31.660156 11.417969 33.199219 C 14.390625 34.839844 17.648438 35.386719 20.988281 35.5625 C 22.609375 35.648438 22.515625 35.292969 22.519531 37.179688 L 22.519531 38.300781 C 17.574219 38.308594 12.957031 37.4375 8.671875 34.753906 C 8.671875 36.320312 8.453125 37.761719 8.75 39.09375 C 8.941406 39.957031 9.753906 40.832031 10.511719 41.398438 C 12.570312 42.929688 15.035156 43.511719 17.519531 43.964844 C 18.042969 44.058594 18.574219 44.132812 19.253906 44.238281 L 19.023438 46.859375 C 15.292969 46.554688 11.914062 45.542969 8.828125 43.574219 C 7.796875 47.132812 8.558594 49.277344 11.613281 50.933594 C 14.769531 52.644531 18.234375 53.167969 21.90625 53.246094 C 21.90625 52.753906 21.925781 52.335938 21.902344 51.917969 C 21.640625 46.910156 22.964844 42.378906 25.996094 38.367188 C 26.65625 37.496094 27.46875 37.296875 28.121094 37.816406 C 28.757812 38.316406 28.761719 39.089844 28.144531 39.953125 C 24.171875 45.535156 23.402344 51.511719 26.085938 57.835938 C 29 64.699219 36.46875 69 43.875 68.175781 C 53.453125 67.109375 60.265625 59.152344 59.777344 49.605469 C 59.363281 41.535156 52.890625 34.484375 44.824219 33.285156 C 40.65625 32.667969 36.78125 33.460938 33.113281 35.515625 C 32.640625 35.78125 31.882812 35.789062 31.363281 35.613281 C 31.074219 35.511719 30.808594 34.753906 30.875 34.347656 C 30.945312 33.933594 31.359375 33.472656 31.746094 33.234375 C 40.484375 27.871094 52.382812 30.265625 58.429688 38.574219 C 66.164062 49.195312 62.351562 63.796875 50.425781 69.246094 C 41.882812 73.152344 31.265625 70.375 25.859375 62.679688 C 24.625 60.921875 23.777344 58.878906 22.882812 56.910156 C 22.589844 56.265625 22.359375 55.964844 21.628906 55.953125 C 18.558594 55.910156 15.554688 55.445312 12.667969 54.375 C 10.285156 53.488281 8.023438 52.359375 6.699219 50.046875 C 6.28125 49.320312 5.960938 48.414062 5.957031 47.589844 C 5.898438 38.238281 5.910156 28.890625 5.902344 19.539062 C 5.902344 19.441406 5.929688 19.34375 5.960938 19.117188 Z M 22.238281 18.070312 C 25.511719 18.023438 28.429688 17.683594 31.246094 16.726562 C 32.933594 16.15625 34.554688 15.429688 35.785156 14.070312 C 36.859375 12.878906 36.976562 11.644531 35.808594 10.617188 C 34.675781 9.621094 33.351562 8.746094 31.96875 8.167969 C 28.1875 6.585938 24.171875 6.324219 20.132812 6.617188 C 17.082031 6.839844 14.089844 7.457031 11.382812 8.976562 C 10.101562 9.699219 8.722656 10.511719 8.652344 12.195312 C 8.585938 13.914062 9.941406 14.753906 11.226562 15.496094 C 14.730469 17.511719 18.613281 17.933594 22.238281 18.070312 Z M 22.238281 18.070312 " fill-opacity="1" fill-rule="nonzero"/></g><path fill="#000000" d="M 61.714844 16.332031 L 61.714844 15.085938 C 61.714844 11.835938 61.710938 8.585938 61.714844 5.335938 C 61.714844 3.800781 62.097656 3.214844 63.082031 3.226562 C 64.058594 3.238281 64.390625 3.789062 64.390625 5.382812 C 64.390625 7.796875 64.421875 10.207031 64.375 12.617188 C 64.359375 13.414062 64.621094 13.675781 65.40625 13.640625 C 66.675781 13.589844 67.953125 13.609375 69.222656 13.628906 C 70.558594 13.648438 71.695312 14.089844 72.167969 15.449219 C 72.644531 16.816406 72.4375 18.09375 71.375 19.160156 C 67.382812 23.167969 63.394531 27.183594 59.390625 31.183594 C 57.773438 32.800781 55.753906 32.832031 54.136719 31.230469 C 50.09375 27.222656 46.066406 23.203125 42.050781 19.164062 C 40.957031 18.066406 40.847656 16.742188 41.398438 15.351562 C 41.929688 14.011719 43.03125 13.597656 44.386719 13.625 C 45.460938 13.648438 46.53125 13.59375 47.601562 13.640625 C 48.367188 13.675781 48.6875 13.445312 48.648438 12.625 C 48.585938 11.390625 48.621094 10.148438 48.636719 8.910156 C 48.648438 7.828125 49.132812 7.25 49.960938 7.257812 C 50.789062 7.265625 51.257812 7.851562 51.265625 8.9375 C 51.277344 11.046875 51.234375 13.15625 51.289062 15.265625 C 51.308594 16.082031 51.09375 16.386719 50.234375 16.355469 C 48.394531 16.292969 46.550781 16.320312 44.707031 16.347656 C 44.410156 16.351562 44.117188 16.539062 43.824219 16.640625 C 43.953125 16.925781 44.015625 17.277344 44.222656 17.484375 C 48.113281 21.40625 52.019531 25.3125 55.921875 29.222656 C 56.472656 29.777344 56.996094 29.789062 57.566406 29.21875 C 61.457031 25.296875 65.359375 21.386719 69.242188 17.460938 C 69.457031 17.246094 69.539062 16.90625 69.683594 16.625 C 69.386719 16.527344 69.085938 16.347656 68.789062 16.347656 C 66.480469 16.320312 64.175781 16.332031 61.714844 16.332031 Z M 35.710938 61.667969 C 35.210938 61.261719 34.660156 61.03125 34.566406 60.683594 C 34.441406 60.203125 34.492188 59.523438 34.753906 59.113281 C 36.09375 57.035156 37.523438 55.011719 38.925781 52.972656 C 41.636719 49.03125 44.347656 45.09375 47.0625 41.15625 L 47.40625 40.660156 C 47.890625 39.953125 48.527344 39.699219 49.296875 40.148438 C 50.003906 40.558594 50.132812 41.375 49.609375 42.160156 C 48.34375 44.050781 47.066406 45.929688 45.773438 47.800781 C 42.851562 52.042969 39.933594 56.289062 36.984375 60.515625 C 36.6875 60.941406 36.199219 61.234375 35.710938 61.667969 Z M 48.472656 62.449219 C 45.746094 62.441406 43.484375 60.175781 43.496094 57.460938 C 43.507812 54.757812 45.816406 52.453125 48.5 52.472656 C 51.210938 52.488281 53.472656 54.777344 53.464844 57.492188 C 53.464844 57.820312 53.429688 58.144531 53.363281 58.460938 C 53.300781 58.78125 53.203125 59.09375 53.078125 59.394531 C 52.953125 59.695312 52.796875 59.980469 52.617188 60.253906 C 52.433594 60.523438 52.226562 60.773438 51.992188 61.003906 C 51.761719 61.234375 51.511719 61.441406 51.238281 61.621094 C 50.964844 61.800781 50.679688 61.953125 50.375 62.078125 C 50.074219 62.203125 49.761719 62.296875 49.441406 62.359375 C 49.121094 62.421875 48.796875 62.453125 48.472656 62.449219 Z M 50.769531 57.484375 C 50.769531 57.183594 50.714844 56.890625 50.597656 56.609375 C 50.480469 56.328125 50.316406 56.082031 50.097656 55.867188 C 49.882812 55.652344 49.636719 55.488281 49.351562 55.375 C 49.070312 55.261719 48.777344 55.207031 48.476562 55.210938 C 47.257812 55.214844 46.242188 56.210938 46.222656 57.417969 C 46.199219 58.730469 47.152344 59.714844 48.453125 59.722656 C 49.753906 59.734375 50.769531 58.753906 50.769531 57.484375 Z M 40.804688 43.816406 C 40.8125 46.601562 38.632812 48.796875 35.859375 48.804688 C 33.09375 48.808594 30.910156 46.625 30.890625 43.839844 C 30.871094 41.074219 32.980469 38.9375 35.75 38.917969 C 38.511719 38.898438 40.792969 41.109375 40.804688 43.816406 Z M 35.886719 46.070312 C 37.144531 46.054688 38.121094 45.09375 38.132812 43.855469 C 38.148438 42.691406 37 41.582031 35.785156 41.589844 C 34.558594 41.59375 33.5625 42.605469 33.5625 43.835938 C 33.566406 45.121094 34.566406 46.082031 35.886719 46.070312 Z M 48.636719 -0.0703125 C 48.636719 -1.042969 48.625 -2.011719 48.640625 -2.984375 C 48.652344 -3.835938 49.007812 -4.410156 49.941406 -4.429688 C 50.761719 -4.449219 51.246094 -3.957031 51.257812 -3 C 51.285156 -1.058594 51.289062 0.886719 51.257812 2.828125 C 51.242188 3.734375 50.6875 4.28125 49.902344 4.234375 C 49.046875 4.183594 48.652344 3.664062 48.640625 2.84375 C 48.625 1.871094 48.636719 0.902344 48.636719 -0.0703125 Z M 48.636719 -0.0703125 " fill-opacity="1" fill-rule="nonzero"/><path fill="#ff751f" d="M 52.734375 18.101562 L 52.734375 4.464844 L 59.851562 4.464844 L 59.851562 18.101562 L 64.992188 18.101562 L 56.292969 26.601562 L 47.792969 18.101562 Z M 52.734375 18.101562 " fill-opacity="1" fill-rule="nonzero"/></svg>