<svg xmlns="http://www.w3.org/2000/svg" xmlns:xlink="http://www.w3.org/1999/xlink" width="100" zoomAndPan="magnify" viewBox="0 0 75 74.999997" height="100" preserveAspectRatio="xMidYMid meet" version="1.0"><defs><clipPath id="c6501c8401"><path d="M 1 13.5 L 73.628906 13.5 L 73.628906 61.242188 L 1 61.242188 Z M 1 13.5 " clip-rule="nonzero"/></clipPath></defs><rect x="-7.5" width="90" fill="#ffffff" y="-7.5" height="89.999996" fill-opacity="1"/><rect x="-7.5" width="90" fill="#ffffff" y="-7.5" height="89.999996" fill-opacity="1"/><rect x="-7.5" width="90" fill="#ffffff" y="-7.5" height="89.999996" fill-opacity="1"/><path fill="#ff751f" d="M 62.148438 36.96875 C 62.148438 30.210938 56.671875 24.734375 49.910156 24.734375 C 43.152344 24.734375 37.675781 30.210938 37.675781 36.96875 C 37.675781 43.726562 43.152344 49.207031 49.910156 49.207031 C 56.667969 49.207031 62.148438 43.726562 62.148438 36.96875 Z M 62.148438 36.96875 " fill-opacity="1" fill-rule="nonzero"/><g clip-path="url(#c6501c8401)"><path fill="#000000" d="M 48.707031 61.242188 C 44.359375 61.203125 37.464844 58.898438 32.832031 54.269531 C 28.175781 49.613281 25.851562 43.914062 25.847656 37.328125 C 25.84375 31.425781 27.757812 26.179688 31.65625 21.738281 C 36.441406 16.289062 42.496094 13.523438 49.773438 13.5 C 56.34375 13.480469 62 15.839844 66.617188 20.425781 C 71.285156 25.066406 73.640625 30.824219 73.628906 37.414062 C 73.617188 43.972656 71.277344 49.703125 66.613281 54.320312 C 61.964844 58.917969 57.519531 61.265625 48.707031 61.242188 Z M 49.722656 16.636719 C 38.238281 16.746094 29.011719 25.902344 29.027344 37.40625 C 29.042969 48.835938 38.335938 58.105469 49.765625 58.0625 C 61.300781 58.019531 70.480469 48.84375 70.449219 37.371094 C 70.417969 25.648438 61.140625 16.761719 49.722656 16.636719 Z M 9.503906 28.605469 C 13.78125 28.605469 18.054688 28.609375 22.332031 28.601562 C 22.789062 28.601562 23.238281 28.671875 23.585938 28.953125 C 24.074219 29.347656 24.335938 29.867188 24.148438 30.542969 C 23.921875 31.367188 23.464844 31.695312 22.445312 31.773438 C 22.292969 31.785156 22.136719 31.777344 21.984375 31.777344 C 13.613281 31.777344 11.5 31.78125 3.128906 31.777344 C 2.773438 31.777344 2.386719 31.816406 2.074219 31.6875 C 1.757812 31.5625 1.4375 31.300781 1.25 31.011719 C 0.910156 30.5 0.957031 29.921875 1.238281 29.375 C 1.546875 28.769531 2.109375 28.632812 2.726562 28.609375 C 2.871094 28.605469 3.011719 28.605469 3.15625 28.605469 Z M 12.644531 40.539062 L 6.378906 40.539062 C 5.464844 40.539062 4.933594 40.113281 4.738281 39.230469 C 4.597656 38.585938 4.964844 37.734375 5.648438 37.535156 C 5.933594 37.449219 6.234375 37.359375 6.527344 37.359375 C 13.050781 37.347656 15.964844 37.355469 22.488281 37.34375 C 23.507812 37.34375 24.335938 38.160156 24.210938 39.191406 C 24.136719 39.796875 23.445312 40.550781 22.695312 40.546875 C 19.347656 40.527344 15.996094 40.539062 12.644531 40.539062 Z M 17.445312 46.183594 C 19.671875 46.183594 21.894531 46.183594 24.121094 46.1875 C 25.070312 46.1875 25.507812 46.523438 25.789062 47.414062 C 25.980469 48.019531 25.515625 49.03125 24.792969 49.207031 C 24.464844 49.285156 24.125 49.347656 23.792969 49.347656 C 19.484375 49.359375 15.175781 49.355469 10.867188 49.355469 C 9.871094 49.355469 9.28125 48.863281 9.066406 47.933594 C 8.941406 47.390625 9.453125 46.238281 10.34375 46.207031 C 10.984375 46.179688 11.621094 46.1875 12.261719 46.1875 C 13.988281 46.183594 15.71875 46.183594 17.445312 46.183594 Z M 17.445312 46.183594 " fill-opacity="1" fill-rule="nonzero"/></g><path fill="#000000" d="M 51.332031 30.460938 C 51.332031 32.035156 51.339844 33.609375 51.328125 35.183594 C 51.324219 35.492188 51.414062 35.734375 51.613281 35.949219 C 52.441406 36.839844 52.15625 38.574219 51.199219 39.230469 C 50.777344 39.519531 50.371094 39.664062 49.886719 39.738281 C 49.6875 39.769531 49.476562 39.910156 49.324219 40.058594 C 46.21875 43.164062 43.125 46.28125 40.011719 49.382812 C 39.703125 49.691406 39.359375 49.976562 38.882812 50.066406 C 37.855469 50.257812 36.960938 49.472656 36.996094 48.46875 C 37.007812 48.007812 37.222656 47.667969 37.519531 47.367188 C 40.726562 44.152344 43.941406 40.941406 47.144531 37.726562 C 47.242188 37.628906 47.339844 37.472656 47.339844 37.339844 C 47.335938 36.691406 47.640625 36.179688 48.011719 35.679688 C 48.113281 35.546875 48.148438 35.335938 48.148438 35.160156 C 48.15625 31.949219 48.15625 28.742188 48.152344 25.535156 C 48.152344 24.828125 48.433594 24.289062 49.074219 23.980469 C 49.632812 23.710938 50.464844 23.828125 50.917969 24.390625 C 51.246094 24.800781 51.324219 25.257812 51.328125 25.738281 C 51.339844 27.3125 51.332031 28.886719 51.332031 30.460938 Z M 51.332031 30.460938 " fill-opacity="1" fill-rule="nonzero"/></svg>