<svg xmlns="http://www.w3.org/2000/svg" xmlns:xlink="http://www.w3.org/1999/xlink" width="100" zoomAndPan="magnify" viewBox="0 0 75 74.999997" height="100" preserveAspectRatio="xMidYMid meet" version="1.0"><rect x="-7.5" width="90" fill="#ffffff" y="-7.5" height="89.999996" fill-opacity="1"/><rect x="-7.5" width="90" fill="#ffffff" y="-7.5" height="89.999996" fill-opacity="1"/><rect x="-7.5" width="90" fill="#ffffff" y="-7.5" height="89.999996" fill-opacity="1"/><path fill="#ff751f" d="M 50.125 24.707031 C 50.125 19.140625 45.613281 14.628906 40.042969 14.628906 C 34.476562 14.628906 29.964844 19.140625 29.964844 24.707031 C 29.964844 30.277344 34.476562 34.789062 40.042969 34.789062 C 45.609375 34.789062 50.125 30.273438 50.125 24.707031 Z M 50.125 24.707031 " fill-opacity="1" fill-rule="nonzero"/><path fill="#000000" d="M 53.992188 52.105469 C 56.0625 51.246094 58.007812 50.402344 59.988281 49.632812 C 62.824219 48.527344 65.632812 47.28125 68.804688 47.542969 C 71.804688 47.792969 74.148438 50.382812 73.910156 53.324219 C 73.757812 55.222656 72.570312 56.535156 71.050781 57.464844 C 68.84375 58.828125 66.585938 60.097656 64.277344 61.277344 C 59.011719 63.953125 53.683594 66.507812 48.410156 69.167969 C 44.933594 70.921875 41.292969 71.441406 37.429688 71.191406 C 32.519531 70.875 27.734375 69.957031 22.980469 68.773438 C 21.773438 68.476562 20.523438 68.34375 19.292969 68.144531 C 17.453125 67.847656 15.984375 68.65625 14.578125 69.699219 C 12.320312 71.375 11.828125 71.390625 9.582031 69.699219 C 6.054688 67.039062 4.097656 63.328125 2.746094 59.238281 C 1.953125 56.867188 1.675781 54.433594 1.914062 51.945312 C 2.050781 50.523438 2.375 50.324219 3.71875 49.863281 C 7.527344 48.550781 11.308594 47.15625 15.097656 45.785156 C 19.617188 44.148438 24.253906 43.195312 29.078125 43.640625 C 30.464844 43.769531 31.898438 44.070312 33.167969 44.617188 C 36.761719 46.171875 40.390625 46.25 44.171875 45.527344 C 45.824219 45.214844 47.484375 45.167969 49.152344 45.382812 C 52.050781 45.765625 53.933594 48.144531 53.992188 51.085938 C 54 51.375 53.992188 51.664062 53.992188 52.105469 Z M 37.863281 68.492188 C 42.699219 68.492188 43.875 68.277344 46.976562 66.746094 C 53.390625 63.585938 59.789062 60.386719 66.164062 57.152344 C 67.53125 56.460938 68.863281 55.636719 70.058594 54.683594 C 71.679688 53.398438 71.53125 51.886719 69.789062 50.761719 C 69.398438 50.507812 68.851562 50.292969 68.410156 50.347656 C 66.925781 50.535156 65.371094 50.628906 63.996094 51.15625 C 59.410156 52.925781 54.902344 54.890625 50.34375 56.730469 C 48.160156 57.613281 45.976562 58.574219 43.707031 59.164062 C 40.921875 59.890625 38.089844 59.273438 35.3125 58.757812 C 34.550781 58.617188 34.265625 57.960938 34.351562 57.246094 C 34.433594 56.570312 34.859375 56.054688 35.585938 56.070312 C 36.367188 56.09375 37.15625 56.203125 37.921875 56.371094 C 42.191406 57.285156 45.96875 55.984375 49.515625 53.78125 C 50.992188 52.867188 51.414062 51.578125 50.996094 50.15625 C 50.585938 48.769531 49.476562 47.933594 47.746094 47.976562 C 46.246094 48.015625 44.726562 48.164062 43.257812 48.464844 C 40.019531 49.121094 36.890625 48.945312 33.792969 47.757812 C 32.359375 47.207031 30.878906 46.660156 29.371094 46.449219 C 25.054688 45.851562 20.867188 46.707031 16.800781 48.09375 C 13.046875 49.371094 9.367188 50.847656 5.632812 52.183594 C 4.941406 52.429688 4.664062 52.707031 4.664062 53.480469 C 4.65625 56.832031 5.691406 59.875 7.273438 62.761719 C 8.292969 64.621094 9.585938 66.265625 11.328125 67.519531 C 11.855469 67.902344 12.246094 67.945312 12.878906 67.542969 C 14.136719 66.742188 15.457031 65.871094 16.871094 65.53125 C 19.34375 64.933594 21.835938 65.5625 24.25 66.214844 C 29.152344 67.539062 34.117188 68.394531 37.863281 68.492188 Z M 37.863281 68.492188 " fill-opacity="1" fill-rule="nonzero"/><path fill="#000000" d="M 11.730469 38.078125 C 12.753906 36.636719 13.773438 35.195312 14.804688 33.761719 C 14.992188 33.496094 15.1875 33.101562 15.441406 33.046875 C 15.972656 32.933594 16.664062 32.816406 17.066406 33.066406 C 17.402344 33.277344 17.582031 34.019531 17.527344 34.492188 C 17.472656 34.964844 17.0625 35.410156 16.761719 35.835938 C 15.21875 38.003906 13.664062 40.160156 12.09375 42.308594 C 11.265625 43.433594 10.640625 43.519531 9.527344 42.734375 C 7.144531 41.046875 4.757812 39.355469 2.375 37.664062 C 1.5 37.039062 1.265625 36.242188 1.742188 35.566406 C 2.261719 34.828125 3.074219 34.738281 3.988281 35.371094 C 5.253906 36.25 6.496094 37.167969 7.757812 38.058594 C 8.011719 38.238281 8.292969 38.386719 8.757812 38.667969 C 8.660156 38.046875 8.605469 37.636719 8.535156 37.230469 C 7.25 29.679688 8.550781 22.585938 12.335938 15.945312 C 15.808594 9.855469 20.816406 5.421875 27.222656 2.675781 C 34.734375 -0.546875 42.421875 -0.882812 50.195312 1.800781 C 58.039062 4.503906 63.984375 9.53125 67.867188 16.804688 C 72.414062 25.324219 72.917969 34.222656 69.558594 43.304688 C 69.203125 44.265625 68.433594 44.679688 67.652344 44.367188 C 66.839844 44.042969 66.570312 43.234375 66.972656 42.199219 C 68.265625 38.851562 68.972656 35.375 68.890625 31.792969 C 68.683594 22.875 65.296875 15.429688 58.46875 9.589844 C 49.742188 2.121094 36.652344 0.65625 26.519531 6.082031 C 17.628906 10.84375 12.550781 18.308594 11.0625 28.210938 C 10.574219 31.46875 10.753906 34.753906 11.734375 38.078125 Z M 11.730469 38.078125 " fill-opacity="1" fill-rule="nonzero"/><path fill="#000000" d="M 39.871094 41.695312 C 30.632812 41.671875 23.25 34.1875 23.273438 24.867188 C 23.292969 15.808594 30.90625 8.289062 40.003906 8.335938 C 49.1875 8.386719 56.636719 15.910156 56.59375 25.089844 C 56.550781 34.300781 49.078125 41.71875 39.871094 41.695312 Z M 53.820312 25.078125 C 53.894531 17.527344 47.636719 11.191406 40.035156 11.121094 C 32.386719 11.050781 26.164062 17.230469 26.078125 24.976562 C 25.996094 32.546875 32.136719 38.808594 39.742188 38.914062 C 47.449219 39.015625 53.742188 32.828125 53.820312 25.078125 Z M 53.820312 25.078125 " fill-opacity="1" fill-rule="nonzero"/><path fill="#000000" d="M 41.855469 32.308594 C 41.777344 32.308594 41.699219 32.292969 41.621094 32.265625 C 41.539062 32.242188 41.476562 32.214844 41.421875 32.1875 L 41.1875 32.070312 L 35.871094 27.855469 C 35.804688 27.820312 35.738281 27.78125 35.671875 27.738281 C 35.617188 27.648438 35.5625 27.558594 35.515625 27.464844 C 35.460938 27.378906 35.421875 27.285156 35.398438 27.1875 C 35.371094 27.085938 35.359375 26.980469 35.359375 26.871094 C 35.359375 26.664062 35.386719 26.480469 35.4375 26.320312 C 35.523438 26.152344 35.644531 26.007812 35.792969 25.886719 C 35.90625 25.769531 36.035156 25.675781 36.1875 25.613281 C 36.34375 25.558594 36.515625 25.535156 36.699219 25.535156 L 39.375 25.535156 C 40.136719 25.535156 40.660156 25.363281 40.949219 25.023438 C 41.265625 24.679688 41.449219 24.429688 41.503906 24.273438 L 36.105469 24.273438 C 35.949219 24.273438 35.804688 24.246094 35.671875 24.195312 C 35.542969 24.140625 35.425781 24.0625 35.320312 23.957031 C 35.214844 23.855469 35.136719 23.734375 35.082031 23.605469 C 35.03125 23.472656 35.003906 23.328125 35.003906 23.171875 C 35.003906 23.039062 35.03125 22.910156 35.082031 22.777344 C 35.136719 22.644531 35.214844 22.527344 35.320312 22.421875 C 35.425781 22.316406 35.542969 22.238281 35.671875 22.1875 C 35.804688 22.109375 35.949219 22.066406 36.105469 22.066406 L 41.382812 22.109375 C 41.332031 22.027344 41.171875 21.832031 40.910156 21.515625 C 40.675781 21.175781 40.164062 21.003906 39.375 21.003906 L 36.105469 20.925781 L 35.753906 20.886719 C 35.535156 20.832031 35.367188 20.714844 35.242188 20.53125 C 35.109375 20.355469 35.03125 20.160156 35.003906 19.941406 L 35.003906 19.625 C 35.03125 19.523438 35.070312 19.429688 35.121094 19.351562 C 35.175781 19.246094 35.242188 19.152344 35.320312 19.074219 C 35.425781 18.945312 35.542969 18.851562 35.671875 18.800781 C 35.804688 18.746094 35.949219 18.722656 36.105469 18.722656 L 43.863281 18.722656 C 44.023438 18.722656 44.167969 18.746094 44.296875 18.800781 C 44.429688 18.851562 44.546875 18.929688 44.652344 19.035156 C 44.757812 19.140625 44.835938 19.257812 44.886719 19.390625 C 44.941406 19.523438 44.96875 19.667969 44.96875 19.824219 C 44.96875 19.957031 44.941406 20.097656 44.886719 20.257812 C 44.835938 20.386719 44.757812 20.507812 44.652344 20.613281 C 44.546875 20.714844 44.429688 20.796875 44.296875 20.847656 C 44.167969 20.898438 44.023438 20.925781 43.863281 20.925781 L 43.234375 20.925781 C 43.3125 21.085938 43.417969 21.28125 43.550781 21.515625 C 43.707031 21.726562 43.8125 21.910156 43.863281 22.066406 L 44.0625 22.066406 C 44.21875 22.066406 44.324219 22.109375 44.375 22.1875 C 44.457031 22.238281 44.546875 22.316406 44.652344 22.421875 C 44.859375 22.628906 44.964844 22.878906 44.96875 23.171875 C 44.96875 23.328125 44.941406 23.472656 44.886719 23.605469 C 44.835938 23.734375 44.757812 23.855469 44.652344 23.957031 C 44.546875 24.0625 44.429688 24.140625 44.296875 24.195312 C 44.167969 24.246094 44.023438 24.273438 43.863281 24.273438 L 43.785156 24.273438 C 43.707031 24.773438 43.550781 25.191406 43.3125 25.535156 C 43.101562 25.847656 42.816406 26.164062 42.445312 26.480469 C 42.027344 26.898438 41.554688 27.214844 41.03125 27.421875 C 40.53125 27.632812 39.980469 27.738281 39.375 27.738281 L 39.257812 27.738281 L 42.527344 30.296875 C 42.605469 30.378906 42.65625 30.441406 42.683594 30.496094 C 42.734375 30.546875 42.773438 30.601562 42.800781 30.652344 C 42.851562 30.730469 42.894531 30.824219 42.917969 30.929688 C 42.945312 31.007812 42.957031 31.097656 42.957031 31.203125 C 42.957031 31.335938 42.933594 31.480469 42.878906 31.636719 C 42.828125 31.769531 42.75 31.886719 42.644531 31.992188 C 42.539062 32.097656 42.421875 32.175781 42.289062 32.226562 C 42.160156 32.28125 42.011719 32.308594 41.855469 32.308594 Z M 41.855469 32.308594 " fill-opacity="1" fill-rule="nonzero"/></svg>