<svg xmlns="http://www.w3.org/2000/svg" xmlns:xlink="http://www.w3.org/1999/xlink" width="100" zoomAndPan="magnify" viewBox="0 0 75 74.999997" height="100" preserveAspectRatio="xMidYMid meet" version="1.0"><rect x="-7.5" width="90" fill="#ffffff" y="-7.5" height="89.999996" fill-opacity="1"/><rect x="-7.5" width="90" fill="#ffffff" y="-7.5" height="89.999996" fill-opacity="1"/><rect x="-7.5" width="90" fill="#ffffff" y="-7.5" height="89.999996" fill-opacity="1"/><path fill="#ffffff" d="M 27.644531 20.292969 C 27.902344 20.292969 28.152344 20.246094 28.394531 20.152344 C 28.636719 20.054688 28.851562 19.914062 29.039062 19.734375 C 29.222656 19.550781 29.367188 19.339844 29.472656 19.101562 C 29.574219 18.859375 29.628906 18.613281 29.628906 18.351562 L 29.742188 9.597656 C 29.746094 9.160156 29.792969 8.730469 29.882812 8.304688 C 29.972656 7.878906 30.105469 7.464844 30.273438 7.066406 C 30.445312 6.664062 30.652344 6.285156 30.894531 5.925781 C 31.140625 5.566406 31.417969 5.234375 31.726562 4.925781 C 32.039062 4.621094 32.375 4.347656 32.734375 4.109375 C 33.097656 3.867188 33.480469 3.664062 33.882812 3.5 C 34.285156 3.335938 34.703125 3.210938 35.128906 3.125 C 35.554688 3.042969 35.988281 3 36.421875 3 L 57.972656 3 C 58.410156 3 58.84375 3.042969 59.277344 3.128906 C 59.707031 3.214844 60.125 3.339844 60.527344 3.507812 C 60.933594 3.675781 61.320312 3.882812 61.683594 4.125 C 62.046875 4.371094 62.386719 4.648438 62.695312 4.957031 C 63.007812 5.265625 63.285156 5.605469 63.527344 5.96875 C 63.769531 6.335938 63.976562 6.71875 64.144531 7.125 C 64.3125 7.53125 64.4375 7.949219 64.523438 8.378906 C 64.609375 8.808594 64.652344 9.242188 64.652344 9.679688 L 64.652344 64.699219 C 64.652344 65.136719 64.609375 65.574219 64.523438 66.003906 C 64.4375 66.433594 64.3125 66.851562 64.144531 67.257812 C 63.976562 67.660156 63.769531 68.046875 63.527344 68.410156 C 63.285156 68.777344 63.007812 69.113281 62.695312 69.421875 C 62.386719 69.734375 62.046875 70.011719 61.683594 70.253906 C 61.320312 70.5 60.933594 70.703125 60.527344 70.871094 C 60.125 71.039062 59.707031 71.167969 59.277344 71.253906 C 58.84375 71.335938 58.410156 71.378906 57.972656 71.378906 L 17.886719 71.378906 C 17.449219 71.378906 17.015625 71.335938 16.585938 71.253906 C 16.152344 71.167969 15.734375 71.039062 15.332031 70.871094 C 14.925781 70.703125 14.539062 70.5 14.175781 70.253906 C 13.8125 70.011719 13.472656 69.734375 13.164062 69.421875 C 12.851562 69.113281 12.574219 68.777344 12.332031 68.410156 C 12.089844 68.046875 11.882812 67.660156 11.714844 67.257812 C 11.546875 66.851562 11.421875 66.433594 11.335938 66.003906 C 11.25 65.574219 11.207031 65.136719 11.207031 64.699219 L 11.207031 26.855469 C 11.207031 26.414062 11.25 25.976562 11.335938 25.542969 C 11.421875 25.109375 11.550781 24.6875 11.722656 24.28125 C 11.894531 23.875 12.101562 23.484375 12.347656 23.121094 C 12.597656 22.753906 12.878906 22.414062 13.191406 22.105469 C 13.507812 21.792969 13.847656 21.515625 14.21875 21.273438 C 14.585938 21.03125 14.976562 20.828125 15.386719 20.660156 C 15.796875 20.496094 16.21875 20.371094 16.652344 20.289062 C 17.085938 20.207031 17.523438 20.171875 17.96875 20.175781 Z M 27.644531 20.292969 " fill-opacity="1" fill-rule="nonzero"/><path fill="#000000" d="M 57.972656 6.144531 L 36.421875 6.144531 C 35.957031 6.144531 35.507812 6.230469 35.078125 6.410156 C 34.648438 6.585938 34.269531 6.835938 33.9375 7.164062 C 33.605469 7.492188 33.347656 7.867188 33.167969 8.296875 C 32.984375 8.722656 32.890625 9.171875 32.886719 9.636719 L 32.773438 18.390625 C 32.769531 18.726562 32.734375 19.058594 32.664062 19.386719 C 32.59375 19.714844 32.492188 20.03125 32.359375 20.339844 C 32.230469 20.648438 32.066406 20.941406 31.878906 21.214844 C 31.6875 21.492188 31.472656 21.75 31.234375 21.984375 C 30.992188 22.214844 30.734375 22.425781 30.453125 22.609375 C 30.171875 22.789062 29.875 22.945312 29.5625 23.070312 C 29.253906 23.195312 28.933594 23.285156 28.601562 23.347656 C 28.273438 23.410156 27.941406 23.4375 27.605469 23.433594 L 17.929688 23.320312 C 17.457031 23.3125 17 23.398438 16.5625 23.578125 C 16.125 23.753906 15.738281 24.007812 15.402344 24.339844 C 15.066406 24.671875 14.804688 25.058594 14.625 25.492188 C 14.441406 25.929688 14.351562 26.382812 14.351562 26.855469 L 14.351562 64.699219 C 14.351562 65.167969 14.441406 65.621094 14.617188 66.054688 C 14.796875 66.488281 15.054688 66.867188 15.386719 67.199219 C 15.71875 67.53125 16.101562 67.789062 16.53125 67.96875 C 16.964844 68.148438 17.417969 68.238281 17.886719 68.238281 L 57.972656 68.238281 C 58.441406 68.238281 58.890625 68.148438 59.324219 67.96875 C 59.757812 67.789062 60.140625 67.53125 60.472656 67.199219 C 60.804688 66.867188 61.058594 66.488281 61.238281 66.054688 C 61.417969 65.621094 61.507812 65.167969 61.507812 64.699219 L 61.507812 9.679688 C 61.507812 9.210938 61.417969 8.761719 61.238281 8.328125 C 61.058594 7.894531 60.804688 7.511719 60.472656 7.179688 C 60.140625 6.847656 59.757812 6.59375 59.324219 6.414062 C 58.890625 6.234375 58.441406 6.144531 57.972656 6.144531 Z M 29.628906 18.351562 C 29.628906 18.613281 29.574219 18.859375 29.472656 19.101562 C 29.367188 19.339844 29.222656 19.550781 29.039062 19.734375 C 28.851562 19.914062 28.636719 20.054688 28.394531 20.152344 C 28.152344 20.246094 27.902344 20.292969 27.644531 20.292969 L 17.964844 20.175781 C 17.523438 20.167969 17.085938 20.207031 16.652344 20.289062 C 16.21875 20.371094 15.796875 20.496094 15.386719 20.660156 C 14.976562 20.824219 14.585938 21.03125 14.214844 21.273438 C 13.847656 21.515625 13.503906 21.792969 13.191406 22.101562 C 12.875 22.414062 12.59375 22.753906 12.347656 23.117188 C 12.101562 23.484375 11.890625 23.871094 11.722656 24.28125 C 11.550781 24.6875 11.421875 25.109375 11.335938 25.542969 C 11.25 25.976562 11.207031 26.414062 11.207031 26.855469 L 11.207031 64.699219 C 11.207031 65.136719 11.25 65.570312 11.335938 66.003906 C 11.417969 66.433594 11.546875 66.851562 11.714844 67.253906 C 11.882812 67.660156 12.089844 68.046875 12.332031 68.410156 C 12.574219 68.773438 12.851562 69.113281 13.164062 69.421875 C 13.472656 69.734375 13.808594 70.011719 14.175781 70.253906 C 14.539062 70.496094 14.925781 70.703125 15.328125 70.871094 C 15.734375 71.039062 16.152344 71.164062 16.582031 71.25 C 17.011719 71.335938 17.449219 71.378906 17.886719 71.378906 L 57.972656 71.378906 C 58.410156 71.378906 58.84375 71.335938 59.277344 71.25 C 59.707031 71.164062 60.125 71.039062 60.527344 70.871094 C 60.933594 70.703125 61.320312 70.496094 61.683594 70.253906 C 62.046875 70.011719 62.386719 69.734375 62.695312 69.421875 C 63.007812 69.113281 63.285156 68.773438 63.527344 68.410156 C 63.769531 68.046875 63.976562 67.660156 64.144531 67.253906 C 64.3125 66.851562 64.4375 66.433594 64.523438 66.003906 C 64.609375 65.570312 64.652344 65.136719 64.652344 64.699219 L 64.652344 9.679688 C 64.652344 9.242188 64.609375 8.808594 64.523438 8.378906 C 64.4375 7.949219 64.3125 7.53125 64.144531 7.125 C 63.976562 6.71875 63.769531 6.332031 63.527344 5.96875 C 63.285156 5.605469 63.007812 5.265625 62.695312 4.957031 C 62.386719 4.648438 62.046875 4.371094 61.683594 4.125 C 61.320312 3.882812 60.933594 3.675781 60.527344 3.507812 C 60.125 3.339844 59.707031 3.214844 59.277344 3.128906 C 58.84375 3.042969 58.410156 3 57.972656 3 L 36.421875 3 C 35.988281 3 35.554688 3.042969 35.128906 3.125 C 34.703125 3.210938 34.285156 3.335938 33.882812 3.5 C 33.480469 3.664062 33.097656 3.867188 32.734375 4.109375 C 32.375 4.347656 32.039062 4.621094 31.726562 4.925781 C 31.417969 5.234375 31.140625 5.566406 30.894531 5.925781 C 30.652344 6.285156 30.445312 6.664062 30.273438 7.066406 C 30.105469 7.464844 29.972656 7.878906 29.882812 8.304688 C 29.792969 8.730469 29.746094 9.160156 29.742188 9.597656 Z M 29.628906 18.351562 " fill-opacity="1" fill-rule="evenodd"/><path fill="#000000" d="M 35.402344 4.03125 C 35.917969 4.589844 35.882812 5.460938 35.324219 5.976562 L 15.28125 24.445312 C 15.148438 24.566406 14.996094 24.65625 14.824219 24.714844 C 14.65625 24.773438 14.480469 24.800781 14.300781 24.789062 C 14.121094 24.78125 13.949219 24.738281 13.785156 24.664062 C 13.625 24.585938 13.480469 24.480469 13.359375 24.347656 C 13.238281 24.21875 13.144531 24.066406 13.082031 23.898438 C 13.019531 23.730469 12.988281 23.554688 12.996094 23.375 C 13 23.195312 13.039062 23.023438 13.113281 22.859375 C 13.1875 22.695312 13.289062 22.550781 13.417969 22.425781 L 33.460938 3.953125 C 33.59375 3.828125 33.746094 3.738281 33.917969 3.671875 C 34.089844 3.609375 34.265625 3.582031 34.449219 3.589844 C 34.628906 3.597656 34.804688 3.640625 34.96875 3.714844 C 35.136719 3.792969 35.28125 3.898438 35.402344 4.03125 Z M 24.960938 29.527344 C 24.960938 28.769531 25.578125 28.152344 26.335938 28.152344 L 49.523438 28.152344 C 49.703125 28.152344 49.878906 28.1875 50.050781 28.257812 C 50.21875 28.328125 50.367188 28.425781 50.496094 28.554688 C 50.625 28.683594 50.722656 28.832031 50.792969 29 C 50.863281 29.167969 50.898438 29.34375 50.898438 29.527344 C 50.898438 29.710938 50.863281 29.886719 50.792969 30.054688 C 50.722656 30.222656 50.625 30.371094 50.496094 30.5 C 50.367188 30.628906 50.21875 30.726562 50.050781 30.796875 C 49.878906 30.867188 49.703125 30.902344 49.523438 30.902344 L 26.335938 30.902344 C 26.152344 30.902344 25.976562 30.867188 25.808594 30.796875 C 25.640625 30.726562 25.492188 30.628906 25.363281 30.5 C 25.234375 30.371094 25.136719 30.222656 25.066406 30.054688 C 24.996094 29.886719 24.960938 29.710938 24.960938 29.527344 Z M 24.960938 38.171875 C 24.960938 37.414062 25.578125 36.796875 26.335938 36.796875 L 49.523438 36.796875 C 49.703125 36.796875 49.878906 36.832031 50.050781 36.902344 C 50.21875 36.972656 50.367188 37.070312 50.496094 37.199219 C 50.625 37.328125 50.722656 37.476562 50.792969 37.644531 C 50.863281 37.816406 50.898438 37.992188 50.898438 38.171875 C 50.898438 38.355469 50.863281 38.53125 50.792969 38.699219 C 50.722656 38.867188 50.625 39.015625 50.496094 39.144531 C 50.367188 39.273438 50.21875 39.375 50.050781 39.445312 C 49.878906 39.511719 49.703125 39.546875 49.523438 39.546875 L 26.335938 39.546875 C 26.152344 39.546875 25.976562 39.511719 25.808594 39.445312 C 25.640625 39.375 25.492188 39.273438 25.363281 39.144531 C 25.234375 39.015625 25.136719 38.867188 25.066406 38.699219 C 24.996094 38.53125 24.960938 38.355469 24.960938 38.171875 Z M 24.960938 46.425781 C 24.960938 45.664062 25.578125 45.050781 26.335938 45.050781 L 49.523438 45.050781 C 49.703125 45.050781 49.878906 45.085938 50.050781 45.15625 C 50.21875 45.226562 50.367188 45.324219 50.496094 45.453125 C 50.625 45.582031 50.722656 45.730469 50.792969 45.898438 C 50.863281 46.066406 50.898438 46.242188 50.898438 46.425781 C 50.898438 46.609375 50.863281 46.785156 50.792969 46.953125 C 50.722656 47.121094 50.625 47.269531 50.496094 47.398438 C 50.367188 47.527344 50.21875 47.625 50.050781 47.695312 C 49.878906 47.765625 49.703125 47.800781 49.523438 47.800781 L 26.335938 47.800781 C 26.152344 47.800781 25.976562 47.765625 25.808594 47.695312 C 25.640625 47.625 25.492188 47.527344 25.363281 47.398438 C 25.234375 47.269531 25.132812 47.121094 25.066406 46.953125 C 24.996094 46.78125 24.960938 46.609375 24.960938 46.425781 Z M 24.960938 54.679688 C 24.960938 53.917969 25.578125 53.304688 26.335938 53.304688 L 49.523438 53.304688 C 49.703125 53.304688 49.878906 53.339844 50.050781 53.40625 C 50.21875 53.476562 50.367188 53.578125 50.496094 53.707031 C 50.625 53.835938 50.722656 53.984375 50.792969 54.152344 C 50.863281 54.320312 50.898438 54.496094 50.898438 54.679688 C 50.898438 54.859375 50.863281 55.035156 50.792969 55.207031 C 50.722656 55.375 50.625 55.523438 50.496094 55.652344 C 50.367188 55.78125 50.21875 55.878906 50.050781 55.949219 C 49.878906 56.019531 49.703125 56.054688 49.523438 56.054688 L 26.335938 56.054688 C 26.152344 56.054688 25.976562 56.019531 25.808594 55.949219 C 25.640625 55.878906 25.492188 55.78125 25.363281 55.652344 C 25.234375 55.523438 25.136719 55.375 25.066406 55.207031 C 24.996094 55.035156 24.960938 54.859375 24.960938 54.679688 Z M 24.960938 54.679688 " fill-opacity="1" fill-rule="evenodd"/><path fill="#ff751f" d="M 3 67.273438 L 70.421875 11.675781 L 72.671875 14.40625 L 5.25 70 Z M 3 67.273438 " fill-opacity="1" fill-rule="evenodd"/><path fill="#ff751f" d="M 32.820312 11.644531 L 53.257812 11.644531 L 53.257812 19.113281 L 32.820312 19.113281 Z M 32.820312 11.644531 " fill-opacity="1" fill-rule="nonzero"/></svg>