<svg xmlns="http://www.w3.org/2000/svg" xmlns:xlink="http://www.w3.org/1999/xlink" width="100" zoomAndPan="magnify" viewBox="0 0 75 74.999997" height="100" preserveAspectRatio="xMidYMid meet" version="1.0"><rect x="-7.5" width="90" fill="#ffffff" y="-7.5" height="89.999996" fill-opacity="1"/><rect x="-7.5" width="90" fill="#ffffff" y="-7.5" height="89.999996" fill-opacity="1"/><rect x="-7.5" width="90" fill="#ffffff" y="-7.5" height="89.999996" fill-opacity="1"/><path fill="#000000" d="M 38.015625 5.394531 C 38.351562 5.394531 38.679688 5.425781 39.007812 5.492188 C 39.332031 5.554688 39.648438 5.652344 39.957031 5.777344 C 40.265625 5.902344 40.558594 6.058594 40.835938 6.242188 C 41.113281 6.425781 41.371094 6.632812 41.605469 6.867188 C 41.84375 7.101562 42.054688 7.355469 42.242188 7.632812 C 42.429688 7.90625 42.585938 8.195312 42.71875 8.503906 C 42.847656 8.808594 42.949219 9.125 43.015625 9.449219 C 43.085938 9.777344 43.121094 10.105469 43.125 10.4375 L 43.207031 16.828125 C 43.210938 17.160156 43.246094 17.492188 43.316406 17.820312 C 43.386719 18.148438 43.488281 18.46875 43.621094 18.777344 C 43.75 19.082031 43.914062 19.375 44.101562 19.652344 C 44.292969 19.929688 44.507812 20.183594 44.746094 20.417969 C 44.988281 20.652344 45.246094 20.859375 45.527344 21.042969 C 45.808594 21.226562 46.105469 21.378906 46.417969 21.503906 C 46.726562 21.628906 47.046875 21.722656 47.378906 21.785156 C 47.707031 21.84375 48.039062 21.875 48.375 21.871094 L 55.667969 21.785156 C 56.007812 21.78125 56.34375 21.808594 56.675781 21.871094 C 57.007812 21.933594 57.328125 22.027344 57.644531 22.15625 C 57.957031 22.28125 58.253906 22.4375 58.535156 22.625 C 58.820312 22.808594 59.082031 23.019531 59.320312 23.257812 C 59.5625 23.496094 59.777344 23.753906 59.964844 24.035156 C 60.152344 24.316406 60.3125 24.609375 60.445312 24.921875 C 60.574219 25.234375 60.671875 25.554688 60.738281 25.886719 C 60.804688 26.21875 60.839844 26.554688 60.839844 26.890625 L 60.839844 59.824219 C 60.839844 60.03125 60.878906 60.234375 60.957031 60.425781 C 61.039062 60.617188 61.152344 60.789062 61.300781 60.933594 C 61.445312 61.082031 61.617188 61.195312 61.808594 61.277344 C 62.003906 61.355469 62.203125 61.394531 62.410156 61.394531 C 62.621094 61.394531 62.820312 61.355469 63.011719 61.277344 C 63.207031 61.195312 63.375 61.082031 63.523438 60.933594 C 63.671875 60.789062 63.785156 60.617188 63.863281 60.425781 C 63.941406 60.234375 63.984375 60.03125 63.984375 59.824219 L 63.984375 26.890625 C 63.984375 22.296875 60.226562 18.585938 55.632812 18.640625 L 48.339844 18.726562 C 48.078125 18.730469 47.828125 18.683594 47.585938 18.585938 C 47.34375 18.488281 47.128906 18.347656 46.941406 18.167969 C 46.757812 17.984375 46.613281 17.773438 46.507812 17.535156 C 46.40625 17.296875 46.351562 17.046875 46.351562 16.785156 L 46.269531 10.398438 C 46.210938 5.882812 42.535156 2.25 38.015625 2.25 L 18.003906 2.25 C 13.445312 2.25 9.75 5.945312 9.75 10.503906 L 9.75 62.378906 C 9.75 66.933594 13.445312 70.628906 18.003906 70.628906 L 55.925781 70.628906 C 56.136719 70.628906 56.335938 70.589844 56.527344 70.511719 C 56.722656 70.429688 56.890625 70.316406 57.039062 70.171875 C 57.1875 70.023438 57.300781 69.851562 57.378906 69.660156 C 57.457031 69.46875 57.5 69.265625 57.5 69.058594 C 57.5 68.851562 57.457031 68.648438 57.378906 68.457031 C 57.300781 68.265625 57.1875 68.09375 57.039062 67.945312 C 56.890625 67.800781 56.722656 67.6875 56.527344 67.605469 C 56.335938 67.527344 56.136719 67.488281 55.925781 67.488281 L 18.003906 67.488281 C 17.667969 67.488281 17.335938 67.453125 17.007812 67.386719 C 16.675781 67.324219 16.359375 67.226562 16.046875 67.097656 C 15.738281 66.96875 15.445312 66.8125 15.164062 66.625 C 14.886719 66.4375 14.628906 66.226562 14.390625 65.988281 C 14.152344 65.753906 13.941406 65.496094 13.753906 65.214844 C 13.570312 64.9375 13.410156 64.640625 13.28125 64.332031 C 13.15625 64.023438 13.058594 63.703125 12.992188 63.375 C 12.925781 63.046875 12.894531 62.714844 12.894531 62.378906 L 12.894531 10.503906 C 12.894531 10.167969 12.925781 9.835938 12.992188 9.507812 C 13.058594 9.175781 13.15625 8.859375 13.28125 8.546875 C 13.410156 8.238281 13.570312 7.945312 13.753906 7.664062 C 13.941406 7.386719 14.152344 7.128906 14.390625 6.890625 C 14.628906 6.652344 14.886719 6.441406 15.164062 6.253906 C 15.445312 6.070312 15.738281 5.910156 16.046875 5.78125 C 16.359375 5.65625 16.675781 5.558594 17.007812 5.492188 C 17.335938 5.425781 17.667969 5.394531 18.003906 5.394531 Z M 38.015625 5.394531 " fill-opacity="1" fill-rule="evenodd"/><path fill="#000000" d="M 39.785156 3.28125 C 39.660156 3.417969 39.566406 3.570312 39.503906 3.742188 C 39.441406 3.910156 39.414062 4.089844 39.421875 4.269531 C 39.429688 4.453125 39.472656 4.628906 39.546875 4.792969 C 39.625 4.957031 39.730469 5.101562 39.863281 5.226562 L 59.90625 23.695312 C 60.042969 23.8125 60.195312 23.898438 60.363281 23.957031 C 60.53125 24.015625 60.707031 24.039062 60.882812 24.027344 C 61.0625 24.015625 61.230469 23.972656 61.394531 23.898438 C 61.554688 23.820312 61.695312 23.71875 61.816406 23.585938 C 61.9375 23.457031 62.027344 23.304688 62.089844 23.140625 C 62.152344 22.972656 62.183594 22.800781 62.179688 22.621094 C 62.175781 22.441406 62.136719 22.273438 62.066406 22.109375 C 61.996094 21.945312 61.898438 21.800781 61.769531 21.675781 L 41.726562 3.203125 C 41.59375 3.078125 41.441406 2.988281 41.269531 2.921875 C 41.097656 2.859375 40.921875 2.832031 40.742188 2.839844 C 40.558594 2.847656 40.382812 2.890625 40.21875 2.964844 C 40.054688 3.042969 39.910156 3.148438 39.785156 3.28125 Z M 20.753906 37.421875 C 20.753906 36.664062 21.371094 36.046875 22.128906 36.046875 L 45.316406 36.046875 C 45.496094 36.046875 45.671875 36.082031 45.839844 36.152344 C 46.011719 36.222656 46.160156 36.320312 46.289062 36.449219 C 46.417969 36.578125 46.515625 36.726562 46.585938 36.894531 C 46.65625 37.066406 46.691406 37.242188 46.691406 37.421875 C 46.691406 37.605469 46.65625 37.78125 46.585938 37.949219 C 46.515625 38.117188 46.417969 38.265625 46.289062 38.394531 C 46.160156 38.523438 46.011719 38.625 45.839844 38.695312 C 45.671875 38.761719 45.496094 38.796875 45.316406 38.796875 L 22.128906 38.796875 C 21.945312 38.796875 21.773438 38.761719 21.601562 38.695312 C 21.433594 38.625 21.285156 38.523438 21.15625 38.394531 C 21.027344 38.265625 20.929688 38.117188 20.859375 37.949219 C 20.789062 37.78125 20.753906 37.605469 20.753906 37.421875 Z M 66.972656 70.929688 C 66.46875 71.496094 65.601562 71.550781 65.03125 71.046875 L 54.425781 61.660156 C 54.289062 61.542969 54.179688 61.398438 54.101562 61.234375 C 54.019531 61.070312 53.976562 60.898438 53.964844 60.714844 C 53.953125 60.535156 53.976562 60.355469 54.035156 60.183594 C 54.097656 60.011719 54.1875 59.855469 54.308594 59.71875 C 54.429688 59.582031 54.570312 59.476562 54.734375 59.394531 C 54.898438 59.316406 55.070312 59.269531 55.253906 59.257812 C 55.4375 59.246094 55.613281 59.273438 55.785156 59.332031 C 55.957031 59.390625 56.113281 59.480469 56.25 59.601562 L 66.855469 68.988281 C 67.425781 69.488281 67.476562 70.359375 66.976562 70.929688 Z M 20.753906 45.675781 C 20.753906 44.914062 21.371094 44.300781 22.128906 44.300781 L 39.421875 44.300781 C 39.601562 44.300781 39.777344 44.335938 39.945312 44.402344 C 40.117188 44.472656 40.265625 44.574219 40.394531 44.703125 C 40.523438 44.832031 40.625 44.980469 40.691406 45.148438 C 40.761719 45.316406 40.796875 45.492188 40.796875 45.675781 C 40.796875 45.859375 40.761719 46.035156 40.691406 46.203125 C 40.625 46.371094 40.523438 46.519531 40.394531 46.648438 C 40.265625 46.777344 40.117188 46.878906 39.945312 46.949219 C 39.777344 47.015625 39.601562 47.050781 39.421875 47.050781 L 22.128906 47.050781 C 21.945312 47.050781 21.773438 47.015625 21.601562 46.945312 C 21.433594 46.875 21.285156 46.777344 21.15625 46.648438 C 21.027344 46.519531 20.929688 46.371094 20.859375 46.203125 C 20.789062 46.035156 20.753906 45.859375 20.753906 45.675781 Z M 20.753906 53.929688 C 20.753906 53.167969 21.371094 52.554688 22.128906 52.554688 L 33.527344 52.554688 C 33.707031 52.554688 33.882812 52.589844 34.054688 52.65625 C 34.222656 52.726562 34.371094 52.828125 34.5 52.957031 C 34.628906 53.085938 34.726562 53.234375 34.796875 53.402344 C 34.867188 53.570312 34.902344 53.746094 34.902344 53.929688 C 34.902344 54.109375 34.867188 54.285156 34.796875 54.457031 C 34.726562 54.625 34.628906 54.773438 34.5 54.902344 C 34.371094 55.03125 34.222656 55.128906 34.054688 55.199219 C 33.882812 55.269531 33.707031 55.304688 33.527344 55.304688 L 22.128906 55.304688 C 21.945312 55.304688 21.773438 55.269531 21.601562 55.199219 C 21.433594 55.128906 21.285156 55.03125 21.15625 54.902344 C 21.027344 54.773438 20.929688 54.625 20.859375 54.457031 C 20.789062 54.285156 20.753906 54.109375 20.753906 53.929688 Z M 20.753906 53.929688 " fill-opacity="1" fill-rule="evenodd"/><path fill="#ff751f" d="M 22.707031 24.660156 C 21.132812 22.773438 20.871094 16.40625 20.9375 13.457031 C 21.789062 13.261719 23.925781 12.710938 25.652344 12.082031 C 27.382812 11.453125 28.601562 9.988281 28.996094 9.332031 C 29.453125 9.921875 30.761719 11.296875 32.335938 12.082031 C 33.90625 12.871094 36.132812 12.933594 37.050781 12.871094 C 37.445312 15.488281 37.914062 21.398438 36.65625 24.070312 C 35.398438 26.742188 31.023438 28.851562 28.996094 29.570312 C 27.554688 28.71875 24.277344 26.546875 22.707031 24.660156 Z M 22.707031 24.660156 " fill-opacity="1" fill-rule="nonzero"/><path fill="#000000" d="M 28.953125 10.832031 C 27.132812 12.804688 24.816406 13.773438 21.976562 13.703125 L 21.976562 14.046875 C 21.976562 16.085938 21.972656 18.125 21.976562 20.164062 C 21.980469 24.015625 24.742188 27.457031 28.707031 28.546875 C 28.875 28.59375 29.085938 28.601562 29.25 28.550781 C 32.75 27.496094 34.90625 25.265625 35.792969 21.964844 C 35.953125 21.371094 35.980469 20.734375 35.996094 20.121094 C 36.023438 18.945312 36 17.769531 36.003906 16.59375 C 36.007812 16.015625 36.433594 15.617188 37.039062 15.609375 C 37.558594 15.601562 37.992188 15.933594 37.992188 16.417969 C 37.988281 18.117188 38.089844 19.828125 37.898438 21.511719 C 37.605469 24.132812 36.265625 26.324219 34.167969 28.101562 C 32.792969 29.273438 31.21875 30.050781 29.453125 30.4375 C 29.152344 30.503906 28.796875 30.515625 28.507812 30.433594 C 23.976562 29.191406 21.210938 26.390625 20.171875 22.117188 C 20.019531 21.492188 19.984375 20.828125 19.980469 20.183594 C 19.957031 17.765625 19.972656 15.347656 19.972656 12.929688 C 19.972656 12.226562 20.398438 11.835938 21.160156 11.835938 C 22.167969 11.832031 23.183594 11.890625 24.167969 11.625 C 25.882812 11.164062 27.167969 10.191406 28.023438 8.730469 C 28.226562 8.390625 28.492188 8.167969 28.921875 8.148438 C 29.386719 8.125 29.710938 8.316406 29.933594 8.699219 C 30.597656 9.855469 31.578125 10.714844 32.847656 11.277344 C 33.722656 11.667969 34.640625 11.851562 35.597656 11.835938 C 36.046875 11.828125 36.496094 11.828125 36.941406 11.835938 C 37.488281 11.851562 37.910156 12.214844 37.988281 12.710938 C 38.050781 13.101562 37.78125 13.496094 37.355469 13.644531 C 37.308594 13.660156 37.257812 13.683594 37.207031 13.683594 C 34.820312 13.804688 32.511719 13.613281 30.539062 12.167969 C 29.988281 11.761719 29.492188 11.289062 28.953125 10.832031 Z M 28.953125 10.832031 " fill-opacity="1" fill-rule="nonzero"/><path fill="#000000" d="M 27.964844 20.816406 L 29.847656 19.0625 C 30.304688 18.636719 30.75 18.199219 31.21875 17.789062 C 31.875 17.207031 32.75 17.433594 32.960938 18.230469 C 33.050781 18.554688 32.933594 18.828125 32.695312 19.054688 C 31.367188 20.300781 30.03125 21.542969 28.691406 22.777344 C 28.28125 23.152344 27.695312 23.148438 27.28125 22.777344 C 26.609375 22.167969 25.945312 21.550781 25.292969 20.925781 C 24.894531 20.542969 24.902344 19.941406 25.28125 19.582031 C 25.644531 19.242188 26.28125 19.234375 26.691406 19.601562 C 27.121094 19.980469 27.523438 20.390625 27.964844 20.816406 Z M 27.964844 20.816406 " fill-opacity="1" fill-rule="nonzero"/><path fill="#000000" d="M 49.246094 49.210938 C 48.859375 49.210938 48.476562 49.25 48.09375 49.324219 C 47.714844 49.402344 47.347656 49.511719 46.988281 49.660156 C 46.632812 49.808594 46.292969 49.992188 45.96875 50.207031 C 45.648438 50.421875 45.351562 50.664062 45.078125 50.9375 C 44.804688 51.214844 44.558594 51.511719 44.34375 51.832031 C 44.128906 52.15625 43.949219 52.496094 43.800781 52.851562 C 43.652344 53.210938 43.539062 53.578125 43.464844 53.957031 C 43.386719 54.335938 43.351562 54.71875 43.351562 55.109375 C 43.351562 55.496094 43.386719 55.878906 43.464844 56.257812 C 43.539062 56.636719 43.652344 57.007812 43.800781 57.363281 C 43.949219 57.722656 44.128906 58.0625 44.34375 58.382812 C 44.558594 58.703125 44.804688 59.003906 45.078125 59.277344 C 45.351562 59.550781 45.648438 59.792969 45.96875 60.007812 C 46.292969 60.222656 46.632812 60.40625 46.988281 60.554688 C 47.347656 60.703125 47.714844 60.8125 48.09375 60.890625 C 48.476562 60.964844 48.859375 61.003906 49.246094 61.003906 C 49.632812 61.003906 50.015625 60.964844 50.394531 60.890625 C 50.777344 60.8125 51.144531 60.703125 51.5 60.554688 C 51.859375 60.40625 52.199219 60.222656 52.519531 60.007812 C 52.84375 59.792969 53.140625 59.550781 53.414062 59.277344 C 53.6875 59.003906 53.933594 58.703125 54.148438 58.382812 C 54.363281 58.0625 54.542969 57.722656 54.691406 57.363281 C 54.839844 57.007812 54.953125 56.636719 55.027344 56.257812 C 55.101562 55.878906 55.140625 55.496094 55.140625 55.109375 C 55.140625 54.71875 55.101562 54.335938 55.027344 53.957031 C 54.953125 53.578125 54.839844 53.210938 54.691406 52.851562 C 54.542969 52.496094 54.363281 52.15625 54.148438 51.832031 C 53.933594 51.511719 53.6875 51.214844 53.414062 50.9375 C 53.140625 50.664062 52.84375 50.421875 52.519531 50.207031 C 52.199219 49.992188 51.859375 49.808594 51.5 49.660156 C 51.144531 49.511719 50.777344 49.402344 50.394531 49.324219 C 50.015625 49.25 49.632812 49.210938 49.246094 49.210938 Z M 40.601562 55.109375 C 40.601562 50.332031 44.472656 46.460938 49.246094 46.460938 C 54.019531 46.460938 57.890625 50.332031 57.890625 55.105469 C 57.890625 59.882812 54.019531 63.753906 49.246094 63.753906 C 44.46875 63.753906 40.601562 59.882812 40.601562 55.105469 Z M 40.601562 55.109375 " fill-opacity="1" fill-rule="evenodd"/><path fill="#000000" d="M 49.859375 51.824219 C 49.621094 51.777344 49.375 51.761719 49.132812 51.769531 C 48.886719 51.777344 48.644531 51.8125 48.40625 51.875 C 48.167969 51.9375 47.941406 52.023438 47.722656 52.136719 C 47.503906 52.246094 47.300781 52.382812 47.113281 52.539062 C 46.925781 52.695312 46.753906 52.871094 46.605469 53.0625 C 46.453125 53.257812 46.328125 53.464844 46.222656 53.6875 C 46.117188 53.910156 46.039062 54.140625 45.984375 54.378906 C 45.933594 54.621094 45.90625 54.863281 45.90625 55.109375 C 45.90625 55.324219 45.828125 55.511719 45.675781 55.664062 C 45.523438 55.816406 45.335938 55.894531 45.121094 55.894531 C 44.902344 55.894531 44.71875 55.816406 44.5625 55.664062 C 44.410156 55.511719 44.332031 55.324219 44.332031 55.109375 C 44.332031 54.746094 44.371094 54.390625 44.449219 54.039062 C 44.53125 53.6875 44.644531 53.347656 44.796875 53.019531 C 44.953125 52.691406 45.140625 52.386719 45.359375 52.101562 C 45.582031 51.816406 45.832031 51.558594 46.109375 51.328125 C 46.386719 51.097656 46.683594 50.898438 47.007812 50.734375 C 47.328125 50.570312 47.664062 50.441406 48.011719 50.351562 C 48.363281 50.261719 48.714844 50.210938 49.078125 50.199219 C 49.4375 50.1875 49.796875 50.210938 50.148438 50.277344 C 50.367188 50.316406 50.535156 50.425781 50.660156 50.605469 C 50.785156 50.785156 50.828125 50.984375 50.789062 51.199219 C 50.746094 51.414062 50.636719 51.582031 50.453125 51.703125 C 50.273438 51.828125 50.074219 51.867188 49.859375 51.824219 Z M 49.859375 51.824219 " fill-opacity="1" fill-rule="evenodd"/><path fill="#ff751f" d="M 54.0625 43.699219 C 53.128906 43.519531 51.769531 43.902344 51.800781 42.367188 C 51.832031 40.925781 53.128906 41.257812 54.066406 41.066406 C 54.230469 40.109375 53.953125 38.726562 55.503906 38.800781 C 56.839844 38.863281 56.609375 40.078125 56.695312 41.023438 C 57.601562 41.308594 59.054688 40.871094 59 42.464844 C 58.945312 43.921875 57.640625 43.515625 56.730469 43.699219 C 56.542969 44.632812 56.933594 45.992188 55.410156 45.988281 C 53.90625 45.988281 54.25 44.644531 54.0625 43.699219 Z M 54.0625 43.699219 " fill-opacity="1" fill-rule="nonzero"/></svg>