<svg xmlns="http://www.w3.org/2000/svg" xmlns:xlink="http://www.w3.org/1999/xlink" width="100" zoomAndPan="magnify" viewBox="0 0 75 74.999997" height="100" preserveAspectRatio="xMidYMid meet" version="1.0"><rect x="-7.5" width="90" fill="#ffffff" y="-7.5" height="89.999996" fill-opacity="1"/><rect x="-7.5" width="90" fill="#ffffff" y="-7.5" height="89.999996" fill-opacity="1"/><rect x="-7.5" width="90" fill="#ffffff" y="-7.5" height="89.999996" fill-opacity="1"/><path fill="#ff751f" d="M 45.355469 59.035156 C 45.355469 55 42.082031 51.726562 38.046875 51.726562 C 34.011719 51.726562 30.738281 55 30.738281 59.035156 C 30.738281 63.074219 34.011719 66.34375 38.046875 66.34375 C 42.082031 66.34375 45.355469 63.074219 45.355469 59.035156 Z M 45.355469 59.035156 " fill-opacity="1" fill-rule="nonzero"/><path fill="#000000" d="M 37.851562 3.023438 C 47.699219 3.023438 57.546875 3.023438 67.394531 3.023438 C 69.210938 3.023438 70.589844 3.796875 71.460938 5.40625 C 71.792969 6.023438 71.96875 6.6875 71.96875 7.398438 C 71.964844 16.207031 71.972656 25.015625 71.960938 33.820312 C 71.960938 35.390625 71.261719 36.640625 69.992188 37.527344 C 69.316406 37.996094 68.523438 38.230469 67.679688 38.226562 C 64.699219 38.21875 61.71875 38.222656 58.742188 38.226562 C 53.257812 38.230469 47.777344 38.234375 42.292969 38.230469 C 41.992188 38.230469 41.820312 38.300781 41.675781 38.597656 C 40.773438 40.4375 39.84375 42.265625 38.933594 44.097656 C 38.710938 44.550781 38.386719 44.847656 37.871094 44.851562 C 37.355469 44.855469 37.03125 44.554688 36.804688 44.105469 C 35.894531 42.273438 34.964844 40.449219 34.0625 38.613281 C 33.921875 38.324219 33.765625 38.230469 33.453125 38.230469 C 26.738281 38.238281 20.023438 38.238281 13.308594 38.234375 C 11.589844 38.234375 9.867188 38.210938 8.148438 38.230469 C 5.804688 38.257812 3.769531 36.324219 3.761719 33.878906 C 3.742188 28.359375 3.753906 22.839844 3.753906 17.316406 C 3.757812 14.042969 3.753906 10.769531 3.777344 7.496094 C 3.789062 5.589844 4.671875 4.199219 6.410156 3.386719 C 7.015625 3.105469 7.667969 3 8.347656 3 C 18.179688 3.007812 28.015625 3.003906 37.851562 3.003906 Z M 37.839844 41.226562 C 37.9375 41.101562 37.980469 41.054688 38.007812 41.003906 C 38.699219 39.617188 39.410156 38.242188 40.070312 36.84375 C 40.347656 36.257812 40.757812 36 41.386719 36 C 44.378906 36.003906 47.371094 36 50.359375 36 C 56.050781 36 61.738281 36.003906 67.425781 35.992188 C 67.777344 35.992188 68.15625 35.949219 68.46875 35.804688 C 69.371094 35.390625 69.769531 34.648438 69.765625 33.652344 C 69.753906 24.972656 69.738281 16.292969 69.761719 7.613281 C 69.765625 6.273438 68.730469 5.207031 67.355469 5.21875 C 61.628906 5.261719 55.902344 5.238281 50.175781 5.234375 C 36.191406 5.230469 22.207031 5.226562 8.222656 5.222656 C 8.019531 5.222656 7.808594 5.234375 7.617188 5.289062 C 6.5625 5.59375 5.96875 6.390625 5.964844 7.511719 C 5.957031 10.824219 5.953125 14.136719 5.953125 17.449219 C 5.949219 22.832031 5.972656 28.210938 5.9375 33.589844 C 5.925781 34.894531 6.890625 36.117188 8.414062 36.054688 C 9.488281 36.011719 10.570312 36.023438 11.648438 36.023438 C 17.683594 36.019531 23.71875 36.023438 29.753906 36.019531 C 31.320312 36.019531 32.886719 36.007812 34.453125 36 C 34.976562 36 35.363281 36.230469 35.59375 36.695312 C 36.050781 37.613281 36.492188 38.535156 36.941406 39.453125 C 37.222656 40.023438 37.515625 40.585938 37.84375 41.226562 Z M 37.886719 47.074219 C 44.542969 47.03125 49.96875 52.558594 49.964844 59.117188 C 49.960938 65.902344 44.558594 71.1875 38.019531 71.25 C 31.175781 71.3125 25.722656 65.871094 25.773438 59.035156 C 25.828125 52.425781 31.210938 47.046875 37.886719 47.074219 Z M 37.894531 69.042969 C 43.3125 69.046875 47.78125 64.597656 47.765625 59.1875 C 47.753906 53.671875 43.375 49.324219 37.992188 49.265625 C 32.402344 49.203125 27.9375 53.65625 27.972656 59.242188 C 28.011719 64.664062 32.40625 69.039062 37.894531 69.042969 Z M 37.894531 69.042969 " fill-opacity="1" fill-rule="nonzero"/><path fill="#000000" d="M 66.601562 6.742188 L 67.613281 8.992188 L 62.574219 11.257812 C 62.976562 11.429688 63.277344 11.570312 63.585938 11.695312 C 64.660156 12.125 65.746094 12.542969 66.820312 12.976562 C 67.289062 13.167969 67.554688 13.523438 67.554688 14.046875 C 67.5625 15.484375 67.570312 16.921875 67.578125 18.359375 C 67.582031 19.226562 66.660156 19.773438 66 19.398438 C 65.839844 19.308594 65.640625 19.28125 65.402344 19.207031 C 65.390625 19.414062 65.375 19.574219 65.375 19.730469 C 65.375 23.597656 65.375 27.460938 65.375 31.324219 C 65.375 32.320312 64.972656 32.726562 63.988281 32.726562 L 46.960938 32.726562 C 45.957031 32.726562 45.578125 32.34375 45.578125 31.328125 L 45.578125 19.265625 C 45.457031 19.265625 45.382812 19.25 45.3125 19.265625 C 44.226562 19.515625 43.1875 19.890625 42.195312 20.386719 C 41.589844 20.691406 40.960938 20.945312 40.34375 21.222656 C 40.546875 21.683594 40.78125 22.097656 40.917969 22.542969 C 41.050781 22.96875 41.132812 23.421875 41.148438 23.863281 C 41.179688 24.875 41.144531 25.890625 41.164062 26.90625 C 41.179688 27.65625 40.699219 28.148438 39.890625 28.167969 C 38.667969 28.191406 37.449219 28.191406 36.230469 28.167969 C 35.941406 28.164062 35.808594 28.261719 35.691406 28.519531 C 35.230469 29.535156 34.480469 30.210938 33.386719 30.535156 C 31.539062 31.082031 29.679688 30.109375 29.027344 28.449219 C 28.941406 28.230469 28.808594 28.171875 28.59375 28.171875 C 27.449219 28.179688 26.308594 28.171875 25.164062 28.183594 C 24.957031 28.1875 24.761719 28.234375 24.574219 28.316406 C 19.433594 30.617188 14.296875 32.921875 9.160156 35.226562 C 9.042969 35.277344 8.925781 35.324219 8.761719 35.394531 L 7.75 33.148438 L 13.722656 30.464844 C 13.320312 30.121094 12.914062 29.824219 12.570312 29.464844 C 12.304688 29.1875 12.097656 28.871094 11.945312 28.515625 C 11.820312 28.234375 11.671875 28.164062 11.394531 28.171875 C 10.753906 28.1875 10.113281 28.179688 9.46875 28.175781 C 8.621094 28.167969 8.167969 27.714844 8.167969 26.867188 C 8.164062 24.890625 8.164062 22.910156 8.167969 20.933594 C 8.167969 20.152344 8.433594 19.820312 9.1875 19.648438 C 9.714844 19.527344 10.242188 19.421875 10.757812 19.28125 C 10.875 19.246094 11.011719 19.109375 11.046875 18.988281 C 11.433594 17.714844 11.753906 16.417969 12.179688 15.160156 C 12.902344 13.011719 14.355469 11.570312 16.527344 10.851562 C 17.347656 10.582031 18.175781 10.546875 19.023438 10.546875 C 21.128906 10.554688 23.234375 10.542969 25.339844 10.554688 C 28.28125 10.574219 30.851562 12.601562 31.605469 15.402344 C 31.910156 16.527344 32.125 17.675781 32.363281 18.816406 C 32.410156 19.035156 32.484375 19.117188 32.707031 19.128906 C 34.078125 19.195312 35.449219 19.277344 36.820312 19.351562 C 36.945312 19.359375 37.089844 19.335938 37.199219 19.386719 C 37.808594 19.664062 38.332031 19.421875 38.878906 19.171875 C 40.25 18.539062 41.632812 17.921875 43.019531 17.316406 C 43.285156 17.203125 43.371094 17.058594 43.363281 16.773438 C 43.34375 15.988281 43.382812 15.203125 43.351562 14.421875 C 43.300781 13.261719 43.746094 13.109375 44.484375 12.808594 C 45.84375 12.261719 47.207031 11.726562 48.566406 11.1875 C 50.339844 10.488281 52.113281 9.789062 53.890625 9.085938 C 54.171875 8.972656 54.460938 8.871094 54.726562 8.730469 C 55.222656 8.472656 55.699219 8.507812 56.203125 8.71875 C 57.140625 9.117188 58.085938 9.492188 59.039062 9.84375 C 59.238281 9.917969 59.527344 9.890625 59.726562 9.804688 C 61.886719 8.855469 64.035156 7.882812 66.1875 6.917969 C 66.304688 6.867188 66.421875 6.820312 66.601562 6.742188 Z M 63.15625 30.496094 C 63.164062 30.378906 63.175781 30.289062 63.175781 30.203125 C 63.175781 26.339844 63.171875 22.472656 63.183594 18.609375 C 63.183594 18.335938 63.066406 18.21875 62.84375 18.132812 C 62.429688 17.976562 62.015625 17.820312 61.605469 17.65625 C 59.769531 16.921875 57.941406 16.183594 56.105469 15.460938 C 55.84375 15.355469 55.511719 15.222656 55.273438 15.296875 C 54.464844 15.5625 53.6875 15.917969 52.894531 16.234375 C 51.324219 16.863281 49.753906 17.496094 48.179688 18.113281 C 47.898438 18.222656 47.765625 18.351562 47.765625 18.6875 C 47.777344 22.488281 47.773438 26.285156 47.773438 30.085938 C 47.773438 30.222656 47.785156 30.359375 47.792969 30.484375 L 51.625 30.484375 L 51.625 30.039062 C 51.625 28.433594 51.621094 26.832031 51.625 25.226562 C 51.625 24.324219 52.035156 23.90625 52.929688 23.90625 C 54.621094 23.902344 56.316406 23.902344 58.011719 23.90625 C 58.898438 23.90625 59.324219 24.335938 59.328125 25.226562 C 59.328125 26.84375 59.328125 28.460938 59.328125 30.078125 L 59.328125 30.496094 Z M 33.628906 21.511719 L 33.605469 21.386719 C 32.925781 21.351562 32.25 21.3125 31.574219 21.28125 C 30.941406 21.253906 30.574219 20.960938 30.441406 20.347656 C 30.25 19.457031 30.085938 18.5625 29.886719 17.675781 C 29.71875 16.9375 29.613281 16.171875 29.316406 15.484375 C 28.617188 13.859375 27.371094 12.835938 25.554688 12.792969 C 23.066406 12.730469 20.574219 12.746094 18.085938 12.792969 C 16.714844 12.820312 15.675781 13.546875 14.871094 14.628906 C 14.351562 15.324219 14.164062 16.152344 13.929688 16.964844 C 13.605469 18.09375 13.273438 19.226562 12.945312 20.355469 C 12.789062 20.902344 12.4375 21.21875 11.871094 21.3125 C 11.480469 21.378906 11.101562 21.5 10.707031 21.558594 C 10.429688 21.601562 10.351562 21.726562 10.355469 21.992188 C 10.367188 22.980469 10.359375 23.972656 10.359375 24.960938 C 10.359375 25.960938 10.359375 25.953125 11.382812 25.960938 C 11.671875 25.960938 11.808594 25.863281 11.921875 25.59375 C 12.355469 24.539062 13.152344 23.832031 14.230469 23.515625 C 16.101562 22.972656 17.9375 23.925781 18.636719 25.640625 C 18.738281 25.890625 18.878906 25.960938 19.128906 25.957031 C 20.476562 25.949219 21.824219 25.972656 23.171875 25.941406 C 23.570312 25.9375 23.953125 25.855469 24.316406 25.699219 C 26.886719 24.566406 29.445312 23.40625 32.003906 22.253906 C 32.546875 22.007812 33.085938 21.757812 33.628906 21.511719 Z M 57.09375 30.496094 L 57.09375 26.148438 L 53.851562 26.148438 L 53.851562 30.496094 Z M 57.359375 13.597656 L 65.351562 16.789062 C 65.351562 16.117188 65.359375 15.527344 65.34375 14.941406 C 65.34375 14.859375 65.246094 14.742188 65.164062 14.707031 C 63.597656 14.0625 62.03125 13.429688 60.460938 12.800781 C 60.203125 12.699219 59.882812 12.519531 59.671875 12.59375 C 58.917969 12.859375 58.199219 13.222656 57.359375 13.59375 Z M 56.535156 11.253906 C 56.171875 11.09375 55.933594 10.972656 55.683594 10.886719 C 55.546875 10.847656 55.40625 10.847656 55.269531 10.886719 C 55.015625 10.964844 54.777344 11.089844 54.527344 11.1875 C 53.089844 11.765625 51.652344 12.347656 50.210938 12.925781 C 48.734375 13.519531 47.257812 14.105469 45.785156 14.703125 C 45.695312 14.738281 45.574219 14.835938 45.570312 14.910156 C 45.550781 15.300781 45.5625 15.691406 45.5625 16.164062 Z M 34.328125 23.925781 C 35.027344 24.414062 35.484375 24.976562 35.761719 25.679688 C 35.847656 25.902344 35.976562 25.957031 36.195312 25.953125 C 37.003906 25.945312 37.8125 25.941406 38.617188 25.957031 C 38.898438 25.960938 38.972656 25.851562 38.972656 25.597656 C 38.960938 25.007812 38.972656 24.417969 38.964844 23.828125 C 38.957031 23.324219 38.765625 22.886719 38.464844 22.484375 C 38.292969 22.246094 38.113281 22.207031 37.84375 22.335938 C 37.199219 22.644531 36.539062 22.925781 35.882812 23.222656 Z M 32.386719 25.578125 C 31.554688 25.574219 30.917969 26.1875 30.902344 27.007812 C 30.890625 27.804688 31.550781 28.476562 32.347656 28.484375 C 32.546875 28.484375 32.734375 28.449219 32.917969 28.375 C 33.097656 28.300781 33.261719 28.195312 33.398438 28.058594 C 33.539062 27.917969 33.648438 27.757812 33.722656 27.578125 C 33.796875 27.394531 33.835938 27.207031 33.835938 27.007812 C 33.832031 26.820312 33.796875 26.636719 33.722656 26.460938 C 33.648438 26.285156 33.542969 26.128906 33.40625 25.996094 C 33.269531 25.859375 33.113281 25.757812 32.9375 25.6875 C 32.761719 25.613281 32.578125 25.578125 32.386719 25.578125 Z M 15.261719 25.578125 C 15.066406 25.578125 14.878906 25.613281 14.699219 25.6875 C 14.523438 25.761719 14.363281 25.871094 14.226562 26.007812 C 14.089844 26.148438 13.988281 26.304688 13.914062 26.484375 C 13.84375 26.667969 13.808594 26.851562 13.8125 27.046875 C 13.816406 27.855469 14.4375 28.476562 15.253906 28.484375 C 16.085938 28.488281 16.71875 27.867188 16.722656 27.039062 C 16.722656 26.84375 16.6875 26.65625 16.613281 26.476562 C 16.539062 26.296875 16.433594 26.136719 16.296875 26 C 16.160156 25.863281 16.003906 25.757812 15.820312 25.683594 C 15.640625 25.613281 15.457031 25.574219 15.261719 25.578125 Z M 15.261719 25.578125 " fill-opacity="1" fill-rule="nonzero"/><path fill="#000000" d="M 21.699219 21.296875 L 15.613281 21.296875 C 14.382812 21.296875 13.949219 20.679688 14.34375 19.511719 C 14.664062 18.566406 14.960938 17.613281 15.273438 16.664062 C 15.851562 14.917969 17.054688 13.984375 18.902344 13.972656 C 21.082031 13.957031 23.265625 13.960938 25.445312 14.019531 C 26.828125 14.054688 28.199219 15.21875 28.511719 16.574219 C 28.777344 17.710938 28.984375 18.859375 29.1875 20.007812 C 29.3125 20.703125 28.792969 21.28125 28.050781 21.292969 C 26.949219 21.308594 25.84375 21.296875 24.742188 21.296875 Z M 16.804688 19.101562 C 18.183594 19.101562 19.46875 19.097656 20.75 19.101562 C 21.003906 19.101562 20.996094 18.929688 20.996094 18.761719 C 20.992188 18.003906 20.976562 17.246094 20.980469 16.492188 C 20.984375 16.238281 20.878906 16.152344 20.636719 16.152344 C 20.046875 16.160156 19.453125 16.148438 18.863281 16.160156 C 18.335938 16.171875 17.878906 16.355469 17.597656 16.828125 C 17.476562 17.035156 17.402344 17.269531 17.324219 17.5 C 17.15625 18.003906 16.996094 18.511719 16.804688 19.101562 Z M 26.816406 19.097656 C 26.644531 18.351562 26.539062 17.667969 26.328125 17.019531 C 26.167969 16.53125 25.746094 16.234375 25.222656 16.195312 C 24.648438 16.15625 24.074219 16.148438 23.496094 16.171875 C 23.394531 16.175781 23.214844 16.359375 23.210938 16.464844 C 23.195312 17.257812 23.199219 18.050781 23.222656 18.84375 C 23.226562 18.929688 23.359375 19.085938 23.429688 19.089844 C 24.515625 19.105469 25.601562 19.097656 26.816406 19.097656 Z M 39.484375 65.730469 C 39.40625 65.730469 39.332031 65.71875 39.257812 65.695312 C 39.195312 65.675781 39.132812 65.648438 39.070312 65.621094 L 38.847656 65.507812 L 33.808594 61.511719 C 33.742188 61.480469 33.679688 61.441406 33.621094 61.402344 C 33.566406 61.316406 33.515625 61.230469 33.472656 61.140625 C 33.417969 61.058594 33.382812 60.972656 33.359375 60.878906 C 33.335938 60.78125 33.324219 60.679688 33.324219 60.578125 C 33.324219 60.382812 33.347656 60.207031 33.398438 60.058594 C 33.472656 59.90625 33.582031 59.769531 33.734375 59.648438 C 33.859375 59.523438 33.980469 59.433594 34.105469 59.386719 C 34.257812 59.335938 34.417969 59.308594 34.589844 59.308594 L 37.132812 59.308594 C 37.851562 59.308594 38.351562 59.148438 38.625 58.824219 C 38.921875 58.5 39.097656 58.265625 39.148438 58.117188 L 34.03125 58.117188 C 33.882812 58.117188 33.746094 58.089844 33.621094 58.039062 C 33.492188 57.988281 33.382812 57.914062 33.285156 57.816406 C 33.1875 57.722656 33.113281 57.609375 33.0625 57.480469 C 33.007812 57.347656 32.984375 57.210938 32.984375 57.070312 C 32.984375 56.945312 33.011719 56.820312 33.0625 56.695312 C 33.109375 56.574219 33.183594 56.460938 33.285156 56.359375 C 33.382812 56.261719 33.496094 56.1875 33.621094 56.136719 C 33.746094 56.0625 33.882812 56.023438 34.03125 56.023438 L 39.035156 56.0625 C 38.890625 55.871094 38.742188 55.683594 38.585938 55.503906 C 38.363281 55.179688 37.878906 55.015625 37.132812 55.015625 L 34.03125 54.941406 L 33.695312 54.90625 C 33.492188 54.855469 33.328125 54.742188 33.210938 54.570312 C 33.085938 54.402344 33.011719 54.214844 32.984375 54.007812 L 32.984375 53.710938 C 33.011719 53.609375 33.046875 53.523438 33.097656 53.449219 C 33.148438 53.351562 33.210938 53.261719 33.285156 53.1875 C 33.382812 53.0625 33.496094 52.976562 33.621094 52.925781 C 33.746094 52.875 33.882812 52.851562 34.03125 52.851562 L 41.386719 52.851562 C 41.535156 52.851562 41.671875 52.875 41.796875 52.925781 C 41.921875 52.976562 42.035156 53.050781 42.132812 53.148438 C 42.234375 53.25 42.308594 53.363281 42.359375 53.484375 C 42.40625 53.609375 42.433594 53.746094 42.433594 53.898438 C 42.433594 54.023438 42.40625 54.160156 42.359375 54.308594 C 42.304688 54.433594 42.230469 54.546875 42.132812 54.644531 C 42.035156 54.742188 41.925781 54.816406 41.796875 54.867188 C 41.664062 54.917969 41.527344 54.945312 41.386719 54.941406 L 40.789062 54.941406 C 40.863281 55.09375 40.964844 55.277344 41.089844 55.503906 C 41.238281 55.703125 41.335938 55.875 41.386719 56.023438 L 41.574219 56.023438 C 41.722656 56.023438 41.820312 56.0625 41.871094 56.136719 C 41.949219 56.1875 42.035156 56.261719 42.132812 56.359375 C 42.332031 56.554688 42.429688 56.792969 42.433594 57.070312 C 42.433594 57.21875 42.40625 57.355469 42.359375 57.480469 C 42.304688 57.609375 42.230469 57.722656 42.132812 57.816406 C 42.035156 57.914062 41.925781 57.988281 41.796875 58.039062 C 41.671875 58.089844 41.535156 58.117188 41.386719 58.117188 L 41.3125 58.117188 C 41.238281 58.589844 41.089844 58.988281 40.863281 59.3125 C 40.664062 59.609375 40.390625 59.90625 40.042969 60.207031 C 39.65625 60.597656 39.210938 60.898438 38.699219 61.101562 C 38.195312 61.308594 37.675781 61.410156 37.132812 61.402344 L 37.019531 61.402344 L 40.117188 63.828125 C 40.191406 63.902344 40.242188 63.964844 40.265625 64.015625 C 40.3125 64.058594 40.351562 64.109375 40.378906 64.164062 C 40.429688 64.238281 40.464844 64.324219 40.492188 64.425781 C 40.515625 64.5 40.527344 64.585938 40.527344 64.6875 C 40.527344 64.8125 40.503906 64.949219 40.453125 65.097656 C 40.402344 65.226562 40.328125 65.335938 40.230469 65.433594 C 40.132812 65.53125 40.019531 65.605469 39.894531 65.65625 C 39.769531 65.707031 39.632812 65.734375 39.484375 65.734375 Z M 39.484375 65.730469 " fill-opacity="1" fill-rule="nonzero"/><path fill="#ff751f" d="M 6.375 32.984375 L 67.46875 5.625 L 68.847656 8.703125 L 7.753906 36.066406 Z M 6.375 32.984375 " fill-opacity="1" fill-rule="evenodd"/></svg>