<svg xmlns="http://www.w3.org/2000/svg" xmlns:xlink="http://www.w3.org/1999/xlink" width="100" zoomAndPan="magnify" viewBox="0 0 75 74.999997" height="100" preserveAspectRatio="xMidYMid meet" version="1.0"><defs><clipPath id="d76bcdcf64"><path d="M 27 18.183594 L 47.8125 18.183594 L 47.8125 56.996094 L 27 56.996094 Z M 27 18.183594 " clip-rule="nonzero"/></clipPath></defs><rect x="-7.5" width="90" fill="#ffffff" y="-7.5" height="89.999996" fill-opacity="1"/><rect x="-7.5" width="90" fill="#000000" y="-7.5" height="89.999996" fill-opacity="1"/><path fill="#ff751f" d="M 59.410156 42.914062 C 59.449219 42.9375 59.484375 42.964844 59.515625 42.992188 C 60.195312 43.710938 60.894531 44.410156 61.546875 45.152344 C 62.019531 45.695312 62.386719 46.320312 62.441406 47.074219 C 62.476562 47.503906 62.441406 47.917969 62.136719 48.265625 C 62.050781 48.363281 62.140625 48.574219 62.328125 48.707031 C 62.4375 48.265625 62.570312 47.839844 62.636719 47.398438 C 62.753906 46.640625 62.839844 45.871094 62.917969 45.105469 C 62.949219 44.785156 62.9375 44.460938 62.945312 44.136719 C 62.945312 44.117188 62.949219 44.09375 62.941406 44.082031 C 62.746094 43.886719 62.546875 43.691406 62.351562 43.5 C 61.386719 43.292969 60.621094 42.753906 59.976562 42.027344 C 59.203125 41.164062 58.757812 40.054688 58.71875 38.890625 C 58.714844 38.859375 58.71875 38.832031 58.722656 38.765625 C 58.867188 38.855469 58.988281 38.929688 59.113281 39.007812 C 59.679688 39.363281 60.261719 39.703125 60.816406 40.078125 C 61.484375 40.527344 62.089844 41.042969 62.445312 41.796875 C 62.667969 42.273438 62.757812 42.765625 62.648438 43.289062 C 62.601562 43.515625 62.667969 43.605469 62.921875 43.707031 C 62.929688 43.550781 62.925781 43.394531 62.917969 43.242188 C 62.828125 42.460938 62.761719 41.679688 62.628906 40.910156 C 62.523438 40.296875 62.339844 39.695312 62.175781 39.09375 C 62.152344 39.003906 62.058594 38.921875 61.980469 38.859375 C 61.878906 38.785156 61.769531 38.722656 61.65625 38.671875 C 61.570312 38.625 61.472656 38.597656 61.375 38.589844 C 59.78125 38.5625 58.550781 37.839844 57.570312 36.617188 C 57.257812 36.226562 57.003906 35.792969 56.824219 35.328125 C 56.800781 35.265625 56.785156 35.203125 56.75 35.101562 C 56.996094 35.175781 57.203125 35.230469 57.410156 35.296875 C 58.035156 35.492188 58.664062 35.675781 59.285156 35.890625 C 59.910156 36.105469 60.503906 36.394531 60.992188 36.855469 C 61.398438 37.234375 61.640625 37.699219 61.65625 38.269531 C 61.664062 38.539062 61.710938 38.59375 62.03125 38.640625 C 61.972656 38.472656 61.929688 38.3125 61.863281 38.160156 C 61.578125 37.488281 61.3125 36.808594 60.992188 36.152344 C 60.726562 35.601562 60.402344 35.082031 60.097656 34.554688 C 60.066406 34.503906 59.992188 34.480469 59.933594 34.449219 C 59.90625 34.433594 59.867188 34.445312 59.84375 34.433594 C 59.546875 34.289062 59.25 34.300781 58.9375 34.378906 C 58.210938 34.554688 57.503906 34.417969 56.808594 34.199219 C 55.792969 33.882812 54.976562 33.265625 54.289062 32.453125 C 54.257812 32.417969 54.230469 32.375 54.203125 32.332031 C 54.191406 32.308594 54.183594 32.28125 54.175781 32.257812 C 54.371094 32.257812 54.550781 32.25 54.734375 32.257812 C 55.234375 32.277344 55.734375 32.296875 56.234375 32.335938 C 56.949219 32.386719 57.660156 32.492188 58.3125 32.800781 C 58.769531 33.015625 59.167969 33.328125 59.367188 33.832031 C 59.382812 33.859375 59.394531 33.886719 59.402344 33.917969 C 59.4375 34.199219 59.417969 34.191406 59.875 34.265625 C 59.851562 34.203125 59.820312 34.140625 59.789062 34.082031 C 59.222656 33.222656 58.585938 32.414062 57.886719 31.667969 C 57.851562 31.628906 57.824219 31.585938 57.792969 31.546875 C 57.464844 31.148438 57.265625 31.035156 56.761719 31.035156 C 56.601562 31.03125 56.441406 31.128906 56.285156 31.1875 C 55.664062 31.421875 55.027344 31.449219 54.378906 31.378906 C 53.574219 31.296875 52.800781 31.015625 52.128906 30.558594 C 51.855469 30.371094 51.613281 30.148438 51.355469 29.941406 L 51.378906 29.878906 C 51.453125 29.855469 51.527344 29.839844 51.601562 29.828125 C 52.390625 29.746094 53.179688 29.632812 53.972656 29.597656 C 54.714844 29.5625 55.441406 29.707031 56.074219 30.121094 C 56.300781 30.269531 56.488281 30.464844 56.628906 30.699219 C 56.757812 30.917969 56.917969 30.914062 57.15625 30.933594 C 57.101562 30.859375 57.042969 30.785156 56.980469 30.71875 C 56.15625 29.972656 55.324219 29.234375 54.375 28.652344 C 54.308594 28.613281 54.238281 28.59375 54.164062 28.589844 C 53.429688 28.570312 52.710938 28.386719 52.058594 28.050781 C 51.023438 27.511719 50.304688 26.679688 49.855469 25.605469 C 49.835938 25.542969 49.816406 25.476562 49.804688 25.40625 C 49.847656 25.398438 49.890625 25.398438 49.9375 25.402344 C 50.625 25.601562 51.320312 25.785156 52.003906 26.007812 C 52.710938 26.238281 53.367188 26.574219 53.894531 27.128906 C 54.160156 27.40625 54.363281 27.714844 54.410156 28.113281 C 54.410156 28.132812 54.421875 28.152344 54.417969 28.167969 C 54.3125 28.480469 54.554688 28.5625 54.742188 28.710938 C 55.480469 29.296875 56.207031 29.890625 56.925781 30.5 C 57.28125 30.800781 57.609375 31.140625 57.960938 31.46875 C 57.988281 31.390625 57.984375 31.304688 57.957031 31.226562 C 57.933594 31.144531 57.882812 31.078125 57.8125 31.027344 C 57.390625 30.6875 57.027344 30.28125 56.730469 29.828125 C 56.378906 29.28125 56.140625 28.667969 56.019531 28.03125 C 55.878906 27.351562 55.859375 26.65625 55.957031 25.976562 C 56.015625 25.542969 56.042969 25.527344 56.394531 25.785156 C 56.988281 26.222656 57.496094 26.765625 57.890625 27.390625 C 58.113281 27.71875 58.300781 28.070312 58.453125 28.4375 C 58.6875 29.066406 58.84375 29.714844 58.609375 30.394531 C 58.542969 30.632812 58.402344 30.84375 58.214844 31 C 58.121094 31.074219 58.121094 31.152344 58.117188 31.261719 C 58.101562 31.722656 58.421875 31.984375 58.679688 32.285156 C 59.492188 33.226562 60.238281 34.214844 60.847656 35.300781 C 60.878906 35.34375 60.910156 35.382812 60.945312 35.417969 C 61.015625 35.246094 60.953125 35.117188 60.867188 35.003906 C 60.402344 34.386719 60.089844 33.664062 59.957031 32.902344 C 59.738281 31.605469 59.929688 30.386719 60.683594 29.285156 C 60.699219 29.265625 60.714844 29.246094 60.757812 29.195312 C 60.898438 29.347656 61.027344 29.511719 61.144531 29.683594 C 61.585938 30.421875 61.894531 31.230469 62.054688 32.078125 C 62.148438 32.558594 62.226562 33.035156 62.183594 33.523438 C 62.121094 34.199219 61.84375 34.757812 61.28125 35.15625 C 61.226562 35.207031 61.195312 35.28125 61.195312 35.359375 C 61.183594 35.515625 61.183594 35.671875 61.195312 35.828125 C 61.203125 35.898438 61.222656 35.964844 61.253906 36.023438 C 61.722656 36.933594 62.140625 37.859375 62.429688 38.847656 C 62.507812 39.117188 62.585938 39.390625 62.667969 39.660156 C 62.671875 39.683594 62.695312 39.695312 62.710938 39.714844 L 62.773438 39.714844 C 62.777344 39.59375 62.808594 39.464844 62.78125 39.351562 C 62.6875 38.953125 62.558594 38.5625 62.476562 38.160156 C 62.355469 37.566406 62.351562 36.949219 62.46875 36.351562 C 62.652344 35.382812 63.152344 34.589844 63.824219 33.890625 C 63.894531 33.8125 63.988281 33.753906 64.058594 33.675781 C 64.164062 33.5625 64.238281 33.601562 64.28125 33.722656 C 64.371094 33.96875 64.460938 34.21875 64.53125 34.472656 C 64.753906 35.308594 64.765625 36.160156 64.679688 37.011719 C 64.613281 37.652344 64.488281 38.273438 64.074219 38.796875 C 63.832031 39.089844 63.527344 39.324219 63.183594 39.476562 C 63.105469 39.527344 63.039062 39.601562 63 39.6875 C 62.917969 39.839844 62.855469 40.007812 62.824219 40.179688 C 62.804688 40.335938 62.871094 40.5 62.890625 40.664062 C 62.992188 41.425781 63.097656 42.191406 63.183594 42.957031 C 63.234375 43.414062 63.246094 43.875 63.277344 44.347656 C 63.410156 44.320312 63.414062 44.214844 63.414062 44.109375 C 63.410156 43.753906 63.390625 43.398438 63.410156 43.046875 C 63.46875 41.960938 63.914062 41.035156 64.589844 40.210938 C 65.09375 39.613281 65.703125 39.113281 66.382812 38.734375 C 66.535156 38.648438 66.582031 38.664062 66.605469 38.839844 C 66.691406 39.523438 66.644531 40.222656 66.464844 40.890625 C 66.292969 41.582031 66.027344 42.25 65.667969 42.863281 C 65.261719 43.550781 64.707031 44.035156 63.929688 44.242188 C 63.808594 44.273438 63.632812 44.269531 63.578125 44.351562 C 63.417969 44.582031 63.246094 44.808594 63.242188 45.128906 C 63.21875 46.378906 63.039062 47.617188 62.710938 48.820312 C 62.695312 48.878906 62.667969 48.9375 62.652344 48.996094 C 62.632812 49.054688 62.617188 49.113281 62.601562 49.171875 L 62.652344 49.203125 C 62.703125 49.140625 62.75 49.070312 62.78125 48.996094 C 62.945312 48.3125 63.1875 47.660156 63.621094 47.109375 C 63.933594 46.714844 64.28125 46.351562 64.65625 46.019531 C 65.335938 45.417969 66.132812 45.007812 66.988281 44.722656 C 67.101562 44.6875 67.21875 44.664062 67.335938 44.636719 C 67.449219 44.609375 67.511719 44.652344 67.5 44.769531 C 67.480469 44.933594 67.484375 45.105469 67.425781 45.257812 C 67.28125 45.652344 67.117188 46.039062 66.929688 46.417969 C 66.597656 47.054688 66.167969 47.640625 65.65625 48.140625 C 65.101562 48.695312 64.464844 49.105469 63.683594 49.238281 C 63.472656 49.269531 63.261719 49.269531 63.050781 49.238281 C 63 49.230469 62.949219 49.234375 62.898438 49.253906 C 62.851562 49.269531 62.808594 49.300781 62.773438 49.335938 C 62.433594 49.636719 62.304688 50.050781 62.121094 50.445312 C 61.785156 51.15625 61.441406 51.863281 61.058594 52.550781 C 60.757812 53.085938 60.390625 53.585938 60.054688 54.101562 C 60.042969 54.128906 60.035156 54.152344 60.03125 54.183594 C 60.21875 54.171875 60.292969 54.042969 60.386719 53.921875 C 60.671875 53.546875 60.941406 53.15625 61.257812 52.8125 C 61.925781 52.085938 62.773438 51.644531 63.695312 51.332031 C 64.453125 51.082031 65.25 50.976562 66.046875 51.019531 C 66.09375 51.023438 66.144531 51.03125 66.195312 51.035156 C 66.210938 51.292969 66.097656 51.492188 65.980469 51.683594 C 65.664062 52.1875 65.277344 52.636719 64.824219 53.019531 C 64.347656 53.433594 63.851562 53.816406 63.273438 54.078125 C 62.507812 54.429688 61.707031 54.585938 60.863281 54.433594 C 60.855469 54.433594 60.847656 54.433594 60.84375 54.433594 C 60.46875 54.1875 60.128906 54.328125 59.804688 54.539062 C 59.667969 54.636719 59.546875 54.753906 59.445312 54.890625 C 58.621094 55.917969 57.675781 56.839844 56.628906 57.636719 C 56.550781 57.695312 56.476562 57.765625 56.398438 57.828125 C 56.394531 57.835938 56.398438 57.851562 56.398438 57.878906 C 56.558594 57.90625 56.664062 57.808594 56.769531 57.714844 C 57.476562 57.097656 58.269531 56.640625 59.1875 56.433594 C 60.175781 56.210938 61.199219 56.199219 62.191406 56.398438 C 62.605469 56.480469 63.011719 56.601562 63.417969 56.703125 L 63.441406 56.78125 C 63.347656 56.890625 63.257812 57.003906 63.152344 57.101562 C 62.757812 57.476562 62.285156 57.71875 61.796875 57.933594 C 61.371094 58.125 60.933594 58.292969 60.488281 58.433594 C 59.585938 58.710938 58.664062 58.835938 57.726562 58.648438 C 57.355469 58.582031 57.007812 58.414062 56.71875 58.167969 C 56.65625 58.121094 56.578125 58.097656 56.5 58.097656 C 56.136719 58.09375 55.824219 58.222656 55.511719 58.433594 C 54.582031 59.058594 53.585938 59.582031 52.539062 59.988281 C 52.25 60.105469 51.957031 60.207031 51.664062 60.320312 C 51.632812 60.335938 51.601562 60.355469 51.578125 60.378906 L 51.605469 60.441406 C 51.695312 60.433594 51.789062 60.421875 51.878906 60.398438 C 52.257812 60.261719 52.636719 60.101562 53.019531 59.972656 C 53.683594 59.753906 54.378906 59.667969 55.074219 59.726562 C 55.832031 59.785156 56.570312 59.921875 57.261719 60.222656 C 57.773438 60.441406 58.253906 60.730469 58.746094 60.988281 C 58.773438 61.003906 58.789062 61.042969 58.824219 61.082031 C 58.535156 61.320312 58.195312 61.488281 57.832031 61.570312 C 57.238281 61.726562 56.636719 61.84375 56.03125 61.925781 C 55.507812 61.976562 54.980469 61.984375 54.453125 61.941406 C 53.796875 61.902344 53.15625 61.757812 52.566406 61.4375 C 52.265625 61.273438 52.011719 61.042969 51.8125 60.765625 C 51.785156 60.726562 51.75 60.664062 51.710938 60.660156 C 51.433594 60.617188 51.164062 60.519531 50.867188 60.589844 C 50.046875 60.785156 49.222656 60.964844 48.398438 61.140625 C 48.140625 61.199219 47.878906 61.226562 47.621094 61.261719 C 47.542969 61.273438 47.460938 61.273438 47.382812 61.277344 C 47.351562 61.039062 47.445312 60.933594 47.644531 60.898438 C 48.371094 60.765625 49.097656 60.640625 49.816406 60.476562 C 50.304688 60.371094 50.78125 60.210938 51.257812 60.058594 C 51.328125 60.039062 51.386719 59.941406 51.425781 59.867188 C 51.5625 59.617188 51.53125 59.347656 51.507812 59.078125 C 51.425781 58.058594 51.800781 57.195312 52.417969 56.421875 C 52.996094 55.699219 53.742188 55.195312 54.589844 54.847656 C 54.636719 54.832031 54.6875 54.816406 54.734375 54.804688 C 54.757812 54.804688 54.78125 54.808594 54.800781 54.816406 C 54.75 55.070312 54.707031 55.320312 54.652344 55.566406 C 54.53125 56.121094 54.425781 56.679688 54.277344 57.226562 C 53.972656 58.347656 53.328125 59.179688 52.207031 59.570312 C 52.105469 59.601562 52 59.617188 51.894531 59.621094 C 51.707031 59.632812 51.660156 59.6875 51.671875 59.925781 C 51.769531 59.890625 51.859375 59.863281 51.949219 59.832031 C 52.957031 59.46875 53.925781 59.003906 54.839844 58.441406 C 55.257812 58.183594 55.667969 57.898438 56.082031 57.632812 C 56.207031 57.554688 56.246094 57.457031 56.269531 57.3125 C 56.328125 56.988281 56.246094 56.71875 56.109375 56.429688 C 55.765625 55.699219 55.785156 54.929688 55.914062 54.148438 C 56.050781 53.351562 56.398438 52.609375 56.914062 51.992188 C 57.152344 51.699219 57.429688 51.433594 57.6875 51.15625 L 57.742188 51.183594 C 57.773438 51.347656 57.804688 51.511719 57.828125 51.675781 C 57.921875 52.269531 58.042969 52.859375 58.09375 53.457031 C 58.171875 54.328125 58.222656 55.207031 57.675781 55.980469 C 57.421875 56.339844 57.125 56.648438 56.714844 56.828125 C 56.464844 56.933594 56.460938 56.957031 56.503906 57.296875 C 56.640625 57.191406 56.769531 57.113281 56.878906 57.011719 C 57.425781 56.5 57.992188 56.007812 58.507812 55.464844 C 58.960938 54.988281 59.355469 54.453125 59.769531 53.9375 C 59.804688 53.882812 59.816406 53.8125 59.804688 53.746094 C 59.78125 53.585938 59.75 53.421875 59.707031 53.265625 C 59.691406 53.207031 59.660156 53.152344 59.617188 53.105469 C 58.628906 52.078125 58.300781 50.832031 58.449219 49.445312 C 58.527344 48.738281 58.761719 48.058594 59.140625 47.457031 C 59.15625 47.429688 59.171875 47.402344 59.191406 47.378906 C 59.199219 47.371094 59.214844 47.367188 59.25 47.347656 C 59.292969 47.433594 59.332031 47.519531 59.375 47.605469 C 59.695312 48.253906 60.027344 48.898438 60.335938 49.554688 C 60.578125 50.078125 60.777344 50.628906 60.785156 51.203125 C 60.789062 51.933594 60.640625 52.628906 60.03125 53.125 C 59.902344 53.226562 59.902344 53.371094 60.03125 53.566406 C 60.097656 53.476562 60.164062 53.394531 60.21875 53.308594 C 60.753906 52.472656 61.242188 51.613281 61.617188 50.695312 C 61.824219 50.1875 62 49.667969 62.183594 49.148438 C 62.199219 49.070312 62.1875 48.992188 62.152344 48.921875 C 62.089844 48.777344 62.011719 48.640625 61.925781 48.507812 C 61.871094 48.425781 61.800781 48.355469 61.714844 48.304688 C 60.328125 47.519531 59.574219 46.308594 59.316406 44.746094 C 59.226562 44.199219 59.285156 43.660156 59.347656 43.121094 C 59.363281 43.050781 59.386719 42.980469 59.410156 42.914062 Z M 59.410156 42.914062 " fill-opacity="1" fill-rule="nonzero"/><path fill="#ff751f" d="M 18.496094 57.269531 C 18.542969 57.015625 18.507812 56.949219 18.304688 56.851562 C 17.820312 56.617188 17.480469 56.226562 17.203125 55.773438 C 16.847656 55.1875 16.839844 54.53125 16.894531 53.894531 C 16.972656 53 17.121094 52.117188 17.242188 51.226562 C 17.242188 51.214844 17.257812 51.207031 17.269531 51.1875 C 17.292969 51.191406 17.328125 51.191406 17.347656 51.207031 C 18.277344 52.042969 18.929688 53.035156 19.121094 54.308594 C 19.257812 55.148438 19.132812 56.011719 18.761719 56.777344 C 18.675781 56.953125 18.714844 57.199219 18.738281 57.410156 C 18.746094 57.492188 18.859375 57.574219 18.941406 57.636719 C 19.941406 58.363281 21.019531 58.976562 22.15625 59.460938 C 22.492188 59.601562 22.824219 59.738281 23.164062 59.875 C 23.234375 59.894531 23.308594 59.910156 23.382812 59.917969 C 23.34375 59.699219 23.261719 59.617188 23.054688 59.605469 C 22.636719 59.582031 22.289062 59.355469 21.953125 59.121094 C 21.316406 58.671875 20.957031 58.023438 20.761719 57.289062 C 20.578125 56.59375 20.449219 55.886719 20.292969 55.183594 C 20.269531 55.0625 20.242188 54.945312 20.214844 54.824219 L 20.257812 54.785156 C 20.4375 54.863281 20.625 54.929688 20.796875 55.019531 C 21.316406 55.289062 21.8125 55.589844 22.226562 56.015625 C 22.972656 56.792969 23.492188 57.675781 23.5 58.792969 C 23.503906 58.925781 23.5 59.058594 23.480469 59.191406 C 23.445312 59.441406 23.488281 59.699219 23.601562 59.925781 C 23.640625 59.992188 23.703125 60.046875 23.777344 60.070312 C 24.945312 60.46875 26.152344 60.746094 27.375 60.890625 C 27.558594 60.914062 27.613281 61.039062 27.652344 61.179688 C 27.660156 61.195312 27.570312 61.277344 27.527344 61.273438 C 27.289062 61.253906 27.050781 61.226562 26.820312 61.183594 C 26.375 61.105469 25.929688 61.03125 25.492188 60.933594 C 25.015625 60.824219 24.546875 60.691406 24.074219 60.558594 C 23.816406 60.488281 23.285156 60.652344 23.121094 60.867188 C 22.816406 61.269531 22.398438 61.503906 21.9375 61.660156 C 20.960938 61.992188 19.957031 62.027344 18.945312 61.921875 C 18.210938 61.847656 17.480469 61.710938 16.789062 61.429688 C 16.578125 61.34375 16.382812 61.222656 16.140625 61.097656 C 16.199219 61.035156 16.265625 60.980469 16.335938 60.925781 C 17.09375 60.46875 17.890625 60.101562 18.761719 59.902344 C 19.542969 59.714844 20.347656 59.667969 21.144531 59.769531 C 21.835938 59.863281 22.472656 60.109375 23.105469 60.390625 C 23.207031 60.421875 23.308594 60.445312 23.414062 60.453125 L 23.4375 60.386719 C 23.394531 60.355469 23.34375 60.328125 23.292969 60.304688 C 22.179688 59.917969 21.109375 59.421875 20.097656 58.820312 C 19.835938 58.671875 19.582031 58.507812 19.339844 58.328125 C 19.070312 58.117188 18.765625 58.101562 18.453125 58.085938 C 18.378906 58.097656 18.3125 58.132812 18.257812 58.1875 C 17.890625 58.496094 17.457031 58.640625 16.988281 58.699219 C 16.21875 58.796875 15.46875 58.683594 14.71875 58.492188 C 13.882812 58.273438 13.082031 57.933594 12.347656 57.476562 C 12.027344 57.289062 11.75 57.035156 11.539062 56.730469 C 11.820312 56.644531 12.066406 56.5625 12.320312 56.5 C 13.085938 56.3125 13.878906 56.238281 14.667969 56.277344 C 16.042969 56.347656 17.253906 56.816406 18.28125 57.753906 C 18.375 57.835938 18.46875 57.9375 18.648438 57.859375 C 18.488281 57.726562 18.34375 57.613281 18.207031 57.492188 C 17.6875 57.035156 17.148438 56.597656 16.660156 56.113281 C 16.207031 55.660156 15.816406 55.144531 15.378906 54.675781 C 15.253906 54.542969 15.058594 54.472656 14.894531 54.371094 C 14.726562 54.269531 14.574219 54.285156 14.382812 54.355469 C 13.808594 54.566406 13.214844 54.523438 12.625 54.378906 C 11.136719 54.015625 10.0625 53.0625 9.152344 51.878906 C 8.957031 51.632812 8.832031 51.335938 8.796875 51.019531 C 9.078125 51.019531 9.355469 51.007812 9.632812 51.023438 C 11.007812 51.074219 12.328125 51.582031 13.386719 52.46875 C 13.855469 52.871094 14.261719 53.339844 14.585938 53.867188 C 14.671875 54.003906 14.75 54.15625 14.96875 54.1875 C 14.957031 54.136719 14.941406 54.089844 14.917969 54.046875 C 14.234375 53.117188 13.648438 52.125 13.160156 51.078125 C 12.96875 50.671875 12.835938 50.238281 12.628906 49.84375 C 12.515625 49.621094 12.3125 49.445312 12.140625 49.253906 C 12.125 49.234375 12.070312 49.234375 12.035156 49.242188 C 11.285156 49.347656 10.628906 49.113281 10.019531 48.691406 C 9.359375 48.222656 8.796875 47.617188 8.375 46.917969 C 8.078125 46.445312 7.777344 45.96875 7.621094 45.421875 C 7.523438 45.074219 7.453125 44.910156 7.539062 44.621094 C 7.996094 44.695312 8.445312 44.84375 8.859375 45.058594 C 9.277344 45.269531 9.679688 45.511719 10.058594 45.789062 C 10.425781 46.074219 10.769531 46.386719 11.089844 46.722656 C 11.425781 47.058594 11.660156 47.472656 11.863281 47.90625 C 12.058594 48.320312 12.121094 48.792969 12.332031 49.199219 L 12.394531 49.179688 C 12.398438 49.140625 12.394531 49.097656 12.386719 49.054688 C 12.066406 48.125 11.917969 47.15625 11.816406 46.179688 C 11.777344 45.785156 11.804688 45.378906 11.734375 44.988281 C 11.691406 44.75 11.523438 44.527344 11.40625 44.304688 C 11.390625 44.273438 11.332031 44.261719 11.292969 44.257812 C 10.621094 44.203125 10.121094 43.847656 9.695312 43.355469 C 9.214844 42.800781 8.929688 42.132812 8.703125 41.441406 C 8.484375 40.777344 8.363281 40.082031 8.351562 39.378906 C 8.355469 39.183594 8.375 38.988281 8.410156 38.792969 C 8.433594 38.628906 8.539062 38.683594 8.617188 38.738281 C 9.023438 39.027344 9.453125 39.296875 9.832031 39.621094 C 10.546875 40.234375 11.085938 41.027344 11.390625 41.925781 C 11.613281 42.554688 11.632812 43.210938 11.59375 43.875 C 11.582031 44.042969 11.519531 44.226562 11.730469 44.378906 C 11.746094 44.320312 11.753906 44.265625 11.761719 44.207031 C 11.773438 43.128906 11.867188 42.054688 12.039062 40.996094 C 12.046875 40.867188 12.074219 40.742188 12.113281 40.625 C 12.230469 40.351562 12.144531 40.101562 12.074219 39.84375 C 12.054688 39.742188 12.007812 39.648438 11.945312 39.570312 C 11.878906 39.496094 11.792969 39.433594 11.699219 39.398438 C 11.054688 39.113281 10.691406 38.582031 10.503906 37.910156 C 10.191406 36.792969 10.230469 35.667969 10.449219 34.546875 C 10.503906 34.253906 10.644531 33.976562 10.746094 33.691406 C 10.800781 33.550781 10.871094 33.613281 10.945312 33.675781 C 11.371094 34.042969 11.730469 34.480469 12.015625 34.964844 C 12.449219 35.691406 12.660156 36.53125 12.625 37.375 C 12.59375 37.984375 12.480469 38.582031 12.28125 39.15625 C 12.21875 39.34375 12.167969 39.523438 12.300781 39.746094 C 12.378906 39.480469 12.449219 39.246094 12.527344 39.011719 C 12.664062 38.597656 12.785156 38.179688 12.953125 37.78125 C 13.214844 37.160156 13.523438 36.558594 13.789062 35.941406 C 13.84375 35.804688 13.796875 35.628906 13.820312 35.476562 C 13.851562 35.289062 13.785156 35.183594 13.632812 35.074219 C 13.136719 34.710938 12.898438 34.195312 12.839844 33.585938 C 12.765625 32.828125 12.914062 32.105469 13.128906 31.386719 C 13.300781 30.765625 13.5625 30.175781 13.902344 29.628906 C 13.996094 29.484375 14.113281 29.355469 14.257812 29.171875 C 14.429688 29.464844 14.597656 29.707031 14.71875 29.972656 C 15.09375 30.785156 15.183594 31.648438 15.105469 32.53125 C 15.019531 33.414062 14.695312 34.257812 14.164062 34.96875 C 14.078125 35.085938 14.003906 35.207031 14.082031 35.402344 C 14.222656 35.179688 14.347656 34.980469 14.46875 34.785156 C 15.039062 33.875 15.679688 33.019531 16.390625 32.21875 C 16.503906 32.089844 16.625 31.972656 16.730469 31.835938 C 16.777344 31.765625 16.8125 31.683594 16.828125 31.597656 C 16.855469 31.496094 16.851562 31.382812 16.886719 31.28125 C 16.90625 31.234375 16.910156 31.175781 16.894531 31.125 C 16.875 31.074219 16.84375 31.03125 16.796875 31.003906 C 16.476562 30.742188 16.355469 30.382812 16.3125 29.992188 C 16.230469 29.226562 16.441406 28.519531 16.816406 27.867188 C 17.285156 27.042969 17.867188 26.3125 18.652344 25.769531 C 18.96875 25.546875 18.976562 25.550781 19.035156 25.929688 C 19.226562 27.164062 19.0625 28.351562 18.496094 29.464844 C 18.183594 30.058594 17.75 30.582031 17.226562 30.996094 C 17.070312 31.125 17.035156 31.277344 17.015625 31.503906 C 17.097656 31.429688 17.15625 31.390625 17.207031 31.339844 C 18.121094 30.410156 19.105469 29.558594 20.15625 28.789062 C 20.171875 28.769531 20.191406 28.753906 20.214844 28.742188 C 20.527344 28.613281 20.621094 28.390625 20.625 28.042969 C 20.625 27.660156 20.871094 27.347656 21.144531 27.085938 C 21.726562 26.519531 22.433594 26.183594 23.195312 25.949219 C 23.824219 25.753906 24.457031 25.578125 25.085938 25.394531 C 25.132812 25.386719 25.179688 25.382812 25.226562 25.382812 C 25.125 25.621094 25.054688 25.839844 24.949219 26.039062 C 24.570312 26.789062 23.996094 27.414062 23.285156 27.855469 C 22.546875 28.316406 21.699219 28.570312 20.832031 28.597656 C 20.734375 28.605469 20.640625 28.640625 20.558594 28.695312 C 19.628906 29.285156 18.796875 30.007812 17.992188 30.753906 C 17.953125 30.792969 17.917969 30.839844 17.882812 30.882812 C 18.078125 30.960938 18.261719 30.914062 18.335938 30.765625 C 18.527344 30.371094 18.851562 30.121094 19.238281 29.949219 C 19.996094 29.613281 20.789062 29.523438 21.609375 29.621094 C 22.242188 29.699219 22.875 29.773438 23.511719 29.847656 C 23.5625 29.859375 23.613281 29.875 23.664062 29.890625 C 23.59375 29.964844 23.550781 30.023438 23.496094 30.074219 C 22.816406 30.703125 21.972656 31.132812 21.066406 31.3125 C 20.191406 31.484375 19.324219 31.445312 18.480469 31.101562 C 18.355469 31.050781 18.195312 31.078125 18.050781 31.070312 C 18.03125 31.066406 18.011719 31.082031 17.996094 31.078125 C 17.652344 31.015625 17.472656 31.253906 17.285156 31.476562 C 16.769531 32.09375 16.246094 32.707031 15.742188 33.332031 C 15.511719 33.617188 15.320312 33.925781 15.101562 34.238281 C 15.445312 34.261719 15.523438 34.210938 15.605469 33.941406 C 15.746094 33.476562 16.070312 33.167969 16.464844 32.929688 C 16.902344 32.664062 17.390625 32.5 17.898438 32.457031 C 18.628906 32.390625 19.355469 32.335938 20.085938 32.28125 C 20.328125 32.261719 20.570312 32.25 20.808594 32.234375 L 20.839844 32.28125 C 20.777344 32.363281 20.714844 32.445312 20.652344 32.523438 C 19.996094 33.308594 19.191406 33.886719 18.21875 34.195312 C 17.617188 34.386719 16.996094 34.523438 16.351562 34.429688 C 16.273438 34.421875 16.191406 34.40625 16.113281 34.382812 C 15.742188 34.230469 15.394531 34.363281 15.042969 34.457031 C 14.972656 34.488281 14.917969 34.539062 14.882812 34.605469 C 14.207031 35.695312 13.632812 36.847656 13.171875 38.050781 C 13.101562 38.234375 13.050781 38.425781 12.984375 38.621094 C 13.253906 38.625 13.367188 38.519531 13.363281 38.28125 C 13.363281 37.582031 13.707031 37.070312 14.242188 36.671875 C 14.96875 36.125 15.8125 35.824219 16.675781 35.578125 C 17.152344 35.441406 17.621094 35.289062 18.09375 35.144531 C 18.148438 35.136719 18.207031 35.128906 18.265625 35.128906 C 18.160156 35.378906 18.078125 35.601562 17.96875 35.808594 C 17.445312 36.8125 16.621094 37.621094 15.613281 38.121094 C 14.984375 38.4375 14.289062 38.601562 13.589844 38.597656 C 13.503906 38.605469 13.417969 38.628906 13.339844 38.664062 C 13.300781 38.679688 13.273438 38.730469 13.234375 38.742188 C 12.886719 38.855469 12.808594 39.148438 12.71875 39.460938 C 12.4375 40.449219 12.25 41.464844 12.15625 42.492188 C 12.121094 42.894531 12.09375 43.296875 12.058594 43.703125 C 12.269531 43.664062 12.410156 43.492188 12.375 43.34375 C 12.222656 42.6875 12.363281 42.085938 12.707031 41.527344 C 13.113281 40.859375 13.699219 40.378906 14.34375 39.964844 C 14.890625 39.617188 15.445312 39.289062 15.996094 38.953125 C 16.078125 38.898438 16.160156 38.839844 16.273438 38.761719 C 16.289062 38.832031 16.296875 38.90625 16.296875 38.976562 C 16.1875 40.136719 15.804688 41.175781 15.015625 42.046875 C 14.417969 42.707031 13.726562 43.238281 12.855469 43.449219 C 12.488281 43.535156 12.351562 43.839844 12.097656 44.03125 C 12.066406 44.054688 12.070312 44.132812 12.070312 44.1875 C 12.066406 45.199219 12.152344 46.210938 12.335938 47.207031 C 12.417969 47.671875 12.542969 48.132812 12.652344 48.59375 C 12.667969 48.632812 12.691406 48.667969 12.71875 48.703125 C 12.941406 48.445312 12.933594 48.394531 12.777344 48.136719 C 12.542969 47.753906 12.515625 47.328125 12.582031 46.890625 C 12.71875 46.03125 13.230469 45.378906 13.78125 44.765625 C 14.320312 44.167969 14.898438 43.601562 15.457031 43.023438 C 15.507812 42.980469 15.5625 42.9375 15.613281 42.898438 C 15.652344 43.125 15.695312 43.308594 15.710938 43.492188 C 15.753906 44.152344 15.753906 44.808594 15.558594 45.449219 C 15.378906 46.007812 15.113281 46.535156 14.769531 47.011719 C 14.375 47.558594 13.859375 48.011719 13.265625 48.328125 C 13.160156 48.382812 13.113281 48.535156 13.027344 48.625 C 12.753906 48.917969 12.820312 49.226562 12.941406 49.558594 C 13.328125 50.648438 13.820312 51.695312 14.410156 52.683594 C 14.558594 52.917969 14.703125 53.15625 14.851562 53.390625 C 14.890625 53.445312 14.933594 53.496094 14.980469 53.554688 C 15.105469 53.3125 15.09375 53.230469 14.917969 53.085938 C 14.535156 52.773438 14.398438 52.324219 14.277344 51.871094 C 14.109375 51.257812 14.273438 50.679688 14.460938 50.105469 C 14.753906 49.207031 15.234375 48.398438 15.652344 47.554688 C 15.683594 47.488281 15.710938 47.421875 15.757812 47.324219 C 15.804688 47.367188 15.847656 47.417969 15.886719 47.46875 C 16.371094 48.363281 16.679688 49.304688 16.59375 50.335938 C 16.507812 51.390625 16.152344 52.339844 15.398438 53.109375 C 15.195312 53.316406 15.15625 53.828125 15.3125 54.042969 C 16.054688 55.054688 16.910156 55.976562 17.867188 56.785156 C 18.058594 56.949219 18.253906 57.105469 18.445312 57.265625 C 18.453125 57.273438 18.46875 57.269531 18.496094 57.269531 Z M 18.496094 57.269531 " fill-opacity="1" fill-rule="nonzero"/><g clip-path="url(#d76bcdcf64)"><path fill="#ffffff" d="M 27 37.59375 C 27 32.507812 27 27.421875 27 22.335938 C 27 20.34375 28.273438 18.722656 30.195312 18.285156 C 30.488281 18.21875 30.789062 18.1875 31.085938 18.1875 C 35.292969 18.183594 39.5 18.179688 43.707031 18.183594 C 45.71875 18.1875 47.378906 19.578125 47.722656 21.574219 C 47.808594 22.082031 47.78125 22.617188 47.785156 23.140625 C 47.796875 32.414062 47.804688 41.6875 47.8125 50.960938 C 47.8125 51.648438 47.796875 52.335938 47.78125 53.023438 C 47.746094 54.792969 46.546875 56.367188 44.859375 56.832031 C 44.484375 56.933594 44.101562 56.984375 43.714844 56.988281 C 39.5 57 35.289062 57 31.074219 56.992188 C 30.101562 57 29.160156 56.652344 28.421875 56.019531 C 27.683594 55.382812 27.195312 54.496094 27.046875 53.527344 C 27.015625 53.296875 27 53.0625 27 52.832031 C 27 47.75 27 42.671875 27 37.59375 Z M 28.625 24.664062 L 28.625 50.5 L 46.183594 50.5 L 46.183594 24.664062 Z M 46.179688 52.148438 L 28.628906 52.148438 C 28.628906 52.539062 28.582031 52.921875 28.636719 53.289062 C 28.8125 54.539062 29.917969 55.398438 31.125 55.378906 C 32.722656 55.355469 34.324219 55.375 35.925781 55.375 C 38.519531 55.375 41.113281 55.375 43.707031 55.375 C 44.226562 55.386719 44.738281 55.226562 45.164062 54.917969 C 46.109375 54.230469 46.28125 53.246094 46.179688 52.148438 Z M 28.617188 23.023438 L 46.167969 23.023438 C 46.167969 22.667969 46.195312 22.320312 46.164062 21.976562 C 46.066406 20.804688 45.011719 19.8125 43.847656 19.8125 C 39.550781 19.804688 35.257812 19.804688 30.964844 19.8125 C 30.234375 19.8125 29.640625 20.136719 29.167969 20.691406 C 28.585938 21.367188 28.554688 22.179688 28.617188 23.023438 Z M 28.617188 23.023438 " fill-opacity="1" fill-rule="nonzero"/></g><path fill="#ffffff" d="M 30.3125 38.394531 C 30.300781 34.457031 33.488281 31.230469 37.398438 31.222656 C 41.304688 31.214844 44.480469 34.425781 44.488281 38.386719 C 44.484375 40.28125 43.734375 42.097656 42.40625 43.4375 C 41.078125 44.773438 39.28125 45.527344 37.40625 45.527344 C 35.527344 45.53125 33.730469 44.78125 32.398438 43.441406 C 31.070312 42.105469 30.320312 40.292969 30.3125 38.394531 Z M 37.40625 43.945312 C 38.128906 43.945312 38.847656 43.800781 39.515625 43.519531 C 40.183594 43.242188 40.792969 42.832031 41.300781 42.3125 C 41.8125 41.796875 42.21875 41.179688 42.492188 40.503906 C 42.769531 39.828125 42.910156 39.105469 42.90625 38.375 C 42.902344 37.644531 42.757812 36.917969 42.476562 36.246094 C 42.195312 35.570312 41.785156 34.960938 41.273438 34.449219 C 40.757812 33.933594 40.144531 33.527344 39.476562 33.253906 C 38.804688 32.980469 38.085938 32.839844 37.363281 32.847656 C 34.347656 32.859375 31.898438 35.359375 31.914062 38.414062 C 31.925781 41.464844 34.398438 43.953125 37.40625 43.945312 Z M 37.40625 43.945312 " fill-opacity="1" fill-rule="nonzero"/><path fill="#ffffff" d="M 36.605469 39.609375 L 36.605469 39.414062 C 36.605469 38.074219 36.605469 36.734375 36.605469 35.394531 C 36.605469 35.058594 36.746094 34.792969 37.046875 34.636719 C 37.175781 34.570312 37.320312 34.535156 37.464844 34.546875 C 37.609375 34.558594 37.746094 34.609375 37.863281 34.695312 C 38.117188 34.871094 38.210938 35.128906 38.210938 35.429688 C 38.210938 36.757812 38.210938 38.082031 38.210938 39.410156 L 38.210938 39.667969 C 38.367188 39.503906 38.488281 39.378906 38.609375 39.257812 C 38.960938 38.90625 39.457031 38.886719 39.78125 39.207031 C 40.109375 39.53125 40.097656 40.03125 39.75 40.386719 C 39.167969 40.988281 38.582031 41.582031 37.992188 42.175781 C 37.917969 42.257812 37.828125 42.324219 37.726562 42.367188 C 37.628906 42.410156 37.519531 42.433594 37.410156 42.433594 C 37.300781 42.433594 37.191406 42.410156 37.089844 42.367188 C 36.992188 42.324219 36.898438 42.257812 36.824219 42.179688 C 36.230469 41.574219 35.632812 40.972656 35.042969 40.363281 C 34.609375 39.914062 34.773438 39.203125 35.351562 39.019531 C 35.492188 38.96875 35.640625 38.960938 35.785156 38.996094 C 35.929688 39.03125 36.0625 39.109375 36.164062 39.214844 C 36.300781 39.351562 36.429688 39.492188 36.5625 39.632812 Z M 36.605469 39.609375 " fill-opacity="1" fill-rule="nonzero"/></svg>