<svg xmlns="http://www.w3.org/2000/svg" xmlns:xlink="http://www.w3.org/1999/xlink" width="100" zoomAndPan="magnify" viewBox="0 0 75 74.999997" height="100" preserveAspectRatio="xMidYMid meet" version="1.0"><rect x="-7.5" width="90" fill="#ffffff" y="-7.5" height="89.999996" fill-opacity="1"/><rect x="-7.5" width="90" fill="#000000" y="-7.5" height="89.999996" fill-opacity="1"/><path fill="#ff751f" d="M 59.410156 36.914062 C 59.449219 36.9375 59.484375 36.964844 59.515625 36.992188 C 60.195312 37.710938 60.894531 38.410156 61.546875 39.152344 C 62.019531 39.695312 62.386719 40.320312 62.441406 41.074219 C 62.476562 41.503906 62.441406 41.917969 62.136719 42.265625 C 62.050781 42.363281 62.140625 42.574219 62.328125 42.707031 C 62.4375 42.265625 62.570312 41.839844 62.636719 41.398438 C 62.753906 40.640625 62.839844 39.871094 62.917969 39.105469 C 62.949219 38.785156 62.9375 38.460938 62.945312 38.136719 C 62.945312 38.117188 62.949219 38.09375 62.941406 38.082031 C 62.746094 37.886719 62.546875 37.691406 62.351562 37.5 C 61.386719 37.292969 60.621094 36.753906 59.976562 36.027344 C 59.203125 35.164062 58.757812 34.054688 58.71875 32.890625 C 58.714844 32.859375 58.71875 32.832031 58.722656 32.765625 C 58.867188 32.855469 58.988281 32.929688 59.113281 33.007812 C 59.679688 33.363281 60.261719 33.703125 60.816406 34.078125 C 61.484375 34.527344 62.089844 35.042969 62.445312 35.796875 C 62.667969 36.273438 62.757812 36.765625 62.648438 37.289062 C 62.601562 37.515625 62.667969 37.605469 62.921875 37.707031 C 62.929688 37.550781 62.925781 37.394531 62.917969 37.242188 C 62.828125 36.460938 62.761719 35.679688 62.628906 34.910156 C 62.523438 34.296875 62.339844 33.695312 62.175781 33.09375 C 62.152344 33.003906 62.058594 32.921875 61.980469 32.859375 C 61.878906 32.785156 61.769531 32.722656 61.65625 32.671875 C 61.570312 32.625 61.472656 32.597656 61.375 32.589844 C 59.78125 32.5625 58.550781 31.839844 57.570312 30.617188 C 57.257812 30.226562 57.003906 29.792969 56.824219 29.328125 C 56.800781 29.265625 56.785156 29.203125 56.75 29.101562 C 56.996094 29.175781 57.203125 29.230469 57.410156 29.296875 C 58.035156 29.492188 58.664062 29.675781 59.285156 29.890625 C 59.910156 30.105469 60.503906 30.394531 60.992188 30.855469 C 61.398438 31.234375 61.640625 31.699219 61.65625 32.269531 C 61.664062 32.539062 61.710938 32.59375 62.03125 32.640625 C 61.972656 32.472656 61.929688 32.3125 61.863281 32.160156 C 61.578125 31.488281 61.3125 30.808594 60.992188 30.152344 C 60.726562 29.601562 60.402344 29.082031 60.097656 28.554688 C 60.066406 28.503906 59.992188 28.480469 59.933594 28.449219 C 59.90625 28.433594 59.867188 28.445312 59.84375 28.433594 C 59.546875 28.289062 59.25 28.300781 58.9375 28.378906 C 58.210938 28.554688 57.503906 28.417969 56.808594 28.199219 C 55.792969 27.882812 54.976562 27.265625 54.289062 26.453125 C 54.257812 26.417969 54.230469 26.375 54.203125 26.332031 C 54.191406 26.308594 54.183594 26.28125 54.175781 26.257812 C 54.371094 26.257812 54.550781 26.25 54.734375 26.257812 C 55.234375 26.277344 55.734375 26.296875 56.234375 26.335938 C 56.949219 26.386719 57.660156 26.492188 58.3125 26.800781 C 58.769531 27.015625 59.167969 27.328125 59.367188 27.832031 C 59.382812 27.859375 59.394531 27.886719 59.402344 27.917969 C 59.4375 28.199219 59.417969 28.191406 59.875 28.265625 C 59.851562 28.203125 59.820312 28.140625 59.789062 28.082031 C 59.222656 27.222656 58.585938 26.414062 57.886719 25.667969 C 57.851562 25.628906 57.824219 25.585938 57.792969 25.546875 C 57.464844 25.148438 57.265625 25.035156 56.761719 25.035156 C 56.601562 25.03125 56.441406 25.128906 56.285156 25.1875 C 55.664062 25.421875 55.027344 25.449219 54.378906 25.378906 C 53.574219 25.296875 52.800781 25.015625 52.128906 24.558594 C 51.855469 24.371094 51.613281 24.148438 51.355469 23.941406 L 51.378906 23.878906 C 51.453125 23.855469 51.527344 23.839844 51.601562 23.828125 C 52.390625 23.746094 53.179688 23.632812 53.972656 23.597656 C 54.714844 23.5625 55.441406 23.707031 56.074219 24.121094 C 56.300781 24.269531 56.488281 24.464844 56.628906 24.699219 C 56.757812 24.917969 56.917969 24.914062 57.15625 24.933594 C 57.101562 24.859375 57.042969 24.785156 56.980469 24.71875 C 56.15625 23.972656 55.324219 23.234375 54.375 22.652344 C 54.308594 22.613281 54.238281 22.59375 54.164062 22.589844 C 53.429688 22.570312 52.710938 22.386719 52.058594 22.050781 C 51.023438 21.515625 50.304688 20.679688 49.855469 19.605469 C 49.835938 19.542969 49.816406 19.476562 49.804688 19.40625 C 49.847656 19.398438 49.890625 19.398438 49.9375 19.402344 C 50.625 19.601562 51.320312 19.785156 52.003906 20.007812 C 52.710938 20.238281 53.367188 20.574219 53.894531 21.128906 C 54.160156 21.40625 54.363281 21.714844 54.410156 22.113281 C 54.410156 22.132812 54.421875 22.152344 54.417969 22.167969 C 54.3125 22.480469 54.554688 22.5625 54.742188 22.710938 C 55.480469 23.296875 56.207031 23.890625 56.925781 24.5 C 57.28125 24.800781 57.609375 25.140625 57.960938 25.46875 C 57.988281 25.390625 57.984375 25.304688 57.957031 25.226562 C 57.933594 25.144531 57.882812 25.078125 57.8125 25.027344 C 57.390625 24.6875 57.027344 24.28125 56.730469 23.828125 C 56.378906 23.28125 56.140625 22.667969 56.019531 22.03125 C 55.878906 21.351562 55.859375 20.65625 55.957031 19.976562 C 56.015625 19.542969 56.042969 19.527344 56.394531 19.785156 C 56.988281 20.222656 57.496094 20.765625 57.890625 21.390625 C 58.113281 21.71875 58.300781 22.070312 58.453125 22.4375 C 58.6875 23.066406 58.84375 23.714844 58.609375 24.394531 C 58.542969 24.632812 58.402344 24.84375 58.214844 25 C 58.121094 25.074219 58.121094 25.152344 58.117188 25.261719 C 58.101562 25.722656 58.421875 25.984375 58.679688 26.285156 C 59.492188 27.226562 60.238281 28.214844 60.847656 29.300781 C 60.878906 29.34375 60.910156 29.382812 60.945312 29.417969 C 61.015625 29.246094 60.953125 29.117188 60.867188 29.003906 C 60.402344 28.386719 60.089844 27.664062 59.957031 26.902344 C 59.738281 25.605469 59.929688 24.386719 60.683594 23.285156 C 60.699219 23.265625 60.714844 23.246094 60.757812 23.195312 C 60.898438 23.347656 61.027344 23.511719 61.144531 23.683594 C 61.585938 24.421875 61.894531 25.230469 62.054688 26.078125 C 62.148438 26.558594 62.226562 27.035156 62.183594 27.523438 C 62.121094 28.199219 61.84375 28.757812 61.28125 29.15625 C 61.226562 29.207031 61.195312 29.28125 61.195312 29.359375 C 61.183594 29.515625 61.183594 29.671875 61.195312 29.828125 C 61.203125 29.898438 61.222656 29.964844 61.253906 30.023438 C 61.722656 30.933594 62.140625 31.859375 62.429688 32.847656 C 62.507812 33.117188 62.585938 33.390625 62.667969 33.660156 C 62.671875 33.683594 62.695312 33.695312 62.710938 33.714844 L 62.773438 33.714844 C 62.777344 33.59375 62.808594 33.464844 62.78125 33.351562 C 62.6875 32.953125 62.558594 32.5625 62.476562 32.160156 C 62.355469 31.566406 62.351562 30.949219 62.46875 30.351562 C 62.652344 29.382812 63.152344 28.589844 63.824219 27.890625 C 63.894531 27.8125 63.988281 27.753906 64.058594 27.675781 C 64.164062 27.5625 64.238281 27.601562 64.28125 27.722656 C 64.371094 27.96875 64.460938 28.21875 64.53125 28.472656 C 64.753906 29.308594 64.765625 30.160156 64.679688 31.011719 C 64.613281 31.652344 64.488281 32.273438 64.074219 32.796875 C 63.832031 33.089844 63.527344 33.324219 63.183594 33.476562 C 63.105469 33.527344 63.039062 33.601562 63 33.6875 C 62.917969 33.839844 62.855469 34.007812 62.824219 34.179688 C 62.804688 34.335938 62.871094 34.5 62.890625 34.664062 C 62.992188 35.425781 63.097656 36.191406 63.183594 36.957031 C 63.234375 37.414062 63.246094 37.875 63.277344 38.347656 C 63.410156 38.320312 63.414062 38.214844 63.414062 38.109375 C 63.410156 37.753906 63.390625 37.398438 63.410156 37.046875 C 63.46875 35.960938 63.914062 35.035156 64.589844 34.210938 C 65.09375 33.613281 65.703125 33.113281 66.382812 32.734375 C 66.535156 32.648438 66.582031 32.664062 66.605469 32.839844 C 66.691406 33.523438 66.644531 34.222656 66.464844 34.890625 C 66.292969 35.582031 66.027344 36.25 65.667969 36.863281 C 65.261719 37.550781 64.707031 38.035156 63.929688 38.242188 C 63.808594 38.273438 63.632812 38.269531 63.578125 38.351562 C 63.417969 38.582031 63.246094 38.808594 63.242188 39.128906 C 63.21875 40.378906 63.039062 41.617188 62.710938 42.820312 C 62.695312 42.878906 62.667969 42.9375 62.652344 42.996094 C 62.632812 43.054688 62.617188 43.113281 62.601562 43.171875 L 62.652344 43.203125 C 62.703125 43.140625 62.75 43.070312 62.78125 42.996094 C 62.945312 42.3125 63.1875 41.660156 63.621094 41.109375 C 63.933594 40.714844 64.28125 40.351562 64.65625 40.019531 C 65.335938 39.417969 66.132812 39.007812 66.988281 38.722656 C 67.101562 38.6875 67.21875 38.664062 67.335938 38.636719 C 67.449219 38.609375 67.511719 38.652344 67.5 38.769531 C 67.480469 38.933594 67.484375 39.105469 67.425781 39.257812 C 67.28125 39.652344 67.117188 40.039062 66.929688 40.417969 C 66.597656 41.054688 66.167969 41.640625 65.65625 42.140625 C 65.101562 42.695312 64.464844 43.105469 63.683594 43.238281 C 63.472656 43.269531 63.261719 43.269531 63.050781 43.238281 C 63 43.230469 62.949219 43.234375 62.898438 43.253906 C 62.851562 43.269531 62.808594 43.300781 62.773438 43.335938 C 62.433594 43.636719 62.304688 44.050781 62.121094 44.445312 C 61.785156 45.15625 61.441406 45.863281 61.058594 46.550781 C 60.757812 47.085938 60.390625 47.585938 60.054688 48.101562 C 60.042969 48.128906 60.035156 48.152344 60.03125 48.183594 C 60.21875 48.171875 60.292969 48.042969 60.386719 47.921875 C 60.671875 47.546875 60.941406 47.15625 61.257812 46.8125 C 61.925781 46.085938 62.773438 45.644531 63.695312 45.332031 C 64.453125 45.082031 65.25 44.976562 66.046875 45.019531 C 66.09375 45.023438 66.144531 45.03125 66.195312 45.035156 C 66.210938 45.292969 66.097656 45.492188 65.980469 45.683594 C 65.664062 46.1875 65.277344 46.636719 64.824219 47.019531 C 64.347656 47.433594 63.851562 47.816406 63.273438 48.078125 C 62.507812 48.429688 61.707031 48.585938 60.863281 48.433594 C 60.855469 48.433594 60.847656 48.433594 60.84375 48.433594 C 60.46875 48.1875 60.128906 48.328125 59.804688 48.539062 C 59.667969 48.636719 59.546875 48.753906 59.445312 48.890625 C 58.621094 49.917969 57.675781 50.839844 56.628906 51.636719 C 56.550781 51.695312 56.476562 51.765625 56.398438 51.828125 C 56.394531 51.835938 56.398438 51.851562 56.398438 51.878906 C 56.558594 51.90625 56.664062 51.808594 56.769531 51.714844 C 57.476562 51.097656 58.269531 50.640625 59.1875 50.433594 C 60.175781 50.210938 61.199219 50.199219 62.191406 50.398438 C 62.605469 50.480469 63.011719 50.601562 63.417969 50.703125 L 63.441406 50.78125 C 63.347656 50.890625 63.257812 51.003906 63.152344 51.101562 C 62.757812 51.476562 62.285156 51.71875 61.796875 51.933594 C 61.371094 52.125 60.933594 52.292969 60.488281 52.433594 C 59.585938 52.710938 58.664062 52.835938 57.726562 52.648438 C 57.355469 52.582031 57.007812 52.414062 56.71875 52.167969 C 56.65625 52.121094 56.578125 52.097656 56.5 52.097656 C 56.136719 52.09375 55.824219 52.222656 55.511719 52.433594 C 54.582031 53.058594 53.585938 53.582031 52.539062 53.988281 C 52.25 54.105469 51.957031 54.207031 51.664062 54.320312 C 51.632812 54.335938 51.601562 54.355469 51.578125 54.378906 L 51.605469 54.441406 C 51.695312 54.433594 51.789062 54.421875 51.878906 54.398438 C 52.257812 54.261719 52.636719 54.101562 53.019531 53.972656 C 53.683594 53.753906 54.378906 53.667969 55.074219 53.726562 C 55.832031 53.785156 56.570312 53.921875 57.261719 54.222656 C 57.773438 54.441406 58.253906 54.730469 58.746094 54.988281 C 58.773438 55.003906 58.789062 55.042969 58.824219 55.082031 C 58.535156 55.320312 58.195312 55.488281 57.832031 55.570312 C 57.238281 55.726562 56.636719 55.84375 56.03125 55.925781 C 55.507812 55.976562 54.980469 55.984375 54.453125 55.941406 C 53.796875 55.902344 53.15625 55.757812 52.566406 55.4375 C 52.265625 55.273438 52.011719 55.042969 51.8125 54.765625 C 51.785156 54.726562 51.75 54.664062 51.710938 54.660156 C 51.433594 54.617188 51.164062 54.519531 50.867188 54.589844 C 50.046875 54.785156 49.222656 54.964844 48.398438 55.140625 C 48.140625 55.199219 47.878906 55.226562 47.621094 55.261719 C 47.542969 55.273438 47.460938 55.273438 47.382812 55.277344 C 47.351562 55.039062 47.445312 54.933594 47.644531 54.898438 C 48.371094 54.765625 49.097656 54.640625 49.816406 54.476562 C 50.304688 54.371094 50.78125 54.210938 51.257812 54.058594 C 51.328125 54.039062 51.386719 53.941406 51.425781 53.867188 C 51.5625 53.617188 51.53125 53.347656 51.507812 53.078125 C 51.425781 52.058594 51.800781 51.195312 52.417969 50.421875 C 52.996094 49.699219 53.742188 49.195312 54.589844 48.847656 C 54.636719 48.832031 54.6875 48.816406 54.734375 48.804688 C 54.757812 48.804688 54.78125 48.808594 54.800781 48.816406 C 54.75 49.070312 54.707031 49.320312 54.652344 49.566406 C 54.53125 50.121094 54.425781 50.679688 54.277344 51.226562 C 53.972656 52.347656 53.328125 53.179688 52.207031 53.570312 C 52.105469 53.601562 52 53.617188 51.894531 53.621094 C 51.707031 53.632812 51.660156 53.6875 51.671875 53.925781 C 51.769531 53.890625 51.859375 53.863281 51.949219 53.832031 C 52.957031 53.46875 53.925781 53.003906 54.839844 52.441406 C 55.257812 52.183594 55.667969 51.898438 56.082031 51.632812 C 56.207031 51.554688 56.246094 51.457031 56.269531 51.3125 C 56.328125 50.988281 56.246094 50.71875 56.109375 50.429688 C 55.765625 49.699219 55.785156 48.929688 55.914062 48.148438 C 56.050781 47.351562 56.398438 46.609375 56.914062 45.992188 C 57.152344 45.699219 57.429688 45.433594 57.6875 45.15625 L 57.742188 45.183594 C 57.773438 45.347656 57.804688 45.511719 57.828125 45.675781 C 57.921875 46.269531 58.042969 46.859375 58.09375 47.457031 C 58.171875 48.328125 58.222656 49.207031 57.675781 49.980469 C 57.421875 50.339844 57.125 50.648438 56.714844 50.828125 C 56.464844 50.933594 56.460938 50.957031 56.503906 51.296875 C 56.640625 51.191406 56.769531 51.113281 56.878906 51.011719 C 57.425781 50.5 57.992188 50.007812 58.507812 49.464844 C 58.960938 48.988281 59.355469 48.453125 59.769531 47.9375 C 59.804688 47.882812 59.816406 47.8125 59.804688 47.746094 C 59.78125 47.585938 59.75 47.421875 59.707031 47.265625 C 59.691406 47.207031 59.660156 47.152344 59.617188 47.105469 C 58.628906 46.078125 58.300781 44.832031 58.449219 43.445312 C 58.527344 42.738281 58.761719 42.058594 59.140625 41.457031 C 59.15625 41.429688 59.171875 41.402344 59.191406 41.378906 C 59.199219 41.371094 59.214844 41.367188 59.25 41.347656 C 59.292969 41.433594 59.332031 41.519531 59.375 41.605469 C 59.695312 42.253906 60.027344 42.898438 60.335938 43.554688 C 60.578125 44.078125 60.777344 44.628906 60.785156 45.203125 C 60.789062 45.933594 60.640625 46.628906 60.03125 47.125 C 59.902344 47.226562 59.902344 47.371094 60.03125 47.566406 C 60.097656 47.476562 60.164062 47.394531 60.21875 47.308594 C 60.753906 46.472656 61.242188 45.613281 61.617188 44.695312 C 61.824219 44.1875 62 43.667969 62.183594 43.148438 C 62.199219 43.070312 62.1875 42.992188 62.152344 42.921875 C 62.089844 42.777344 62.011719 42.640625 61.925781 42.507812 C 61.871094 42.425781 61.800781 42.355469 61.714844 42.304688 C 60.328125 41.519531 59.574219 40.308594 59.316406 38.746094 C 59.226562 38.199219 59.285156 37.660156 59.347656 37.121094 C 59.363281 37.050781 59.386719 36.980469 59.410156 36.914062 Z M 59.410156 36.914062 " fill-opacity="1" fill-rule="nonzero"/><path fill="#ff751f" d="M 18.496094 51.269531 C 18.542969 51.015625 18.507812 50.949219 18.304688 50.851562 C 17.820312 50.617188 17.480469 50.226562 17.203125 49.773438 C 16.847656 49.1875 16.839844 48.53125 16.894531 47.894531 C 16.972656 47 17.121094 46.117188 17.242188 45.226562 C 17.242188 45.214844 17.257812 45.207031 17.269531 45.1875 C 17.292969 45.191406 17.328125 45.191406 17.347656 45.207031 C 18.277344 46.042969 18.929688 47.035156 19.121094 48.308594 C 19.257812 49.148438 19.132812 50.011719 18.761719 50.777344 C 18.675781 50.953125 18.714844 51.199219 18.738281 51.410156 C 18.746094 51.492188 18.859375 51.574219 18.941406 51.636719 C 19.941406 52.363281 21.019531 52.976562 22.15625 53.460938 C 22.492188 53.601562 22.824219 53.738281 23.164062 53.875 C 23.234375 53.894531 23.308594 53.910156 23.382812 53.917969 C 23.34375 53.699219 23.261719 53.617188 23.054688 53.605469 C 22.636719 53.582031 22.289062 53.355469 21.953125 53.121094 C 21.316406 52.671875 20.957031 52.023438 20.761719 51.289062 C 20.578125 50.59375 20.449219 49.886719 20.292969 49.183594 C 20.269531 49.0625 20.242188 48.945312 20.214844 48.824219 L 20.257812 48.785156 C 20.4375 48.863281 20.625 48.929688 20.796875 49.019531 C 21.316406 49.289062 21.8125 49.589844 22.226562 50.015625 C 22.972656 50.792969 23.492188 51.675781 23.5 52.792969 C 23.503906 52.925781 23.5 53.058594 23.480469 53.191406 C 23.445312 53.441406 23.488281 53.699219 23.601562 53.925781 C 23.640625 53.992188 23.703125 54.046875 23.777344 54.070312 C 24.945312 54.46875 26.152344 54.746094 27.375 54.890625 C 27.558594 54.914062 27.613281 55.039062 27.652344 55.179688 C 27.660156 55.195312 27.570312 55.277344 27.527344 55.273438 C 27.289062 55.253906 27.050781 55.226562 26.820312 55.183594 C 26.375 55.105469 25.929688 55.03125 25.492188 54.933594 C 25.015625 54.824219 24.546875 54.691406 24.074219 54.558594 C 23.816406 54.488281 23.285156 54.652344 23.121094 54.867188 C 22.816406 55.269531 22.398438 55.503906 21.9375 55.660156 C 20.960938 55.992188 19.957031 56.027344 18.945312 55.921875 C 18.210938 55.847656 17.480469 55.710938 16.789062 55.429688 C 16.578125 55.34375 16.382812 55.222656 16.140625 55.097656 C 16.199219 55.035156 16.265625 54.980469 16.335938 54.925781 C 17.09375 54.46875 17.890625 54.101562 18.761719 53.902344 C 19.542969 53.714844 20.347656 53.667969 21.144531 53.769531 C 21.835938 53.863281 22.472656 54.109375 23.105469 54.390625 C 23.207031 54.421875 23.308594 54.445312 23.414062 54.453125 L 23.4375 54.386719 C 23.394531 54.355469 23.34375 54.328125 23.292969 54.304688 C 22.179688 53.917969 21.109375 53.421875 20.097656 52.820312 C 19.835938 52.671875 19.582031 52.507812 19.339844 52.328125 C 19.070312 52.117188 18.765625 52.101562 18.453125 52.085938 C 18.378906 52.097656 18.3125 52.132812 18.257812 52.1875 C 17.890625 52.496094 17.457031 52.640625 16.988281 52.699219 C 16.21875 52.796875 15.46875 52.683594 14.71875 52.492188 C 13.882812 52.273438 13.082031 51.933594 12.347656 51.476562 C 12.027344 51.289062 11.75 51.035156 11.539062 50.730469 C 11.820312 50.644531 12.066406 50.5625 12.320312 50.5 C 13.085938 50.3125 13.878906 50.238281 14.667969 50.277344 C 16.042969 50.347656 17.253906 50.816406 18.28125 51.753906 C 18.375 51.835938 18.46875 51.9375 18.648438 51.859375 C 18.488281 51.726562 18.34375 51.613281 18.207031 51.492188 C 17.6875 51.035156 17.148438 50.597656 16.660156 50.113281 C 16.207031 49.660156 15.816406 49.144531 15.378906 48.675781 C 15.253906 48.542969 15.058594 48.472656 14.894531 48.371094 C 14.726562 48.269531 14.574219 48.285156 14.382812 48.355469 C 13.808594 48.566406 13.214844 48.523438 12.625 48.378906 C 11.136719 48.015625 10.0625 47.0625 9.152344 45.878906 C 8.957031 45.632812 8.832031 45.335938 8.796875 45.019531 C 9.078125 45.019531 9.355469 45.007812 9.632812 45.023438 C 11.007812 45.074219 12.328125 45.582031 13.386719 46.46875 C 13.855469 46.871094 14.261719 47.339844 14.585938 47.867188 C 14.671875 48.003906 14.75 48.15625 14.96875 48.1875 C 14.957031 48.136719 14.941406 48.089844 14.917969 48.046875 C 14.234375 47.117188 13.648438 46.125 13.160156 45.078125 C 12.96875 44.671875 12.835938 44.238281 12.628906 43.84375 C 12.515625 43.621094 12.3125 43.445312 12.140625 43.253906 C 12.125 43.234375 12.070312 43.234375 12.035156 43.242188 C 11.285156 43.347656 10.628906 43.113281 10.019531 42.691406 C 9.359375 42.222656 8.796875 41.617188 8.375 40.917969 C 8.078125 40.445312 7.777344 39.96875 7.621094 39.421875 C 7.523438 39.074219 7.453125 38.910156 7.539062 38.621094 C 7.996094 38.695312 8.445312 38.84375 8.859375 39.058594 C 9.277344 39.269531 9.679688 39.511719 10.058594 39.789062 C 10.425781 40.074219 10.769531 40.386719 11.089844 40.722656 C 11.425781 41.058594 11.660156 41.472656 11.863281 41.90625 C 12.058594 42.320312 12.121094 42.792969 12.332031 43.199219 L 12.394531 43.179688 C 12.398438 43.140625 12.394531 43.097656 12.386719 43.054688 C 12.066406 42.125 11.917969 41.15625 11.816406 40.179688 C 11.777344 39.785156 11.804688 39.378906 11.734375 38.988281 C 11.691406 38.75 11.523438 38.527344 11.40625 38.304688 C 11.390625 38.273438 11.332031 38.261719 11.292969 38.257812 C 10.621094 38.203125 10.121094 37.847656 9.695312 37.355469 C 9.214844 36.800781 8.929688 36.132812 8.703125 35.441406 C 8.484375 34.777344 8.363281 34.082031 8.351562 33.378906 C 8.355469 33.183594 8.375 32.988281 8.410156 32.792969 C 8.433594 32.628906 8.539062 32.683594 8.617188 32.738281 C 9.023438 33.027344 9.453125 33.296875 9.832031 33.621094 C 10.546875 34.234375 11.085938 35.027344 11.390625 35.925781 C 11.613281 36.554688 11.632812 37.210938 11.59375 37.875 C 11.582031 38.042969 11.519531 38.226562 11.730469 38.378906 C 11.746094 38.320312 11.753906 38.265625 11.761719 38.207031 C 11.773438 37.128906 11.867188 36.054688 12.039062 34.996094 C 12.046875 34.867188 12.074219 34.742188 12.113281 34.625 C 12.230469 34.351562 12.144531 34.101562 12.074219 33.84375 C 12.054688 33.742188 12.007812 33.648438 11.945312 33.570312 C 11.878906 33.496094 11.792969 33.433594 11.699219 33.398438 C 11.054688 33.113281 10.691406 32.582031 10.503906 31.910156 C 10.191406 30.792969 10.230469 29.667969 10.449219 28.546875 C 10.503906 28.253906 10.644531 27.976562 10.746094 27.691406 C 10.800781 27.550781 10.871094 27.613281 10.945312 27.675781 C 11.371094 28.042969 11.730469 28.480469 12.015625 28.964844 C 12.449219 29.691406 12.660156 30.53125 12.625 31.375 C 12.59375 31.984375 12.480469 32.582031 12.28125 33.15625 C 12.21875 33.34375 12.167969 33.523438 12.300781 33.746094 C 12.378906 33.480469 12.449219 33.246094 12.527344 33.011719 C 12.664062 32.597656 12.785156 32.179688 12.953125 31.78125 C 13.214844 31.160156 13.523438 30.558594 13.789062 29.941406 C 13.84375 29.804688 13.796875 29.628906 13.820312 29.476562 C 13.851562 29.289062 13.785156 29.183594 13.632812 29.074219 C 13.136719 28.710938 12.898438 28.195312 12.839844 27.585938 C 12.765625 26.828125 12.914062 26.105469 13.128906 25.386719 C 13.300781 24.765625 13.5625 24.175781 13.902344 23.628906 C 13.996094 23.484375 14.113281 23.355469 14.257812 23.171875 C 14.429688 23.464844 14.597656 23.707031 14.71875 23.972656 C 15.09375 24.785156 15.183594 25.648438 15.105469 26.53125 C 15.019531 27.414062 14.695312 28.257812 14.164062 28.96875 C 14.078125 29.085938 14.003906 29.207031 14.082031 29.402344 C 14.222656 29.179688 14.347656 28.980469 14.46875 28.785156 C 15.039062 27.875 15.679688 27.019531 16.390625 26.21875 C 16.503906 26.089844 16.625 25.972656 16.730469 25.835938 C 16.777344 25.765625 16.8125 25.683594 16.828125 25.597656 C 16.855469 25.496094 16.851562 25.382812 16.886719 25.28125 C 16.90625 25.234375 16.910156 25.175781 16.894531 25.125 C 16.875 25.074219 16.84375 25.03125 16.796875 25.003906 C 16.476562 24.742188 16.355469 24.382812 16.3125 23.992188 C 16.230469 23.226562 16.441406 22.519531 16.816406 21.867188 C 17.285156 21.042969 17.867188 20.3125 18.652344 19.769531 C 18.96875 19.546875 18.976562 19.550781 19.035156 19.929688 C 19.226562 21.164062 19.0625 22.351562 18.496094 23.464844 C 18.183594 24.058594 17.75 24.582031 17.226562 24.996094 C 17.070312 25.125 17.035156 25.277344 17.015625 25.503906 C 17.097656 25.429688 17.15625 25.390625 17.207031 25.339844 C 18.121094 24.410156 19.105469 23.558594 20.15625 22.789062 C 20.171875 22.769531 20.191406 22.753906 20.214844 22.742188 C 20.527344 22.613281 20.621094 22.390625 20.625 22.042969 C 20.625 21.660156 20.871094 21.347656 21.144531 21.085938 C 21.726562 20.519531 22.433594 20.183594 23.195312 19.949219 C 23.824219 19.753906 24.457031 19.578125 25.085938 19.394531 C 25.132812 19.386719 25.179688 19.382812 25.226562 19.382812 C 25.125 19.621094 25.054688 19.839844 24.949219 20.039062 C 24.570312 20.789062 23.996094 21.414062 23.285156 21.855469 C 22.546875 22.316406 21.699219 22.570312 20.832031 22.597656 C 20.734375 22.605469 20.640625 22.640625 20.558594 22.695312 C 19.628906 23.285156 18.796875 24.007812 17.992188 24.753906 C 17.953125 24.792969 17.917969 24.839844 17.882812 24.882812 C 18.078125 24.960938 18.261719 24.914062 18.335938 24.765625 C 18.527344 24.371094 18.851562 24.121094 19.238281 23.949219 C 19.996094 23.613281 20.789062 23.523438 21.609375 23.621094 C 22.242188 23.699219 22.875 23.773438 23.511719 23.847656 C 23.5625 23.859375 23.613281 23.875 23.664062 23.890625 C 23.59375 23.964844 23.550781 24.023438 23.496094 24.074219 C 22.816406 24.703125 21.972656 25.132812 21.066406 25.3125 C 20.191406 25.484375 19.324219 25.445312 18.480469 25.101562 C 18.355469 25.050781 18.195312 25.078125 18.050781 25.070312 C 18.03125 25.066406 18.011719 25.082031 17.996094 25.078125 C 17.652344 25.015625 17.472656 25.253906 17.285156 25.476562 C 16.769531 26.09375 16.246094 26.707031 15.742188 27.332031 C 15.511719 27.617188 15.320312 27.925781 15.101562 28.238281 C 15.445312 28.261719 15.523438 28.210938 15.605469 27.941406 C 15.746094 27.476562 16.070312 27.167969 16.464844 26.929688 C 16.902344 26.664062 17.390625 26.5 17.898438 26.457031 C 18.628906 26.390625 19.355469 26.335938 20.085938 26.28125 C 20.328125 26.261719 20.570312 26.25 20.808594 26.234375 L 20.839844 26.28125 C 20.777344 26.363281 20.714844 26.445312 20.652344 26.523438 C 19.996094 27.308594 19.191406 27.886719 18.21875 28.195312 C 17.617188 28.386719 16.996094 28.523438 16.351562 28.429688 C 16.273438 28.421875 16.191406 28.40625 16.113281 28.382812 C 15.742188 28.230469 15.394531 28.363281 15.042969 28.457031 C 14.972656 28.488281 14.917969 28.539062 14.882812 28.605469 C 14.207031 29.695312 13.632812 30.847656 13.171875 32.050781 C 13.101562 32.234375 13.050781 32.425781 12.984375 32.621094 C 13.253906 32.625 13.367188 32.519531 13.363281 32.28125 C 13.363281 31.582031 13.707031 31.070312 14.242188 30.671875 C 14.96875 30.125 15.8125 29.824219 16.675781 29.578125 C 17.152344 29.441406 17.621094 29.289062 18.09375 29.144531 C 18.148438 29.136719 18.207031 29.128906 18.265625 29.128906 C 18.160156 29.378906 18.078125 29.601562 17.96875 29.808594 C 17.445312 30.8125 16.621094 31.621094 15.613281 32.121094 C 14.984375 32.4375 14.289062 32.601562 13.589844 32.597656 C 13.503906 32.605469 13.417969 32.628906 13.339844 32.664062 C 13.300781 32.679688 13.273438 32.730469 13.234375 32.742188 C 12.886719 32.855469 12.808594 33.148438 12.71875 33.460938 C 12.4375 34.449219 12.25 35.464844 12.15625 36.492188 C 12.121094 36.894531 12.09375 37.296875 12.058594 37.703125 C 12.269531 37.664062 12.410156 37.492188 12.375 37.34375 C 12.222656 36.6875 12.363281 36.085938 12.707031 35.527344 C 13.113281 34.859375 13.699219 34.378906 14.34375 33.964844 C 14.890625 33.617188 15.445312 33.289062 15.996094 32.953125 C 16.078125 32.898438 16.160156 32.839844 16.273438 32.761719 C 16.289062 32.832031 16.296875 32.90625 16.296875 32.976562 C 16.1875 34.136719 15.804688 35.175781 15.015625 36.046875 C 14.417969 36.707031 13.726562 37.238281 12.855469 37.449219 C 12.488281 37.535156 12.351562 37.839844 12.097656 38.03125 C 12.066406 38.054688 12.070312 38.132812 12.070312 38.1875 C 12.066406 39.199219 12.152344 40.210938 12.335938 41.207031 C 12.417969 41.671875 12.542969 42.132812 12.652344 42.59375 C 12.667969 42.632812 12.691406 42.667969 12.71875 42.703125 C 12.941406 42.445312 12.933594 42.394531 12.777344 42.136719 C 12.542969 41.753906 12.515625 41.328125 12.582031 40.890625 C 12.71875 40.03125 13.230469 39.378906 13.78125 38.765625 C 14.320312 38.167969 14.898438 37.601562 15.457031 37.023438 C 15.507812 36.980469 15.5625 36.9375 15.613281 36.898438 C 15.652344 37.125 15.695312 37.308594 15.710938 37.492188 C 15.753906 38.152344 15.753906 38.808594 15.558594 39.449219 C 15.378906 40.007812 15.113281 40.535156 14.769531 41.011719 C 14.375 41.558594 13.859375 42.011719 13.265625 42.328125 C 13.160156 42.382812 13.113281 42.535156 13.027344 42.625 C 12.753906 42.917969 12.820312 43.226562 12.941406 43.558594 C 13.328125 44.648438 13.820312 45.695312 14.410156 46.683594 C 14.558594 46.917969 14.703125 47.15625 14.851562 47.390625 C 14.890625 47.445312 14.933594 47.496094 14.980469 47.554688 C 15.105469 47.3125 15.09375 47.230469 14.917969 47.085938 C 14.535156 46.773438 14.398438 46.324219 14.277344 45.871094 C 14.109375 45.257812 14.273438 44.679688 14.460938 44.105469 C 14.753906 43.207031 15.234375 42.398438 15.652344 41.554688 C 15.683594 41.488281 15.710938 41.421875 15.757812 41.324219 C 15.804688 41.367188 15.847656 41.417969 15.886719 41.46875 C 16.371094 42.363281 16.679688 43.304688 16.59375 44.335938 C 16.507812 45.390625 16.152344 46.339844 15.398438 47.109375 C 15.195312 47.316406 15.15625 47.828125 15.3125 48.042969 C 16.054688 49.054688 16.910156 49.976562 17.867188 50.785156 C 18.058594 50.949219 18.253906 51.105469 18.445312 51.265625 C 18.453125 51.273438 18.46875 51.269531 18.496094 51.269531 Z M 18.496094 51.269531 " fill-opacity="1" fill-rule="nonzero"/><path fill="#ffffff" d="M 48.644531 52.023438 C 47.625 52.042969 46.621094 52.265625 45.691406 52.679688 C 44.300781 53.277344 42.910156 53.882812 41.507812 54.453125 C 40.753906 54.777344 39.941406 54.929688 39.125 54.894531 C 38.304688 54.859375 37.503906 54.644531 36.78125 54.257812 C 31.730469 51.632812 26.683594 48.996094 21.644531 46.347656 C 20.722656 45.863281 20.351562 44.921875 20.695312 44.023438 C 21.042969 43.113281 21.964844 42.679688 22.988281 42.96875 C 25.347656 43.644531 27.707031 44.320312 30.066406 45.007812 C 30.5 45.132812 30.894531 45.097656 31.183594 44.710938 C 31.421875 44.394531 31.46875 44.027344 31.230469 43.707031 C 31.082031 43.5 30.871094 43.34375 30.632812 43.261719 C 28.210938 42.542969 25.785156 41.828125 23.351562 41.160156 C 22.484375 40.914062 21.5625 41.003906 20.757812 41.40625 C 19.953125 41.8125 19.324219 42.503906 19 43.351562 C 18.671875 44.195312 18.667969 45.132812 18.988281 45.980469 C 19.304688 46.828125 19.925781 47.527344 20.726562 47.9375 C 25.800781 50.609375 30.886719 53.269531 35.976562 55.910156 C 38.039062 56.980469 40.171875 57.007812 42.3125 56.117188 C 43.710938 55.539062 45.101562 54.933594 46.492188 54.339844 C 48.367188 53.519531 48.433594 53.542969 49.792969 53.992188 C 50.386719 54.1875 50.890625 53.980469 51.0625 53.472656 C 51.246094 52.9375 50.980469 52.445312 50.363281 52.25 C 49.019531 51.824219 51.148438 52.523438 49.792969 52.136719 C 49.425781 52.03125 49.027344 52.054688 48.644531 52.023438 Z M 48.644531 52.023438 " fill-opacity="1" fill-rule="nonzero"/><path fill="#ffffff" d="M 32.273438 23.277344 C 30.648438 23.28125 29.0625 23.769531 27.714844 24.683594 C 26.367188 25.597656 25.316406 26.894531 24.695312 28.414062 C 24.078125 29.929688 23.917969 31.597656 24.238281 33.207031 C 24.558594 34.816406 25.34375 36.292969 26.492188 37.449219 C 27.644531 38.609375 29.109375 39.394531 30.703125 39.714844 C 32.296875 40.03125 33.945312 39.867188 35.445312 39.234375 C 36.945312 38.605469 38.226562 37.542969 39.128906 36.175781 C 40.027344 34.8125 40.507812 33.207031 40.507812 31.566406 C 40.511719 30.472656 40.300781 29.394531 39.886719 28.382812 C 39.472656 27.375 38.867188 26.457031 38.101562 25.6875 C 37.335938 24.917969 36.425781 24.308594 35.425781 23.894531 C 34.425781 23.480469 33.355469 23.269531 32.273438 23.277344 Z M 38.683594 31.574219 C 38.683594 32.851562 38.308594 34.101562 37.605469 35.164062 C 36.902344 36.226562 35.90625 37.054688 34.738281 37.542969 C 33.570312 38.03125 32.285156 38.160156 31.042969 37.910156 C 29.804688 37.664062 28.664062 37.046875 27.769531 36.144531 C 26.875 35.242188 26.265625 34.09375 26.015625 32.839844 C 25.769531 31.589844 25.894531 30.289062 26.378906 29.109375 C 26.859375 27.929688 27.679688 26.921875 28.730469 26.210938 C 29.78125 25.5 31.015625 25.117188 32.28125 25.117188 C 33.121094 25.113281 33.953125 25.277344 34.730469 25.601562 C 35.507812 25.925781 36.214844 26.402344 36.8125 27 C 37.40625 27.601562 37.878906 28.3125 38.199219 29.097656 C 38.519531 29.882812 38.683594 30.726562 38.683594 31.574219 Z M 38.683594 31.574219 " fill-opacity="1" fill-rule="nonzero"/><path fill="#ffffff" d="M 42.84375 40.335938 C 40.722656 40.308594 38.617188 40.710938 36.648438 41.515625 C 35.871094 41.832031 35.085938 42.144531 34.308594 42.464844 C 32.730469 43.117188 31.90625 44.574219 32.15625 46.277344 C 32.375 47.785156 33.683594 48.976562 35.304688 49.097656 C 35.660156 49.113281 36.015625 49.074219 36.363281 48.984375 C 38.464844 48.464844 40.566406 47.925781 42.671875 47.394531 C 43.332031 47.230469 43.636719 46.785156 43.488281 46.214844 C 43.34375 45.679688 42.863281 45.449219 42.214844 45.613281 C 40.136719 46.136719 38.0625 46.664062 35.988281 47.183594 C 35.34375 47.347656 34.761719 47.234375 34.3125 46.707031 C 34.113281 46.496094 33.980469 46.226562 33.9375 45.9375 C 33.890625 45.648438 33.933594 45.355469 34.0625 45.09375 C 34.203125 44.785156 34.460938 44.4375 34.753906 44.3125 C 36.417969 43.597656 38.0625 42.816406 39.851562 42.453125 C 42.320312 41.949219 44.726562 42.1875 47.125 42.921875 C 49.496094 43.648438 51.890625 44.304688 54.277344 44.988281 C 54.988281 45.191406 55.582031 44.699219 55.492188 43.996094 C 55.433594 43.558594 55.152344 43.328125 54.742188 43.210938 C 52.476562 42.5625 50.214844 41.914062 47.957031 41.246094 C 46.199219 40.722656 44.425781 40.292969 42.84375 40.335938 Z M 42.84375 40.335938 " fill-opacity="1" fill-rule="nonzero"/><path fill="#ffffff" d="M 40.976562 18.574219 C 38.648438 18.628906 36.730469 19.527344 35.246094 21.335938 C 34.835938 21.835938 34.851562 22.410156 35.273438 22.757812 C 35.699219 23.105469 36.234375 23.003906 36.65625 22.507812 C 38.203125 20.695312 40.152344 20.015625 42.429688 20.640625 C 44.707031 21.269531 46.042969 22.875 46.453125 25.222656 C 46.929688 27.953125 45.074219 30.742188 42.355469 31.441406 C 42.242188 31.472656 42.132812 31.496094 42.019531 31.523438 C 41.480469 31.667969 41.171875 32.128906 41.285156 32.613281 C 41.3125 32.738281 41.363281 32.855469 41.433594 32.957031 C 41.507812 33.0625 41.597656 33.148438 41.707031 33.214844 C 41.8125 33.28125 41.933594 33.324219 42.058594 33.34375 C 42.183594 33.363281 42.308594 33.351562 42.429688 33.320312 C 44.777344 32.789062 46.53125 31.457031 47.589844 29.273438 C 49.789062 24.714844 46.941406 19.359375 41.953125 18.640625 C 41.628906 18.59375 41.296875 18.597656 40.976562 18.574219 Z M 40.976562 18.574219 " fill-opacity="1" fill-rule="nonzero"/><path fill="#ffffff" d="M 33.265625 36.378906 C 33.21875 36.378906 33.167969 36.367188 33.121094 36.351562 C 33.074219 36.335938 33.03125 36.320312 33 36.304688 L 32.855469 36.230469 L 29.59375 33.617188 C 29.5625 33.601562 29.519531 33.578125 29.472656 33.546875 C 29.441406 33.496094 29.40625 33.441406 29.375 33.375 C 29.34375 33.324219 29.320312 33.269531 29.304688 33.203125 C 29.285156 33.136719 29.277344 33.074219 29.277344 33.007812 C 29.277344 32.878906 29.296875 32.765625 29.328125 32.667969 C 29.375 32.570312 29.449219 32.480469 29.542969 32.398438 C 29.625 32.316406 29.707031 32.257812 29.785156 32.226562 C 29.882812 32.195312 29.988281 32.179688 30.101562 32.179688 L 31.742188 32.179688 C 32.210938 32.179688 32.535156 32.074219 32.710938 31.859375 C 32.902344 31.648438 33.015625 31.496094 33.050781 31.398438 L 29.738281 31.398438 C 29.640625 31.398438 29.554688 31.382812 29.472656 31.347656 C 29.390625 31.316406 29.320312 31.265625 29.253906 31.203125 C 29.191406 31.136719 29.140625 31.0625 29.109375 30.980469 C 29.078125 30.902344 29.0625 30.8125 29.0625 30.714844 C 29.0625 30.632812 29.078125 30.550781 29.109375 30.46875 C 29.140625 30.386719 29.191406 30.316406 29.253906 30.25 C 29.320312 30.183594 29.390625 30.136719 29.472656 30.101562 C 29.554688 30.054688 29.640625 30.03125 29.738281 30.03125 L 32.976562 30.054688 C 32.945312 30.003906 32.847656 29.882812 32.6875 29.6875 C 32.542969 29.476562 32.226562 29.371094 31.742188 29.371094 L 29.738281 29.320312 C 29.738281 29.320312 29.664062 29.3125 29.519531 29.296875 C 29.390625 29.265625 29.285156 29.191406 29.207031 29.078125 C 29.125 28.964844 29.078125 28.84375 29.0625 28.710938 C 29.0625 28.582031 29.0625 28.515625 29.0625 28.515625 C 29.078125 28.453125 29.101562 28.394531 29.132812 28.347656 C 29.167969 28.28125 29.207031 28.222656 29.253906 28.175781 C 29.320312 28.09375 29.390625 28.035156 29.472656 28.003906 C 29.554688 27.972656 29.640625 27.957031 29.738281 27.957031 L 34.5 27.957031 C 34.59375 27.957031 34.683594 27.972656 34.765625 28.003906 C 34.84375 28.035156 34.917969 28.085938 34.980469 28.152344 C 35.046875 28.214844 35.09375 28.289062 35.128906 28.371094 C 35.160156 28.453125 35.175781 28.542969 35.175781 28.640625 C 35.175781 28.71875 35.160156 28.808594 35.128906 28.90625 C 35.09375 28.988281 35.046875 29.0625 34.980469 29.125 C 34.917969 29.191406 34.84375 29.242188 34.765625 29.273438 C 34.683594 29.304688 34.59375 29.320312 34.5 29.320312 L 34.113281 29.320312 C 34.160156 29.417969 34.226562 29.542969 34.304688 29.6875 C 34.402344 29.820312 34.46875 29.933594 34.5 30.03125 L 34.621094 30.03125 C 34.714844 30.03125 34.78125 30.054688 34.8125 30.101562 C 34.863281 30.136719 34.917969 30.183594 34.980469 30.25 C 35.046875 30.316406 35.09375 30.386719 35.128906 30.46875 C 35.160156 30.550781 35.175781 30.632812 35.175781 30.714844 C 35.175781 30.8125 35.160156 30.902344 35.128906 30.980469 C 35.09375 31.0625 35.046875 31.136719 34.980469 31.203125 C 34.917969 31.265625 34.84375 31.316406 34.765625 31.347656 C 34.683594 31.382812 34.59375 31.398438 34.5 31.398438 L 34.449219 31.398438 C 34.402344 31.707031 34.304688 31.964844 34.160156 32.179688 C 34.03125 32.375 33.855469 32.570312 33.628906 32.765625 C 33.371094 33.023438 33.082031 33.21875 32.757812 33.351562 C 32.453125 33.480469 32.113281 33.546875 31.742188 33.546875 L 31.671875 33.546875 L 33.675781 35.132812 C 33.726562 35.179688 33.757812 35.222656 33.773438 35.253906 C 33.804688 35.285156 33.832031 35.320312 33.847656 35.351562 C 33.878906 35.402344 33.902344 35.457031 33.917969 35.523438 C 33.933594 35.570312 33.941406 35.628906 33.941406 35.695312 C 33.941406 35.773438 33.925781 35.863281 33.894531 35.960938 C 33.863281 36.042969 33.8125 36.117188 33.75 36.183594 C 33.683594 36.246094 33.613281 36.296875 33.53125 36.328125 C 33.453125 36.359375 33.363281 36.378906 33.265625 36.378906 Z M 33.265625 36.378906 " fill-opacity="1" fill-rule="nonzero"/></svg>