<svg xmlns="http://www.w3.org/2000/svg" width="48" height="48" fill="none" viewBox="0 0 48 48"><g fill="#191919"><path d="m13.829 9.75 1.997.214-.558 8.785-1.996-.214zm18.818 0-1.997.214.89 8.785 1.995-.214zm-10.508.364h2.005v7.897H22.14z"/><g fill-rule="evenodd" clip-rule="evenodd"><path d="M23.674 9.916A.916.916 0 0 1 24.59 9h15.483c.397 0 .749.253.872.63l1.727 5.218c.19.51.328.977.328 1.607 0 1.35-.786 2.431-1.787 3.135-.998.704-2.3 1.107-3.586 1.107-1.287 0-3.324-.38-4.236-.878a6.842 6.842 0 0 1-1.268-.89c-.969.873-2.529 1.807-4.417 1.807-1.152 0-2.249-.46-3.077-.99a6.576 6.576 0 0 1-1.098-.87c-.29-.288-.56-.622-.713-.97a.916.916 0 0 1 1.476-1.036.916.916 0 0 1 .203.297c.021.049.115.195.33.411.202.201.474.42.79.624.651.416 1.404.7 2.09.7 1.725 0 3.165-1.18 3.704-1.88a.917.917 0 0 1 1.493.052c.195.294.667.753 1.37 1.137.69.378 2.425.653 3.353.653.927 0 1.855-.296 2.529-.771.674-.476 1.008-1.056 1.008-1.638 0-.323-.058-.558-.216-.983a1.833 1.833 0 0 1-.012-.032l-1.525-4.607H24.59a.916.916 0 0 1-.917-.917z"/><path d="M7.047 9.63A.917.917 0 0 1 7.92 9H24.59a.919.919 0 0 1 .918.916.915.915 0 0 1-.918.917H8.583L7.06 15.44a.773.773 0 0 1-.012.032c-.16.43-.214.637-.214.956 0 .582.337 1.169 1.015 1.65.676.478 1.604.777 2.53.777.93 0 1.786-.272 2.479-.647.706-.382 1.179-.837 1.372-1.128a.918.918 0 0 1 1.493-.05c.54.7 2.005 1.898 3.731 1.898.687 0 1.481-.294 2.178-.723.338-.21.63-.435.846-.64.108-.102.191-.195.251-.27.032-.041.062-.084.087-.129a.915.915 0 0 1 1.209-.472.92.92 0 0 1 .55.858.915.915 0 0 1-.077.349c-.16.363-.453.705-.753.992a7.06 7.06 0 0 1-1.15.874c-.86.527-1.991.994-3.14.994-1.894 0-3.471-.948-4.446-1.827-.39.342-.82.64-1.277.885a7.088 7.088 0 0 1-3.353.869 6.327 6.327 0 0 1-3.593-1.116C5.787 18.865 5 17.78 5 16.429c0-.633.135-1.075.323-1.58z"/><path d="M7.716 18.206a.962.962 0 0 1 .95.972v16.226c0 .366.18.778.536 1.119.354.34.799.53 1.194.53H37.68c.842 0 1.65-.825 1.65-1.65V19.679a.957.957 0 0 1 .95-.972.96.96 0 0 1 .949.973v15.726c0 1.935-1.698 3.594-3.549 3.594H10.396c-.951 0-1.845-.432-2.494-1.058-.65-.625-1.136-1.523-1.136-2.536V19.178a.959.959 0 0 1 .95-.972z"/><path d="M30.244 25.897c-.649 0-1.201.554-1.201 1.17v9.446a.916.916 0 0 1-1.28.893.917.917 0 0 1-.554-.893v-9.447c0-1.66 1.407-3.002 3.036-3.002h2.417c1.661 0 2.982 1.374 2.982 3.002v9.447a.916.916 0 0 1-.918.916.919.919 0 0 1-.918-.916v-9.447c0-.645-.527-1.17-1.146-1.17zm-16.732 0a.026.026 0 0 0-.026.025v6.59l.002.01.006.007.009.006.009.002h8.486l.01-.002.007-.006.006-.01.001-.008v-6.598l-.006-.01-.009-.005zm10.346 6.653v-6.627a1.857 1.857 0 0 0-1.86-1.859h-8.486a1.864 1.864 0 0 0-1.862 1.859v6.589a1.86 1.86 0 0 0 1.863 1.86H22a1.866 1.866 0 0 0 1.86-1.822z"/></g></g></svg>