<svg xmlns="http://www.w3.org/2000/svg" width="44" height="44" fill="none" viewBox="0 0 44 44"><path fill="#fff" d="M32.504 17.118 23.507 6.533h-5.293l2.646 12.702 11.644 2.646v-4.763Z"/><path fill="#000" fill-rule="evenodd" d="M23.017 7.592h-3.501l2.242 10.762 9.687 2.201v-3.048l-8.428-9.915Zm9.487 9.526L23.507 6.533h-5.293l2.646 12.702 11.644 2.646v-4.763Z" clip-rule="evenodd"/><path fill="#fff" d="M9.582 8.65c0-1.169.948-2.117 2.117-2.117h15.878-4.07v8.468c0 1.17.948 2.117 2.117 2.117h6.88V33.69c0 1.17-.948 2.117-2.117 2.117H11.7a2.117 2.117 0 0 1-2.117-2.117V8.65Z"/><path fill="#000" fill-rule="evenodd" d="M23.507 6.533v8.468c0 1.17.948 2.117 2.117 2.117h6.88V33.69c0 1.17-.948 2.117-2.117 2.117H11.7a2.117 2.117 0 0 1-2.117-2.117V8.65c0-1.169.948-2.117 2.117-2.117h11.808Zm7.939 11.644h-5.822A3.175 3.175 0 0 1 22.449 15v-7.41h-10.75c-.584 0-1.058.475-1.058 1.06v25.038c0 .585.474 1.059 1.058 1.059h18.688c.585 0 1.059-.474 1.059-1.059V18.177Z" clip-rule="evenodd"/><path fill="#191919" stroke="#191919" stroke-width=".265" d="M19.466 13.137h-.474a2.575 2.575 0 0 0-.363-.828 2.176 2.176 0 0 0-.585-.641v-.027h1.422a.309.309 0 0 0 .223-.08.326.326 0 0 0 .111-.24.25.25 0 0 0-.111-.214.269.269 0 0 0-.223-.107h-5.491a.269.269 0 0 0-.223.107.394.394 0 0 0-.112.187v.107c.019 0 .028.008.028.026v.08h.028v.027c.018 0 .028.01.028.027.018 0 .028.009.028.027h.027c.02 0 .028.009.028.026h.028l.028.027h.112l2.313.053c.465 0 .883.143 1.254.428.372.267.623.605.753 1.015h-4.32a.354.354 0 0 0-.251.107.282.282 0 0 0-.084.213c0 .09.028.17.084.24.074.054.158.08.25.08h4.377c-.037.517-.26.953-.67 1.31-.39.356-.854.534-1.393.534h-1.895c-.13 0-.251.044-.363.133a.46.46 0 0 0-.139.348c0 .07.019.142.056.213a.488.488 0 0 0 .14.134l3.734 2.83c.037.019.074.037.112.054a.309.309 0 0 0 .334-.053.326.326 0 0 0 .112-.24.178.178 0 0 0-.056-.134.333.333 0 0 0-.084-.134l-3.317-2.51h1.366c.725 0 1.347-.24 1.868-.721.539-.481.827-1.06.864-1.736v-.027h.446a.308.308 0 0 0 .223-.08.326.326 0 0 0 .111-.24.25.25 0 0 0-.111-.214.269.269 0 0 0-.223-.107Z"/><path fill="#fff" stroke="#000" stroke-linejoin="round" stroke-width="1.058" d="M34.331 28.268v8.93H19.426v-8.93a.53.53 0 0 0-.529-.529h-1.28c-.18 0-.297-.1-.345-.224a.302.302 0 0 1 .096-.358.678.678 0 0 0 .016-.013l8.495-7.752c.559-.51 1.44-.51 1.998 0l8.495 7.752.016.014a.3.3 0 0 1 .096.357.351.351 0 0 1-.345.224H34.86a.53.53 0 0 0-.529.53Z"/><path fill="#fff" d="M29.546 37.594H24.2v-5.56c0-1.653 1.197-2.994 2.673-2.994s2.673 1.34 2.673 2.994v5.56Z"/><path fill="#000" fill-rule="evenodd" d="M25.258 36.536v-4.502c0-1.185.833-1.935 1.615-1.935s1.615.75 1.615 1.935v4.502h-3.23Zm4.288 1.058v-5.56c0-1.653-1.197-2.994-2.673-2.994S24.2 30.38 24.2 32.034v5.56h5.346Z" clip-rule="evenodd"/></svg>