<svg xmlns="http://www.w3.org/2000/svg" width="44" height="44" fill="none" viewBox="0 0 44 44"><path fill="#000" fill-rule="evenodd" d="M10.236 10.453c0-.36.292-.653.653-.653h22.213a.653.653 0 0 1 0 1.306H10.89a.653.653 0 0 1-.653-.653ZM10.236 21.778c0-5.894 4.777-10.672 10.67-10.672h1.307c6.375 0 11.543 5.168 11.543 11.543v8.71a2.831 2.831 0 0 1-2.832 2.832H13.067a2.831 2.831 0 0 1-2.831-2.831v-9.582Zm10.67-9.365a9.364 9.364 0 0 0-9.364 9.365v9.582c0 .842.683 1.524 1.525 1.524h17.857c.842 0 1.525-.682 1.525-1.524v-8.711c0-5.653-4.583-10.236-10.236-10.236h-1.306Z" clip-rule="evenodd"/><path fill="#fff" d="M17.422 29.836a4.573 4.573 0 0 1 9.147 0v6.969a4.573 4.573 0 0 1-9.147 0v-6.969Z"/><path fill="#000" fill-rule="evenodd" d="M16.769 29.836a5.227 5.227 0 0 1 10.453 0v6.969a5.227 5.227 0 1 1-10.453 0v-6.969Zm5.227-3.92a3.92 3.92 0 0 0-3.92 3.92v6.969a3.92 3.92 0 1 0 7.84 0v-6.969a3.92 3.92 0 0 0-3.92-3.92Z" clip-rule="evenodd"/><path fill="#fff" d="M15.68 10.671a6.315 6.315 0 1 1 12.631 0v.436a6.316 6.316 0 0 1-12.631 0v-.436Z"/><path fill="#000" fill-rule="evenodd" d="M15.027 10.671a6.969 6.969 0 0 1 13.937 0v.436a6.969 6.969 0 0 1-13.937 0v-.436Zm6.969-5.662a5.662 5.662 0 0 0-5.663 5.662v.436a5.662 5.662 0 1 0 11.325 0v-.436a5.662 5.662 0 0 0-5.663-5.662Z" clip-rule="evenodd"/><ellipse cx="21.996" cy="10.889" fill="#000" rx="1.089" ry=".871"/></svg>