<svg width="46" height="46" viewBox="0 0 46 46" fill="none" xmlns="http://www.w3.org/2000/svg">
<path fill-rule="evenodd" clip-rule="evenodd" d="M12.4363 10.0468C12.4363 7.92762 14.1542 6.20966 16.2734 6.20966H30.2268C32.346 6.20966 34.0639 7.92762 34.0639 10.0468V35.1628C34.0639 37.282 32.346 39 30.2268 39H16.2734C14.1542 39 12.4363 37.282 12.4363 35.1628V10.0468ZM16.2734 8.30265C15.3102 8.30265 14.5293 9.08354 14.5293 10.0468V35.1628C14.5293 36.1262 15.3102 36.907 16.2734 36.907H30.2268C31.1901 36.907 31.9709 36.1262 31.9709 35.1628V10.0468C31.9709 9.08354 31.1901 8.30265 30.2268 8.30265H16.2734Z" fill="#FDD535"/>
<path fill-rule="evenodd" clip-rule="evenodd" d="M16.7786 6.70598C16.9693 6.39745 17.3061 6.20966 17.6688 6.20966H28.8315C29.1941 6.20966 29.531 6.39745 29.7217 6.70598C29.9123 7.0145 29.9297 7.39976 29.7675 7.72416L28.7578 9.7435C28.3442 10.5708 27.4987 11.0933 26.5738 11.0933H19.9265C19.0016 11.0933 18.1561 10.5708 17.7425 9.7435L16.7328 7.72416C16.5706 7.39976 16.5879 7.0145 16.7786 6.70598ZM19.3621 8.30265L19.6145 8.80749C19.6736 8.92567 19.7944 9.00032 19.9265 9.00032H26.5738C26.706 9.00032 26.8267 8.92567 26.8858 8.80749L27.1382 8.30265H19.3621Z" fill="#FDD535"/>
<path fill-rule="evenodd" clip-rule="evenodd" d="M19.4131 33.7675C19.4131 33.1896 19.8816 32.721 20.4596 32.721H26.0409C26.6189 32.721 27.0874 33.1896 27.0874 33.7675C27.0874 34.3455 26.6189 34.814 26.0409 34.814H20.4596C19.8816 34.814 19.4131 34.3455 19.4131 33.7675Z" fill="#FDD535"/>
<path d="M28.6 17.2144H23.8C23.806 17.1145 23.806 17.0143 23.8 16.9144C23.8021 16.3475 23.6806 15.787 23.4439 15.2718C23.2072 14.7567 22.8611 14.2993 22.4296 13.9316C21.9981 13.5639 21.4917 13.2947 20.9455 13.1428C20.3994 12.9908 19.8267 12.9597 19.2673 13.0517C18.7079 13.1437 18.1752 13.3565 17.7065 13.6753C17.2378 13.9942 16.8442 14.4114 16.5532 14.8979C16.2621 15.3844 16.0807 15.9285 16.0214 16.4923C15.9621 17.0561 16.0265 17.626 16.21 18.1624C16.0757 18.405 16.0036 18.6771 16 18.9544V25.2424C16.014 25.7104 16.2099 26.1545 16.5459 26.4804C16.882 26.8064 17.3318 26.9886 17.8 26.9884H23.05L27.118 29.1424C27.2172 29.1975 27.33 29.2234 27.4433 29.2169C27.5566 29.2105 27.6657 29.1721 27.7581 29.1061C27.8504 29.0402 27.9222 28.9494 27.965 28.8443C28.0078 28.7392 28.0199 28.6241 28 28.5124L27.736 26.9884H28.6C29.0682 26.9886 29.518 26.8064 29.8541 26.4804C30.1901 26.1545 30.386 25.7104 30.4 25.2424V18.9544C30.3844 18.4875 30.1879 18.0449 29.852 17.7202C29.5161 17.3955 29.0672 17.2142 28.6 17.2144ZM19.9 14.2144C20.434 14.2144 20.956 14.3728 21.4 14.6695C21.8441 14.9661 22.1901 15.3878 22.3945 15.8812C22.5988 16.3745 22.6523 16.9174 22.5481 17.4412C22.4439 17.9649 22.1868 18.446 21.8092 18.8236C21.4316 19.2012 20.9505 19.4584 20.4267 19.5625C19.903 19.6667 19.3601 19.6133 18.8668 19.4089C18.3734 19.2045 17.9517 18.8585 17.655 18.4145C17.3584 17.9704 17.2 17.4484 17.2 16.9144C17.2016 16.1988 17.4866 15.513 17.9926 15.007C18.4986 14.501 19.1844 14.216 19.9 14.2144Z" fill="#FDD535"/>
<path d="M19.15 16.6144H19.45V17.8144C19.45 17.9736 19.5133 18.1262 19.6258 18.2387C19.7383 18.3512 19.8909 18.4144 20.05 18.4144C20.2092 18.4144 20.3618 18.3512 20.4743 18.2387C20.5868 18.1262 20.65 17.9736 20.65 17.8144V16.0144C20.65 15.8553 20.5868 15.7027 20.4743 15.5902C20.3618 15.4776 20.2092 15.4144 20.05 15.4144H19.15C18.9909 15.4144 18.8383 15.4776 18.7258 15.5902C18.6133 15.7027 18.55 15.8553 18.55 16.0144C18.55 16.1736 18.6133 16.3262 18.7258 16.4387C18.8383 16.5512 18.9909 16.6144 19.15 16.6144Z" fill="#FDD535"/>
</svg>
