<svg width="46" height="46" viewBox="0 0 46 46" fill="none" xmlns="http://www.w3.org/2000/svg">
<rect x="7" y="30" width="7" height="7" rx="0.5" fill="#FDD535"/>
<rect x="19" y="30" width="7" height="7" rx="0.5" fill="#FDD535"/>
<rect x="31" y="30" width="7" height="7" rx="0.5" fill="#FDD535"/>
<path d="M37.9412 28.6667H35.8824V24.5333C35.8824 23.2933 35.0588 22.4667 33.8235 22.4667H23.5294V18.3333H25.5882C26.8235 18.3333 27.6471 17.5067 27.6471 16.2667V10.0667C27.6471 8.82667 26.8235 8 25.5882 8H19.4118C18.1765 8 17.3529 8.82667 17.3529 10.0667V16.2667C17.3529 17.5067 18.1765 18.3333 19.4118 18.3333H21.4706V22.4667H11.1765C9.94118 22.4667 9.11765 23.2933 9.11765 24.5333V28.6667H7.05882C5.82353 28.6667 5 29.4933 5 30.7333V36.9333C5 38.1733 5.82353 39 7.05882 39H13.2353C14.4706 39 15.2941 38.1733 15.2941 36.9333V30.7333C15.2941 29.4933 14.4706 28.6667 13.2353 28.6667H11.1765V24.5333H21.4706V28.6667H19.4118C18.1765 28.6667 17.3529 29.4933 17.3529 30.7333V36.9333C17.3529 38.1733 18.1765 39 19.4118 39H25.5882C26.8235 39 27.6471 38.1733 27.6471 36.9333V30.7333C27.6471 29.4933 26.8235 28.6667 25.5882 28.6667H23.5294V24.5333H33.8235V28.6667H31.7647C30.5294 28.6667 29.7059 29.4933 29.7059 30.7333V36.9333C29.7059 38.1733 30.5294 39 31.7647 39H37.9412C39.1765 39 40 38.1733 40 36.9333V30.7333C40 29.4933 39.1765 28.6667 37.9412 28.6667ZM19.4118 16.2667V10.0667H25.5882V16.2667H19.4118ZM13.2353 30.7333V36.9333H7.05882V30.7333H13.2353ZM25.5882 30.7333V36.9333H19.4118V30.7333H25.5882ZM37.9412 36.9333H31.7647V30.7333H37.9412V36.9333Z" fill="#FDD535"/>
<rect x="20" y="11" width="5" height="4" rx="0.5" fill="#FDD535"/>
</svg>
