<svg width="46" height="46" viewBox="0 0 46 46" fill="none" xmlns="http://www.w3.org/2000/svg">
<circle cx="12" cy="12" r="5" fill="#FDD535"/>
<circle cx="34" cy="33" r="5" fill="#FDD535"/>
<path d="M31.3313 40.4351C29.9259 40.4246 28.5266 40.2482 27.1626 39.9095C22.4521 38.773 17.6014 35.8899 13.5063 31.7912C9.41125 27.6925 6.52457 22.841 5.38804 18.135C4.19133 13.1846 5.04484 8.94933 7.78867 6.2055L8.57211 5.42206C9.28291 4.71268 10.2461 4.31427 11.2503 4.31427C12.2546 4.31427 13.2178 4.71268 13.9286 5.42206L18.4307 9.92323C19.1405 10.6338 19.5392 11.5971 19.5392 12.6015C19.5392 13.6059 19.1405 14.5691 18.4307 15.2797L15.7713 17.9382C17.0462 20.1753 18.7802 22.4142 20.8295 24.4635C22.8788 26.5129 25.1195 28.2478 27.3557 29.5226L30.0142 26.8633C30.3659 26.5115 30.7834 26.2324 31.2429 26.042C31.7025 25.8516 32.195 25.7536 32.6925 25.7536C33.1899 25.7536 33.6824 25.8516 34.142 26.042C34.6015 26.2324 35.019 26.5115 35.3707 26.8633L39.8719 31.3644C40.5819 32.0748 40.9807 33.0379 40.9807 34.0422C40.9807 35.0465 40.5819 36.0097 39.8719 36.72L39.0875 37.5035C37.1532 39.4414 34.4759 40.4351 31.3313 40.4351ZM11.2503 7.00781C11.1069 7.00709 10.9648 7.03502 10.8322 7.08994C10.6997 7.14486 10.5795 7.22567 10.4786 7.32765L9.69426 8.11109C7.63953 10.1658 7.03937 13.5017 8.00429 17.4989C9.02582 21.7332 11.6555 26.1328 15.4083 29.8847C19.1611 33.6366 23.5598 36.2636 27.7951 37.2887C31.7931 38.2537 35.1272 37.6535 37.1819 35.5988L37.9654 34.8153C38.1701 34.6105 38.2851 34.3327 38.2851 34.0431C38.2851 33.7535 38.1701 33.4758 37.9654 33.2709L33.4651 28.7698C33.2603 28.5651 32.9825 28.4501 32.6929 28.4501C32.4033 28.4501 32.1256 28.5651 31.9207 28.7698L28.5507 32.1398C28.3484 32.3421 28.0871 32.4749 27.8044 32.5188C27.5218 32.5627 27.2325 32.5156 26.9784 32.3842C24.2157 30.9557 21.4305 28.8758 18.9239 26.3691C16.4173 23.8625 14.3419 21.0791 12.9098 18.3164C12.7782 18.0624 12.731 17.7732 12.7747 17.4905C12.8185 17.2079 12.9511 16.9465 13.1532 16.7442L16.5242 13.3741C16.7289 13.1693 16.8439 12.8915 16.8439 12.6019C16.8439 12.3123 16.7289 12.0346 16.5242 11.8297L12.023 7.32765C11.9218 7.22585 11.8014 7.14516 11.6687 7.09025C11.5361 7.03535 11.3939 7.00732 11.2503 7.00781Z" fill="white"/>
<path d="M32.7705 24.2336C32.4131 24.2336 32.0703 24.0916 31.8176 23.8388C31.5648 23.5861 31.4229 23.2433 31.4229 22.8859C31.4202 20.5217 30.48 18.255 28.8083 16.5832C27.1366 14.9114 24.8701 13.9709 22.5059 13.968C22.1484 13.968 21.8057 13.826 21.5529 13.5733C21.3002 13.3206 21.1582 12.9778 21.1582 12.6204C21.1582 12.2629 21.3002 11.9202 21.5529 11.6674C21.8057 11.4147 22.1484 11.2727 22.5059 11.2727C28.909 11.2727 34.1182 16.4836 34.1182 22.8859C34.1182 23.2433 33.9762 23.5861 33.7234 23.8388C33.4707 24.0916 33.1279 24.2336 32.7705 24.2336Z" fill="#FDD535"/>
<path d="M38.4666 24.2336C38.1092 24.2336 37.7664 24.0916 37.5137 23.8388C37.2609 23.5861 37.1189 23.2433 37.1189 22.8859C37.1189 14.8278 30.5604 8.27191 22.5059 8.27191C22.1484 8.27191 21.8057 8.12993 21.5529 7.87719C21.3002 7.62446 21.1582 7.28168 21.1582 6.92426C21.1582 6.56683 21.3002 6.22405 21.5529 5.97132C21.8057 5.71858 22.1484 5.5766 22.5059 5.5766C32.05 5.5766 39.8143 13.3418 39.8143 22.8859C39.8143 23.2433 39.6723 23.5861 39.4195 23.8388C39.1668 24.0916 38.824 24.2336 38.4666 24.2336Z" fill="#FDD535"/>
</svg>
