<svg width="46" height="46" viewBox="0 0 46 46" fill="none" xmlns="http://www.w3.org/2000/svg">
<path d="M36.3571 11.9231H30.2857V10.6923C30.2857 8.65662 28.6513 7 26.6429 7H19.3571C17.3487 7 15.7143 8.65662 15.7143 10.6923V11.9231H9.64286C7.63443 11.9231 6 13.5797 6 15.6154V35.3077C6 37.3434 7.63443 39 9.64286 39H36.3571C38.3656 39 40 37.3434 40 35.3077V15.6154C40 13.5797 38.3656 11.9231 36.3571 11.9231ZM18.1429 10.6923C18.1429 10.0142 18.6881 9.46154 19.3571 9.46154H26.6429C27.3119 9.46154 27.8571 10.0142 27.8571 10.6923V11.9231H18.1429V10.6923ZM16.9286 14.3846H36.1119L32.4253 19.9908C32.1994 20.3342 31.8218 20.5385 31.415 20.5385H27.6337C27.131 19.1095 25.7953 18.0769 24.2143 18.0769H21.7857C20.2047 18.0769 18.869 19.1095 18.3663 20.5385H14.585C14.1782 20.5385 13.8006 20.3329 13.5747 19.9908L9.88814 14.3846H16.9286ZM25.4286 21.7692C25.4286 22.4474 24.8834 23 24.2143 23H21.7857C21.1166 23 20.5714 22.4474 20.5714 21.7692C20.5714 21.0911 21.1166 20.5385 21.7857 20.5385H24.2143C24.8834 20.5385 25.4286 21.0911 25.4286 21.7692ZM37.5714 35.3077C37.5714 35.9858 37.0262 36.5385 36.3571 36.5385H9.64286C8.97379 36.5385 8.42857 35.9858 8.42857 35.3077V16.6037L11.5541 21.3557C12.2317 22.3846 13.3646 23 14.585 23H18.3663C18.869 24.4289 20.2047 25.4615 21.7857 25.4615H24.2143C25.7953 25.4615 27.131 24.4289 27.6337 23H31.415C32.6354 23 33.7683 22.3846 34.4459 21.3557L37.5714 16.6037V35.3077Z" fill="#FDD535"/>
<ellipse cx="23" cy="22" rx="3" ry="2" fill="#FDD535"/>
</svg>
