<svg width="46" height="46" viewBox="0 0 46 46" fill="none" xmlns="http://www.w3.org/2000/svg">
<path d="M32.5 10H19C18.4477 10 18 10.4477 18 11C18 11.5523 18.4477 12 19 12H29.5C30.6046 12 31.5 12.8954 31.5 14V30C31.5 30.8284 32.1716 31.5 33 31.5C33.8284 31.5 34.5 30.8284 34.5 30V12C34.5 10.8954 33.6046 10 32.5 10Z" fill="#FDD535"/>
<path d="M12.061 11.2803H14.2471V10.061C14.2471 8.37575 15.6229 7 17.3082 7H34.7065C36.3917 7 37.7675 8.37575 37.7675 10.061V30.9803C37.7675 32.6656 36.3914 34.041 34.7065 34.041H32.5204V35.2607C32.5204 36.946 31.1446 38.3217 29.4593 38.3217H12.061C10.3757 38.3217 9 36.946 9 35.2607V14.3414C9 12.6561 10.3757 11.2803 12.061 11.2803ZM15.8126 11.2803H29.4593C31.1446 11.2803 32.5204 12.6561 32.5204 14.3414V32.4755H34.7065C35.527 32.4755 36.2016 31.8009 36.2016 30.9803V10.061C36.2016 9.24013 35.5274 8.56548 34.7065 8.56548H17.3082C16.4872 8.56548 15.8126 9.24013 15.8126 10.061V11.2803ZM21.1225 18.5937C20.0929 18.5937 20.0929 17.0282 21.1225 17.0282H27.3708C28.4003 17.0282 28.4003 18.5937 27.3708 18.5937H21.1225ZM14.5121 33.0916C13.4825 33.0916 13.4825 31.5261 14.5121 31.5261H27.0083C28.0379 31.5261 28.0379 33.0916 27.0083 33.0916H14.5121ZM14.5121 24.4705C13.4825 24.4705 13.4825 22.905 14.5121 22.905H27.0083C28.0379 22.905 28.0379 24.4705 27.0083 24.4705H14.5121ZM14.5121 27.3441C13.4825 27.3441 13.4825 25.7786 14.5121 25.7786H27.0083C28.0379 25.7786 28.0379 27.3441 27.0083 27.3441H14.5121ZM14.5121 30.218C13.4825 30.218 13.4825 28.6525 14.5121 28.6525H27.0083C28.0379 28.6525 28.0379 30.218 27.0083 30.218H14.5121ZM21.1225 21.0791C20.0929 21.0791 20.0929 19.5133 21.1225 19.5133H27.3708C28.4003 19.5133 28.4003 21.0791 27.3708 21.0791H21.1225ZM14.1496 16.5104H17.3947C17.8267 16.5104 18.1774 16.8608 18.1774 17.2932V20.8142C18.1774 21.2462 17.8267 21.5969 17.3947 21.5969H14.1496C13.7172 21.5969 13.3669 21.2462 13.3669 20.8142V17.2932C13.3669 16.8608 13.7172 16.5104 14.1496 16.5104ZM16.612 18.0759H14.9323V20.0311H16.612V18.0759ZM29.4593 12.8458H12.061C11.2401 12.8458 10.5659 13.5204 10.5659 14.3414V35.2607C10.5659 36.0816 11.2401 36.7562 12.061 36.7562H29.4593C30.2803 36.7562 30.9549 36.0816 30.9549 35.2607V14.3414C30.9549 13.5204 30.2803 12.8458 29.4593 12.8458Z" fill="#FDD535"/>
</svg>
