<svg width="46" height="46" viewBox="0 0 46 46" fill="none" xmlns="http://www.w3.org/2000/svg">
<path d="M21.5174 21.385C21.5196 20.8928 21.6693 20.4148 21.9438 20.0237C22.3139 19.5053 22.7359 19.0334 23.2021 18.6169C23.6228 18.2231 24.0085 17.787 24.354 17.3145C24.5714 16.9826 24.684 16.5829 24.6749 16.1754C24.6801 15.9259 24.639 15.6778 24.5542 15.446C24.4693 15.2142 24.3423 15.0033 24.1809 14.8261C24.0195 14.6489 23.827 14.5089 23.6147 14.4146C23.4025 14.3202 23.175 14.2733 22.9458 14.2768C22.4883 14.272 22.0461 14.4562 21.7084 14.7923C21.315 15.2049 21.0282 15.7228 20.8765 16.294L19 15.4027C19.2386 14.408 19.7659 13.5237 20.5033 12.8814C21.2309 12.2859 22.1221 11.9758 23.0321 12.0015C23.7243 11.9936 24.4081 12.1665 25.0263 12.5055C25.6156 12.8277 26.1133 13.3182 26.466 13.9247C26.8236 14.5422 27.009 15.2594 26.9997 15.9893C27.0073 16.6467 26.8447 17.2932 26.5305 17.8547C26.1334 18.5154 25.6522 19.1114 25.1013 19.625C24.6808 20.0135 24.2851 20.4327 23.9172 20.8799C23.7061 21.1431 23.5888 21.4799 23.5867 21.8292C23.5926 22.0433 23.6219 22.2558 23.6739 22.4624H21.7555C21.6059 22.126 21.5247 21.7586 21.5174 21.385ZM22.7967 27.9994C22.5776 28.0055 22.3597 27.9629 22.1563 27.8743C21.9529 27.7857 21.7681 27.6529 21.6134 27.484C21.4559 27.3166 21.332 27.1156 21.2493 26.8936C21.1666 26.6716 21.127 26.4334 21.1329 26.194C21.1277 25.9528 21.1676 25.7129 21.2502 25.489C21.3328 25.2651 21.4564 25.0619 21.6134 24.8916C21.7667 24.7197 21.9509 24.5842 22.1545 24.4934C22.3581 24.4026 22.5767 24.3585 22.7967 24.3638C23.018 24.3586 23.2379 24.4026 23.4431 24.493C23.6483 24.5834 23.8344 24.7183 23.9902 24.8895C24.1459 25.0608 24.268 25.2647 24.349 25.489C24.43 25.7132 24.4682 25.9531 24.4613 26.194C24.4671 26.4333 24.4276 26.6715 24.3451 26.8934C24.2625 27.1154 24.1388 27.3165 23.9817 27.484C23.8265 27.6528 23.6415 27.7856 23.4378 27.8742C23.2341 27.9628 23.016 28.0054 22.7967 27.9994Z" fill="#FDD535"/>
<path d="M7.47402 39.717C7.25761 39.7168 7.04389 39.6691 6.84802 39.577C6.59361 39.4597 6.37836 39.2716 6.22798 39.0352C6.07761 38.7988 5.99847 38.5242 6.00002 38.244V9.57202C6.00108 8.62499 6.37776 7.71701 7.04741 7.04736C7.71706 6.37771 8.62499 6.00106 9.57202 6H36.262C37.2091 6.00106 38.117 6.37771 38.7866 7.04736C39.4563 7.71701 39.833 8.62499 39.834 9.57202V29.988C39.8327 30.9348 39.4559 31.8425 38.7863 32.512C38.1167 33.1814 37.2089 33.558 36.262 33.559H16.29C15.6916 33.5592 15.1123 33.7694 14.653 34.153L8.41302 39.373C8.14997 39.5941 7.81765 39.7158 7.47402 39.717ZM9.57202 8C9.15526 8.00053 8.75573 8.16631 8.46104 8.461C8.16634 8.75569 8.00055 9.15526 8.00002 9.57202V37.11L13.37 32.619C14.1893 31.9349 15.2226 31.5598 16.29 31.559H36.262C36.6787 31.5588 37.0782 31.3932 37.3729 31.0986C37.6677 30.8041 37.8335 30.4046 37.834 29.988V9.57202C37.8335 9.15526 37.6677 8.75569 37.373 8.461C37.0783 8.16631 36.6788 8.00053 36.262 8H9.57202Z" fill="#FDD535"/>
</svg>
