<svg xmlns="http://www.w3.org/2000/svg" width="36" height="36" fill="none" viewBox="0 0 36 36"><path fill="#fff" d="M18 10.165c-2.143 0-3.973.76-5.491 2.277-1.518 1.518-2.277 3.348-2.277 5.491s.76 3.973 2.277 5.491c1.518 1.473 3.348 2.21 5.491 2.21s3.95-.759 5.424-2.277c1.518-1.518 2.277-3.326 2.277-5.424 0-2.143-.759-3.973-2.277-5.491-1.518-1.518-3.326-2.277-5.424-2.277zm0 12.723c-1.384 0-2.567-.49-3.55-1.473-.937-.982-1.405-2.143-1.405-3.482 0-1.384.468-2.545 1.406-3.482.982-.982 2.165-1.473 3.549-1.473 1.34 0 2.5.49 3.482 1.473.982.937 1.473 2.098 1.473 3.482 0 1.34-.49 2.5-1.473 3.482-.982.982-2.143 1.473-3.482 1.473zm9.777-12.857c0 .447-.179.848-.536 1.206-.312.357-.714.535-1.205.535s-.915-.178-1.273-.535a1.783 1.783 0 0 1-.468-1.206c0-.49.156-.915.468-1.272.357-.357.782-.536 1.273-.536s.893.179 1.205.536c.357.357.536.781.536 1.272zm2.745-4.553c-.759-.804-1.696-1.407-2.812-1.808-1.072-.447-2.232-.67-3.482-.67H11.772c-2.634 0-4.754.804-6.361 2.41C3.804 7.019 3 9.139 3 11.773v12.389c0 1.294.2 2.5.603 3.616a8.156 8.156 0 0 0 1.942 2.812c.803.804 1.74 1.406 2.812 1.808S10.59 33 11.84 33h12.322c1.294 0 2.477-.2 3.549-.603a9.213 9.213 0 0 0 2.812-1.808 7.194 7.194 0 0 0 1.808-2.745c.447-1.116.67-2.322.67-3.616V11.772c0-1.294-.223-2.477-.67-3.549a7.194 7.194 0 0 0-1.808-2.745zm-.2 18.75c0 .937-.157 1.785-.47 2.544a6.059 6.059 0 0 1-1.272 1.875c-.58.491-1.25.87-2.009 1.139-.714.268-1.517.401-2.41.401H11.839c-.937 0-1.785-.133-2.544-.401a5.709 5.709 0 0 1-1.875-1.139 5.428 5.428 0 0 1-1.273-1.942c-.268-.759-.401-1.607-.401-2.544V11.772c0-.937.133-1.763.401-2.477A4.754 4.754 0 0 1 7.42 7.353c.49-.536 1.116-.938 1.875-1.206.759-.268 1.607-.401 2.544-.401h12.456c.893 0 1.696.156 2.41.468.76.268 1.407.67 1.942 1.206a5.107 5.107 0 0 1 1.206 1.942c.312.714.468 1.517.468 2.41z"/></svg>