<svg width="36" height="36" viewBox="0 0 36 36" fill="none" xmlns="http://www.w3.org/2000/svg">
<path d="M28.334 12.999C28.3339 11.7105 27.2895 10.666 26.001 10.666C24.7125 10.666 23.668 11.7105 23.668 12.999C23.668 14.2875 24.7125 15.332 26.001 15.332C27.2895 15.332 28.334 14.2875 28.334 12.999ZM30.334 12.999C30.334 15.3921 28.3941 17.332 26.001 17.332C23.6079 17.332 21.668 15.3921 21.668 12.999C21.668 10.6059 23.6079 8.66601 26.001 8.66598C28.394 8.66598 30.3339 10.6059 30.334 12.999Z" fill="#FDD535"/>
<path d="M27.9609 14.9589C28.3515 14.5684 28.9845 14.5684 29.375 14.9589L32.708 18.292C33.0985 18.6825 33.0985 19.3155 32.708 19.706C32.3175 20.0965 31.6845 20.0965 31.2939 19.706L27.9609 16.373C27.5704 15.9825 27.5704 15.3495 27.9609 14.9589Z" fill="#FDD535"/>
<path d="M21.665 28.332V26.999C21.665 22.3971 17.9348 18.6662 13.333 18.666C8.73103 18.666 5 22.397 5 26.999V28.332C4.99991 28.8842 4.55223 29.332 4 29.332C3.44777 29.332 3.00009 28.8842 3 28.332V26.999C3 21.2924 7.62646 16.666 13.333 16.666C19.0394 16.6662 23.665 21.2926 23.665 26.999V28.332C23.665 28.8842 23.2173 29.332 22.665 29.332C22.1129 29.3319 21.6651 28.8841 21.665 28.332Z" fill="#FDD535"/>
<path d="M17.67 12.333C17.67 9.94003 15.7299 8.00004 13.3369 8C10.9439 8 9.00394 9.94 9.00394 12.333C9.00398 14.7259 10.944 16.666 13.3369 16.666C15.7298 16.666 17.6699 14.7259 17.67 12.333ZM19.67 12.333C19.6699 15.8305 16.8344 18.666 13.3369 18.666C9.83938 18.666 7.00398 15.8305 7.00394 12.333C7.00394 8.83543 9.83936 6 13.3369 6C16.8344 6.00004 19.67 8.83545 19.67 12.333Z" fill="#FDD535"/>
</svg>
